SplineFontDB: 3.2
FontName: FiraSans-BlackItalic
FullName: Fira Sans Black Italic
FamilyName: Fira Sans Black
Weight: Black
Copyright: Digitized data copyright 2012-2016, The Mozilla Foundation and Telefonica S.A.
Version: 4.203
ItalicAngle: -8
UnderlinePosition: -100
UnderlineWidth: 50
Ascent: 800
Descent: 200
InvalidEm: 0
sfntRevision: 0x000433f7
LayerCount: 2
Layer: 0 1 "Back" 1
Layer: 1 1 "Fore" 0
XUID: [1021 213 1395154467 15382845]
StyleMap: 0x0001
FSType: 0
OS2Version: 4
OS2_WeightWidthSlopeOnly: 0
OS2_UseTypoMetrics: 1
CreationTime: 1476948552
ModificationTime: 1480667555
PfmFamily: 17
TTFWeight: 900
TTFWidth: 5
LineGap: 0
VLineGap: 0
Panose: 2 11 10 3 5 0 0 2 0 4
OS2TypoAscent: 935
OS2TypoAOffset: 0
OS2TypoDescent: -265
OS2TypoDOffset: 0
OS2TypoLinegap: 0
OS2WinAscent: 935
OS2WinAOffset: 0
OS2WinDescent: 265
OS2WinDOffset: 0
HheadAscent: 935
HheadAOffset: 0
HheadDescent: -265
HheadDOffset: 0
OS2SubXSize: 650
OS2SubYSize: 600
OS2SubXOff: -11
OS2SubYOff: 75
OS2SupXSize: 650
OS2SupYSize: 600
OS2SupXOff: 49
OS2SupYOff: 350
OS2StrikeYSize: 50
OS2StrikeYPos: 320
OS2CapHeight: 696
OS2XHeight: 534
OS2Vendor: 'CTDB'
OS2CodePages: 2000019f.00000000
OS2UnicodeRanges: 600002ff.00000001.00000000.00000000
Lookup: 1 0 0 "'aalt' Access All Alternates lookup 0" { "'aalt' Access All Alternates lookup 0 subtable"  } ['aalt' ('DFLT' <'dflt' > 'cyrl' <'dflt' > 'grek' <'dflt' > 'latn' <'AFK ' 'CAT ' 'EWE ' 'MOL ' 'PLK ' 'ROM ' 'TRK ' 'dflt' > ) ]
Lookup: 3 0 0 "'aalt' Access All Alternates lookup 1" { "'aalt' Access All Alternates lookup 1 subtable"  } ['aalt' ('DFLT' <'dflt' > 'cyrl' <'dflt' > 'grek' <'dflt' > 'latn' <'AFK ' 'CAT ' 'EWE ' 'MOL ' 'PLK ' 'ROM ' 'TRK ' 'dflt' > ) ]
Lookup: 1 0 0 "'locl' Localized Forms in Latin lookup 2" { "'locl' Localized Forms in Latin lookup 2 subtable"  } ['locl' ('latn' <'TAT ' > ) ]
Lookup: 1 0 0 "'locl' Localized Forms in Latin lookup 3" { "'locl' Localized Forms in Latin lookup 3 subtable"  } ['locl' ('latn' <'TRK ' > ) ]

StartChar: .notdef
Encoding: 65536 -1 0
Width: 654
GlyphClass: 1
Flags: W
LayerCount: 2
Fore
SplineSet
643 1050 m 1,0,-1
 446 -350 l 1,1,-1
 34 -350 l 1,2,-1
 231 1050 l 1,3,-1
 643 1050 l 1,0,-1
584 998 m 1,4,-1
 279 998 l 1,5,-1
 96 -298 l 1,6,-1
 401 -298 l 1,7,-1
 584 998 l 1,4,-1
416 426 m 128,-1,9
 439 401 439 401 439 360 c 0,10,11
 439 351 439 351 437 333 c 0,12,13
 430 281 430 281 404.5 253 c 128,-1,14
 379 225 379 225 329 218 c 1,15,-1
 322 172 l 2,16,17
 321 161 321 161 313 155 c 128,-1,18
 305 149 305 149 296 149 c 0,19,20
 286 149 286 149 278.5 156 c 128,-1,21
 271 163 271 163 273 174 c 2,22,-1
 284 257 l 1,23,24
 336 260 336 260 357.5 277.5 c 128,-1,25
 379 295 379 295 384 337 c 0,26,27
 386 351 386 351 386 358 c 0,28,29
 386 403 386 403 336 403 c 0,30,31
 310 403 310 403 283 391 c 0,32,33
 277 389 277 389 271 389 c 0,34,35
 259 389 259 389 253 396 c 128,-1,36
 247 403 247 403 248 415 c 0,37,38
 251 432 251 432 280.5 441.5 c 128,-1,39
 310 451 310 451 342 451 c 0,40,8
 393 451 393 451 416 426 c 128,-1,9
313 109.5 m 128,-1,42
 322 99 322 99 320 82 c 0,43,44
 318 68 318 68 306.5 58 c 128,-1,45
 295 48 295 48 281 48 c 0,46,47
 268 48 268 48 259.5 57.5 c 128,-1,48
 251 67 251 67 251 82 c 0,49,50
 251 98 251 98 262 109 c 128,-1,51
 273 120 273 120 288 120 c 0,52,41
 304 120 304 120 313 109.5 c 128,-1,42
EndSplineSet
EndChar

StartChar: A
Encoding: 65 65 3
Width: 589
GlyphClass: 2
Flags: W
AnchorPoint: "Anchor-18" 0 0 basechar 0
AnchorPoint: "Anchor-17" 0 0 basechar 0
AnchorPoint: "Anchor-16" 354 696 basechar 0
AnchorPoint: "Anchor-15" 488 0 basechar 0
AnchorPoint: "Anchor-14" 255 0 basechar 0
LayerCount: 2
Fore
SplineSet
362 0 m 1,0,-1
 355 135 l 1,1,-1
 192 135 l 1,2,-1
 148 0 l 1,3,-1
 -63 0 l 1,4,-1
 233 696 l 1,5,-1
 475 696 l 1,6,-1
 576 0 l 1,7,-1
 362 0 l 1,0,-1
238 279 m 1,8,-1
 347 279 l 1,9,-1
 331 567 l 1,10,-1
 238 279 l 1,8,-1
EndSplineSet
Substitution2: "Single Substitution lookup 44 subtable" ordfeminine
Substitution2: "'c2sc' Capitals to Small Capitals lookup 27 subtable" a.sc
AlternateSubs2: "'aalt' Access All Alternates lookup 1 subtable" ordfeminine a.sc
Position2: "'cpsp' Capital Spacing lookup 0 subtable" dx=5 dy=0 dh=10 dv=0
EndChar

StartChar: uni1EAE
Encoding: 7854 7854 6
Width: 589
GlyphClass: 2
Flags: W
AnchorPoint: "Anchor-18" 0 0 basechar 0
AnchorPoint: "Anchor-17" 0 0 basechar 0
AnchorPoint: "Anchor-16" 392 939 basechar 0
AnchorPoint: "Anchor-15" 488 0 basechar 0
AnchorPoint: "Anchor-14" 0 0 basechar 0
LayerCount: 2
Fore
SplineSet
579 1057 m 1,0,-1
 390 908 l 1,1,-1
 325 973 l 1,2,-1
 488 1159 l 1,3,-1
 579 1057 l 1,0,-1
273 761.5 m 128,-1,5
 237 788 237 788 221.5 830.5 c 128,-1,6
 206 873 206 873 209 922 c 1,7,-1
 309 937 l 1,8,9
 312 907 312 907 329.5 888 c 128,-1,10
 347 869 347 869 378 869 c 0,11,12
 410 869 410 869 433 888.5 c 128,-1,13
 456 908 456 908 468 939 c 1,14,-1
 571 920 l 1,15,16
 554 843 554 843 501 789 c 128,-1,17
 448 735 448 735 366 735 c 0,18,4
 309 735 309 735 273 761.5 c 128,-1,5
233 696 m 1,19,-1
 475 696 l 1,20,-1
 576 0 l 1,21,-1
 362 0 l 1,22,-1
 355 135 l 1,23,-1
 192 135 l 1,24,-1
 148 0 l 1,25,-1
 -63 0 l 1,26,-1
 233 696 l 1,19,-1
238 279 m 1,27,-1
 347 279 l 1,28,-1
 331 567 l 1,29,-1
 238 279 l 1,27,-1
EndSplineSet
Substitution2: "'c2sc' Capitals to Small Capitals lookup 27 subtable" uni1EAF.sc
Substitution2: "'aalt' Access All Alternates lookup 0 subtable" uni1EAF.sc
Position2: "'cpsp' Capital Spacing lookup 0 subtable" dx=5 dy=0 dh=10 dv=0
EndChar

StartChar: uni1EB0
Encoding: 7856 7856 8
Width: 589
GlyphClass: 2
Flags: W
AnchorPoint: "Anchor-18" 0 0 basechar 0
AnchorPoint: "Anchor-17" 0 0 basechar 0
AnchorPoint: "Anchor-16" 392 939 basechar 0
AnchorPoint: "Anchor-15" 488 0 basechar 0
AnchorPoint: "Anchor-14" 0 0 basechar 0
LayerCount: 2
Fore
SplineSet
458 968 m 1,0,-1
 380 908 l 1,1,-1
 232 1064 l 1,2,-1
 346 1156 l 1,3,-1
 458 968 l 1,0,-1
273 761.5 m 128,-1,5
 237 788 237 788 221.5 830.5 c 128,-1,6
 206 873 206 873 209 922 c 1,7,-1
 309 937 l 1,8,9
 312 907 312 907 329.5 888 c 128,-1,10
 347 869 347 869 378 869 c 0,11,12
 410 869 410 869 433 888.5 c 128,-1,13
 456 908 456 908 468 939 c 1,14,-1
 571 920 l 1,15,16
 554 843 554 843 501 789 c 128,-1,17
 448 735 448 735 366 735 c 0,18,4
 309 735 309 735 273 761.5 c 128,-1,5
362 0 m 1,19,-1
 355 135 l 1,20,-1
 192 135 l 1,21,-1
 148 0 l 1,22,-1
 -63 0 l 1,23,-1
 233 696 l 1,24,-1
 475 696 l 1,25,-1
 576 0 l 1,26,-1
 362 0 l 1,19,-1
238 279 m 1,27,-1
 347 279 l 1,28,-1
 331 567 l 1,29,-1
 238 279 l 1,27,-1
EndSplineSet
Substitution2: "'c2sc' Capitals to Small Capitals lookup 27 subtable" uni1EB1.sc
Substitution2: "'aalt' Access All Alternates lookup 0 subtable" uni1EB1.sc
Position2: "'cpsp' Capital Spacing lookup 0 subtable" dx=5 dy=0 dh=10 dv=0
EndChar

StartChar: uni1EB4
Encoding: 7860 7860 10
Width: 589
GlyphClass: 2
Flags: W
AnchorPoint: "Anchor-18" 0 0 basechar 0
AnchorPoint: "Anchor-17" 0 0 basechar 0
AnchorPoint: "Anchor-16" 406 1129 basechar 0
AnchorPoint: "Anchor-15" 488 0 basechar 0
AnchorPoint: "Anchor-14" 0 0 basechar 0
LayerCount: 2
Fore
SplineSet
316.5 993.5 m 128,-1,1
 304 984 304 984 288 964 c 1,2,-1
 204 1006 l 1,3,4
 233 1060 233 1060 272 1094 c 128,-1,5
 311 1128 311 1128 356 1128 c 0,6,7
 378 1128 378 1128 394 1121.5 c 128,-1,8
 410 1115 410 1115 427 1104 c 0,9,10
 436 1098 436 1098 445 1093.5 c 128,-1,11
 454 1089 454 1089 462 1089 c 0,12,13
 479 1089 479 1089 491 1098 c 128,-1,14
 503 1107 503 1107 520 1129 c 1,15,-1
 603 1086 l 1,16,17
 576 1033 576 1033 535.5 999 c 128,-1,18
 495 965 495 965 451 965 c 0,19,20
 434 965 434 965 421 970 c 128,-1,21
 408 975 408 975 386 987 c 0,22,23
 361 1003 361 1003 346 1003 c 0,24,0
 329 1003 329 1003 316.5 993.5 c 128,-1,1
432 888.5 m 128,-1,26
 455 908 455 908 467 939 c 1,27,-1
 570 920 l 1,28,29
 553 843 553 843 500 789 c 128,-1,30
 447 735 447 735 365 735 c 0,31,32
 308 735 308 735 272 761.5 c 128,-1,33
 236 788 236 788 220.5 830.5 c 128,-1,34
 205 873 205 873 208 922 c 1,35,-1
 308 937 l 1,36,37
 311 907 311 907 328.5 888 c 128,-1,38
 346 869 346 869 377 869 c 0,39,25
 409 869 409 869 432 888.5 c 128,-1,26
233 696 m 1,40,-1
 475 696 l 1,41,-1
 576 0 l 1,42,-1
 362 0 l 1,43,-1
 355 135 l 1,44,-1
 192 135 l 1,45,-1
 148 0 l 1,46,-1
 -63 0 l 1,47,-1
 233 696 l 1,40,-1
238 279 m 1,48,-1
 347 279 l 1,49,-1
 331 567 l 1,50,-1
 238 279 l 1,48,-1
EndSplineSet
Substitution2: "'c2sc' Capitals to Small Capitals lookup 27 subtable" uni1EB5.sc
Substitution2: "'aalt' Access All Alternates lookup 0 subtable" uni1EB5.sc
Position2: "'cpsp' Capital Spacing lookup 0 subtable" dx=5 dy=0 dh=10 dv=0
EndChar

StartChar: uni1EA4
Encoding: 7844 7844 13
Width: 589
GlyphClass: 2
Flags: W
AnchorPoint: "Anchor-18" 0 0 basechar 0
AnchorPoint: "Anchor-17" 456 828 basechar 0
AnchorPoint: "Anchor-16" 383 942 basechar 0
AnchorPoint: "Anchor-15" 488 0 basechar 0
AnchorPoint: "Anchor-14" 0 0 basechar 0
LayerCount: 2
Fore
SplineSet
729 1036 m 1,0,-1
 540 887 l 1,1,-1
 475 952 l 1,2,-1
 638 1138 l 1,3,-1
 729 1036 l 1,0,-1
369 811 m 1,4,-1
 223 724 l 1,5,-1
 164 801 l 1,6,-1
 326 942 l 1,7,-1
 442 942 l 1,8,-1
 564 801 l 1,9,-1
 491 724 l 1,10,-1
 369 811 l 1,4,-1
233 696 m 1,11,-1
 475 696 l 1,12,-1
 576 0 l 1,13,-1
 362 0 l 1,14,-1
 355 135 l 1,15,-1
 192 135 l 1,16,-1
 148 0 l 1,17,-1
 -63 0 l 1,18,-1
 233 696 l 1,11,-1
238 279 m 1,19,-1
 347 279 l 1,20,-1
 331 567 l 1,21,-1
 238 279 l 1,19,-1
EndSplineSet
Substitution2: "'c2sc' Capitals to Small Capitals lookup 27 subtable" uni1EA5.sc
Substitution2: "'aalt' Access All Alternates lookup 0 subtable" uni1EA5.sc
Position2: "'cpsp' Capital Spacing lookup 0 subtable" dx=5 dy=0 dh=10 dv=0
EndChar

StartChar: uni1EA6
Encoding: 7846 7846 15
Width: 589
GlyphClass: 2
Flags: W
AnchorPoint: "Anchor-18" 0 0 basechar 0
AnchorPoint: "Anchor-17" 454 828 basechar 0
AnchorPoint: "Anchor-16" 381 942 basechar 0
AnchorPoint: "Anchor-15" 488 0 basechar 0
AnchorPoint: "Anchor-14" 0 0 basechar 0
LayerCount: 2
Fore
SplineSet
282 947 m 1,0,-1
 204 887 l 1,1,-1
 56 1043 l 1,2,-1
 170 1135 l 1,3,-1
 282 947 l 1,0,-1
221 724 m 1,4,-1
 162 801 l 1,5,-1
 324 942 l 1,6,-1
 440 942 l 1,7,-1
 562 801 l 1,8,-1
 489 724 l 1,9,-1
 367 811 l 1,10,-1
 221 724 l 1,4,-1
362 0 m 1,11,-1
 355 135 l 1,12,-1
 192 135 l 1,13,-1
 148 0 l 1,14,-1
 -63 0 l 1,15,-1
 233 696 l 1,16,-1
 475 696 l 1,17,-1
 576 0 l 1,18,-1
 362 0 l 1,11,-1
238 279 m 1,19,-1
 347 279 l 1,20,-1
 331 567 l 1,21,-1
 238 279 l 1,19,-1
EndSplineSet
Substitution2: "'c2sc' Capitals to Small Capitals lookup 27 subtable" uni1EA7.sc
Substitution2: "'aalt' Access All Alternates lookup 0 subtable" uni1EA7.sc
Position2: "'cpsp' Capital Spacing lookup 0 subtable" dx=5 dy=0 dh=10 dv=0
EndChar

StartChar: uni1EA8
Encoding: 7848 7848 16
Width: 589
GlyphClass: 2
Flags: W
AnchorPoint: "Anchor-18" 0 0 basechar 0
AnchorPoint: "Anchor-17" 452 828 basechar 0
AnchorPoint: "Anchor-16" 583 1124 basechar 0
AnchorPoint: "Anchor-15" 488 0 basechar 0
AnchorPoint: "Anchor-14" 0 0 basechar 0
LayerCount: 2
Fore
SplineSet
670.5 1095.5 m 128,-1,1
 703 1067 703 1067 703 1022 c 0,2,3
 703 979 703 979 676.5 953 c 128,-1,4
 650 927 650 927 603 918 c 1,5,-1
 599 879 l 1,6,-1
 493 879 l 1,7,-1
 560 801 l 1,8,-1
 487 724 l 1,9,-1
 365 811 l 1,10,-1
 219 724 l 1,11,-1
 160 801 l 1,12,-1
 322 942 l 1,13,-1
 438 942 l 1,14,-1
 492 880 l 1,15,-1
 502 972 l 1,16,17
 541 973 541 973 559.5 982.5 c 128,-1,18
 578 992 578 992 578 1011 c 0,19,20
 578 1035 578 1035 544 1035 c 0,21,22
 518 1035 518 1035 484 1022 c 1,23,-1
 464 1097 l 1,24,25
 515 1124 515 1124 576 1124 c 0,26,0
 638 1124 638 1124 670.5 1095.5 c 128,-1,1
233 696 m 1,27,-1
 475 696 l 1,28,-1
 576 0 l 1,29,-1
 362 0 l 1,30,-1
 355 135 l 1,31,-1
 192 135 l 1,32,-1
 148 0 l 1,33,-1
 -63 0 l 1,34,-1
 233 696 l 1,27,-1
238 279 m 1,35,-1
 347 279 l 1,36,-1
 331 567 l 1,37,-1
 238 279 l 1,35,-1
EndSplineSet
Substitution2: "'c2sc' Capitals to Small Capitals lookup 27 subtable" uni1EA9.sc
Substitution2: "'aalt' Access All Alternates lookup 0 subtable" uni1EA9.sc
Position2: "'cpsp' Capital Spacing lookup 0 subtable" dx=5 dy=0 dh=10 dv=0
EndChar

StartChar: uni1EAA
Encoding: 7850 7850 17
Width: 589
GlyphClass: 2
Flags: W
AnchorPoint: "Anchor-18" 0 0 basechar 0
AnchorPoint: "Anchor-17" 450 828 basechar 0
AnchorPoint: "Anchor-16" 396 1132 basechar 0
AnchorPoint: "Anchor-15" 488 0 basechar 0
AnchorPoint: "Anchor-14" 0 0 basechar 0
LayerCount: 2
Fore
SplineSet
306.5 996.5 m 128,-1,1
 294 987 294 987 278 967 c 1,2,-1
 194 1009 l 1,3,4
 223 1063 223 1063 262 1097 c 128,-1,5
 301 1131 301 1131 346 1131 c 0,6,7
 368 1131 368 1131 384 1124.5 c 128,-1,8
 400 1118 400 1118 417 1107 c 0,9,10
 426 1101 426 1101 435 1096.5 c 128,-1,11
 444 1092 444 1092 452 1092 c 0,12,13
 469 1092 469 1092 481 1101 c 128,-1,14
 493 1110 493 1110 510 1132 c 1,15,-1
 593 1089 l 1,16,17
 566 1036 566 1036 525.5 1002 c 128,-1,18
 485 968 485 968 441 968 c 0,19,20
 424 968 424 968 411 973 c 128,-1,21
 398 978 398 978 376 990 c 0,22,23
 351 1006 351 1006 336 1006 c 0,24,0
 319 1006 319 1006 306.5 996.5 c 128,-1,1
363 811 m 1,25,-1
 217 724 l 1,26,-1
 158 801 l 1,27,-1
 320 942 l 1,28,-1
 436 942 l 1,29,-1
 558 801 l 1,30,-1
 485 724 l 1,31,-1
 363 811 l 1,25,-1
233 696 m 1,32,-1
 475 696 l 1,33,-1
 576 0 l 1,34,-1
 362 0 l 1,35,-1
 355 135 l 1,36,-1
 192 135 l 1,37,-1
 148 0 l 1,38,-1
 -63 0 l 1,39,-1
 233 696 l 1,32,-1
238 279 m 1,40,-1
 347 279 l 1,41,-1
 331 567 l 1,42,-1
 238 279 l 1,40,-1
EndSplineSet
Substitution2: "'c2sc' Capitals to Small Capitals lookup 27 subtable" uni1EAB.sc
Substitution2: "'aalt' Access All Alternates lookup 0 subtable" uni1EAB.sc
Position2: "'cpsp' Capital Spacing lookup 0 subtable" dx=5 dy=0 dh=10 dv=0
EndChar

StartChar: uni2C6D
Encoding: 11373 11373 27
Width: 674
GlyphClass: 2
Flags: W
AnchorPoint: "Anchor-18" 0 0 basechar 0
AnchorPoint: "Anchor-17" 0 0 basechar 0
AnchorPoint: "Anchor-16" 397 696 basechar 0
AnchorPoint: "Anchor-15" 0 0 basechar 0
AnchorPoint: "Anchor-14" 299 0 basechar 0
LayerCount: 2
Fore
SplineSet
612 146 m 0,1,2
 612 132 612 132 617 124 c 128,-1,3
 622 116 622 116 636 110 c 1,4,-1
 580 -16 l 1,5,6
 476 -11 476 -11 432 63 c 1,7,8
 397 23 397 23 355 1.5 c 128,-1,9
 313 -20 313 -20 256 -20 c 0,10,11
 146 -20 146 -20 85 53.5 c 128,-1,12
 24 127 24 127 24 256 c 0,13,14
 24 375 24 375 64 481 c 128,-1,15
 104 587 104 587 178 651.5 c 128,-1,16
 252 716 252 716 351 716 c 0,17,18
 402 716 402 716 436.5 696 c 128,-1,19
 471 676 471 676 498 640 c 1,20,-1
 517 696 l 1,21,-1
 687 696 l 1,22,-1
 614 172 l 2,23,0
 612 152 612 152 612 146 c 0,1,2
253 150.5 m 128,-1,25
 274 121 274 121 317 121 c 0,26,27
 368 121 368 121 410 157 c 1,28,-1
 462 528 l 1,29,30
 435 570 435 570 384 570 c 256,31,32
 333 570 333 570 298.5 522 c 128,-1,33
 264 474 264 474 248 401.5 c 128,-1,34
 232 329 232 329 232 253 c 0,35,24
 232 180 232 180 253 150.5 c 128,-1,25
EndSplineSet
Substitution2: "'c2sc' Capitals to Small Capitals lookup 27 subtable" uni2C6D.sc
Substitution2: "'aalt' Access All Alternates lookup 0 subtable" uni2C6D.sc
Position2: "'cpsp' Capital Spacing lookup 0 subtable" dx=5 dy=0 dh=10 dv=0
EndChar

StartChar: Aogonek
Encoding: 260 260 29
Width: 589
GlyphClass: 2
Flags: W
AnchorPoint: "Anchor-18" 0 0 basechar 0
AnchorPoint: "Anchor-17" 0 0 basechar 0
AnchorPoint: "Anchor-16" 354 696 basechar 0
AnchorPoint: "Anchor-15" 488 0 basechar 0
AnchorPoint: "Anchor-14" 255 0 basechar 0
LayerCount: 2
Fore
SplineSet
378.5 -52.5 m 128,-1,1
 351 -81 351 -81 351 -106 c 0,2,3
 351 -139 351 -139 394 -139 c 0,4,5
 421 -139 421 -139 456 -131 c 1,6,-1
 430 -246 l 1,7,8
 395 -254 395 -254 357 -254 c 0,9,10
 294 -254 294 -254 254 -224.5 c 128,-1,11
 214 -195 214 -195 214 -143 c 0,12,13
 214 -34 214 -34 360 29 c 1,14,-1
 355 135 l 1,15,-1
 192 135 l 1,16,-1
 148 0 l 1,17,-1
 -63 0 l 1,18,-1
 233 696 l 1,19,-1
 475 696 l 1,20,-1
 576 0 l 1,21,-1
 480 0 l 1,22,0
 406 -24 406 -24 378.5 -52.5 c 128,-1,1
238 279 m 1,23,-1
 347 279 l 1,24,-1
 331 567 l 1,25,-1
 238 279 l 1,23,-1
EndSplineSet
Substitution2: "'c2sc' Capitals to Small Capitals lookup 27 subtable" aogonek.sc
Substitution2: "'aalt' Access All Alternates lookup 0 subtable" aogonek.sc
Position2: "'cpsp' Capital Spacing lookup 0 subtable" dx=5 dy=0 dh=10 dv=0
EndChar

StartChar: uni023A
Encoding: 570 570 32
Width: 589
GlyphClass: 2
Flags: W
AnchorPoint: "Anchor-18" 0 0 basechar 0
AnchorPoint: "Anchor-17" 0 0 basechar 0
AnchorPoint: "Anchor-16" 354 696 basechar 0
AnchorPoint: "Anchor-15" 0 0 basechar 0
AnchorPoint: "Anchor-14" 256 0 basechar 0
LayerCount: 2
Fore
SplineSet
386 0 m 1,0,-1
 374 135 l 1,1,-1
 270 135 l 1,2,-1
 184 -77 l 1,3,-1
 119 -62 l 1,4,-1
 199 135 l 1,5,-1
 175 135 l 1,6,-1
 128 0 l 1,7,-1
 -63 0 l 1,8,-1
 233 696 l 1,9,-1
 426 696 l 1,10,-1
 452 759 l 1,11,-1
 516 744 l 1,12,-1
 481 657 l 1,13,-1
 576 0 l 1,14,-1
 386 0 l 1,0,-1
222 269 m 1,15,-1
 253 269 l 1,16,-1
 343 489 l 1,17,-1
 334 587 l 1,18,-1
 222 269 l 1,15,-1
324 269 m 1,19,-1
 362 269 l 1,20,-1
 355 347 l 1,21,-1
 324 269 l 1,19,-1
EndSplineSet
Substitution2: "'c2sc' Capitals to Small Capitals lookup 27 subtable" uni2C65.sc
Substitution2: "'aalt' Access All Alternates lookup 0 subtable" uni2C65.sc
Position2: "'cpsp' Capital Spacing lookup 0 subtable" dx=5 dy=0 dh=10 dv=0
EndChar

StartChar: AE
Encoding: 198 198 34
Width: 847
GlyphClass: 2
Flags: W
AnchorPoint: "Anchor-18" 0 0 basechar 0
AnchorPoint: "Anchor-17" 0 0 basechar 0
AnchorPoint: "Anchor-16" 541 696 basechar 0
AnchorPoint: "Anchor-15" 0 0 basechar 0
AnchorPoint: "Anchor-14" 386 0 basechar 0
LayerCount: 2
Fore
SplineSet
814 553 m 1,0,-1
 571 553 l 1,1,-1
 575 421 l 1,2,-1
 806 421 l 1,3,-1
 788 282 l 1,4,-1
 579 282 l 1,5,-1
 583 144 l 1,6,-1
 811 144 l 1,7,-1
 791 0 l 1,8,-1
 401 0 l 1,9,-1
 400 135 l 1,10,-1
 215 135 l 1,11,-1
 155 0 l 1,12,-1
 -64 0 l 1,13,-1
 288 696 l 1,14,-1
 854 696 l 1,15,-1
 814 553 l 1,0,-1
278 279 m 1,16,-1
 399 279 l 1,17,-1
 397 549 l 1,18,-1
 278 279 l 1,16,-1
EndSplineSet
Substitution2: "'c2sc' Capitals to Small Capitals lookup 27 subtable" ae.sc
Substitution2: "'aalt' Access All Alternates lookup 0 subtable" ae.sc
Position2: "'cpsp' Capital Spacing lookup 0 subtable" dx=5 dy=0 dh=10 dv=0
EndChar

StartChar: B
Encoding: 66 66 37
Width: 610
GlyphClass: 2
Flags: W
AnchorPoint: "Anchor-18" 0 0 basechar 0
AnchorPoint: "Anchor-17" 0 0 basechar 0
AnchorPoint: "Anchor-16" 338 696 basechar 0
AnchorPoint: "Anchor-15" 0 0 basechar 0
AnchorPoint: "Anchor-14" 257 0 basechar 0
LayerCount: 2
Fore
SplineSet
552 323 m 128,-1,1
 589 290 589 290 589 221 c 0,2,3
 589 121 589 121 508.5 60.5 c 128,-1,4
 428 0 428 0 246 0 c 2,5,-1
 6 0 l 1,6,-1
 103 696 l 1,7,-1
 314 696 l 2,8,9
 455 696 455 696 529.5 659 c 128,-1,10
 604 622 604 622 604 535 c 0,11,12
 604 465 604 465 561 425 c 128,-1,13
 518 385 518 385 453 368 c 1,14,0
 515 356 515 356 552 323 c 128,-1,1
376.5 450.5 m 128,-1,16
 395 474 395 474 395 509 c 0,17,18
 395 533 395 533 376.5 544 c 128,-1,19
 358 555 358 555 315 555 c 2,20,-1
 284 555 l 1,21,-1
 266 427 l 1,22,-1
 301 427 l 2,23,15
 358 427 358 427 376.5 450.5 c 128,-1,16
357.5 169.5 m 128,-1,25
 382 194 382 194 382 239 c 0,26,27
 382 297 382 297 297 297 c 2,28,-1
 248 297 l 1,29,-1
 227 145 l 1,30,-1
 266 145 l 2,31,24
 333 145 333 145 357.5 169.5 c 128,-1,25
EndSplineSet
Substitution2: "'c2sc' Capitals to Small Capitals lookup 27 subtable" b.sc
Substitution2: "'aalt' Access All Alternates lookup 0 subtable" b.sc
Position2: "'cpsp' Capital Spacing lookup 0 subtable" dx=5 dy=0 dh=10 dv=0
EndChar

StartChar: uniA7B4
Encoding: 42932 42932 40
Width: 608
GlyphClass: 2
Flags: W
AnchorPoint: "Anchor-18" 0 0 basechar 0
AnchorPoint: "Anchor-17" 0 0 basechar 0
AnchorPoint: "Anchor-16" 364 696 basechar 0
AnchorPoint: "Anchor-15" 0 0 basechar 0
AnchorPoint: "Anchor-14" 0 0 basechar 0
LayerCount: 2
Fore
SplineSet
589 233 m 0,1,2
 589 157 589 157 550.5 104.5 c 128,-1,3
 512 52 512 52 446.5 26 c 128,-1,4
 381 0 381 0 299 0 c 0,5,6
 253 0 253 0 208 8 c 1,7,-1
 177 -215 l 1,8,-1
 -25 -215 l 1,9,-1
 103 696 l 1,10,-1
 314 696 l 2,11,12
 455 696 455 696 529.5 659 c 128,-1,13
 604 622 604 622 604 535 c 0,14,15
 604 465 604 465 561 425 c 128,-1,16
 518 385 518 385 454 368 c 1,17,0
 589 341 589 341 589 233 c 0,1,2
292 297 m 1,18,-1
 320 427 l 1,19,-1
 322 427 l 2,20,21
 356 427 356 427 375 447.5 c 128,-1,22
 394 468 394 468 394 502 c 0,23,24
 394 530 394 530 376 542.5 c 128,-1,25
 358 555 358 555 315 555 c 2,26,-1
 285 555 l 1,27,-1
 228 148 l 1,28,29
 252 145 252 145 277 145 c 0,30,31
 326 145 326 145 354.5 168.5 c 128,-1,32
 383 192 383 192 383 242 c 0,33,34
 383 297 383 297 316 297 c 2,35,-1
 292 297 l 1,18,-1
EndSplineSet
Substitution2: "'c2sc' Capitals to Small Capitals lookup 27 subtable" uniA7B4.sc
Substitution2: "'aalt' Access All Alternates lookup 0 subtable" uniA7B4.sc
Position2: "'cpsp' Capital Spacing lookup 0 subtable" dx=5 dy=0 dh=10 dv=0
EndChar

StartChar: uni0181
Encoding: 385 385 41
Width: 785
GlyphClass: 2
Flags: W
AnchorPoint: "Anchor-18" 0 0 basechar 0
AnchorPoint: "Anchor-17" 0 0 basechar 0
AnchorPoint: "Anchor-16" 513 696 basechar 0
AnchorPoint: "Anchor-15" 0 0 basechar 0
AnchorPoint: "Anchor-14" 432 0 basechar 0
LayerCount: 2
Fore
SplineSet
727 323 m 128,-1,1
 764 290 764 290 764 221 c 0,2,3
 764 121 764 121 683.5 60.5 c 128,-1,4
 603 0 603 0 421 0 c 2,5,-1
 181 0 l 1,6,-1
 258 553 l 1,7,-1
 233 553 l 2,8,9
 210 553 210 553 198 540.5 c 128,-1,10
 186 528 186 528 186 504 c 0,11,12
 186 484 186 484 192 454 c 1,13,-1
 61 404 l 1,14,15
 49 431 49 431 42.5 455 c 128,-1,16
 36 479 36 479 36 507 c 0,17,18
 36 595 36 595 93.5 645.5 c 128,-1,19
 151 696 151 696 246 696 c 2,20,-1
 489 696 l 2,21,22
 630 696 630 696 704.5 659 c 128,-1,23
 779 622 779 622 779 535 c 0,24,25
 779 465 779 465 736 425 c 128,-1,26
 693 385 693 385 628 368 c 1,27,0
 690 356 690 356 727 323 c 128,-1,1
551.5 450.5 m 128,-1,29
 570 474 570 474 570 509 c 0,30,31
 570 533 570 533 551.5 544 c 128,-1,32
 533 555 533 555 490 555 c 2,33,-1
 459 555 l 1,34,-1
 441 427 l 1,35,-1
 476 427 l 2,36,28
 533 427 533 427 551.5 450.5 c 128,-1,29
532.5 169.5 m 128,-1,38
 557 194 557 194 557 239 c 0,39,40
 557 297 557 297 472 297 c 2,41,-1
 423 297 l 1,42,-1
 402 145 l 1,43,-1
 441 145 l 2,44,37
 508 145 508 145 532.5 169.5 c 128,-1,38
EndSplineSet
Substitution2: "'ss02' Style Set 2 lookup 35 subtable" uni0181.ss02
Substitution2: "'c2sc' Capitals to Small Capitals lookup 27 subtable" uni0253.sc
AlternateSubs2: "'aalt' Access All Alternates lookup 1 subtable" uni0253.sc uni0181.ss02
Position2: "'cpsp' Capital Spacing lookup 0 subtable" dx=5 dy=0 dh=10 dv=0
EndChar

StartChar: uni0243
Encoding: 579 579 42
Width: 620
GlyphClass: 2
Flags: W
AnchorPoint: "Anchor-18" 0 0 basechar 0
AnchorPoint: "Anchor-17" 0 0 basechar 0
AnchorPoint: "Anchor-16" 348 696 basechar 0
AnchorPoint: "Anchor-15" 0 0 basechar 0
AnchorPoint: "Anchor-14" 267 0 basechar 0
LayerCount: 2
Fore
SplineSet
562 323 m 128,-1,1
 599 290 599 290 599 221 c 0,2,3
 599 121 599 121 518.5 60.5 c 128,-1,4
 438 0 438 0 256 0 c 2,5,-1
 16 0 l 1,6,-1
 41 180 l 1,7,-1
 -8 180 l 1,8,-1
 4 266 l 1,9,-1
 53 266 l 1,10,-1
 113 696 l 1,11,-1
 324 696 l 2,12,13
 465 696 465 696 539.5 659 c 128,-1,14
 614 622 614 622 614 535 c 0,15,16
 614 465 614 465 571 425 c 128,-1,17
 528 385 528 385 463 368 c 1,18,0
 525 356 525 356 562 323 c 128,-1,1
386.5 450.5 m 128,-1,20
 405 474 405 474 405 509 c 0,21,22
 405 533 405 533 386.5 544 c 128,-1,23
 368 555 368 555 325 555 c 2,24,-1
 294 555 l 1,25,-1
 276 427 l 1,26,-1
 311 427 l 2,27,19
 368 427 368 427 386.5 450.5 c 128,-1,20
367.5 169.5 m 128,-1,29
 392 194 392 194 392 239 c 0,30,31
 392 297 392 297 307 297 c 2,32,-1
 258 297 l 1,33,-1
 254 266 l 1,34,-1
 343 266 l 1,35,-1
 331 180 l 1,36,-1
 242 180 l 1,37,-1
 237 145 l 1,38,-1
 276 145 l 2,39,28
 343 145 343 145 367.5 169.5 c 128,-1,29
EndSplineSet
Substitution2: "'c2sc' Capitals to Small Capitals lookup 27 subtable" uni0180.sc
Substitution2: "'aalt' Access All Alternates lookup 0 subtable" uni0180.sc
Position2: "'cpsp' Capital Spacing lookup 0 subtable" dx=5 dy=0 dh=10 dv=0
EndChar

StartChar: C
Encoding: 67 67 44
Width: 571
GlyphClass: 2
Flags: W
AnchorPoint: "Anchor-18" 0 0 basechar 0
AnchorPoint: "Anchor-17" 0 0 basechar 0
AnchorPoint: "Anchor-16" 410 696 basechar 0
AnchorPoint: "Anchor-15" 0 0 basechar 0
AnchorPoint: "Anchor-14" 294 0 basechar 0
LayerCount: 2
Fore
SplineSet
613 626 m 1,1,-1
 506 523 l 1,2,3
 481 545 481 545 455 556.5 c 128,-1,4
 429 568 429 568 397 568 c 0,5,6
 338 568 338 568 301.5 519.5 c 128,-1,7
 265 471 265 471 249.5 403 c 128,-1,8
 234 335 234 335 234 274 c 0,9,10
 234 135 234 135 337 135 c 0,11,12
 370 135 370 135 400.5 150 c 128,-1,13
 431 165 431 165 469 193 c 1,14,-1
 545 76 l 1,15,16
 497 33 497 33 435.5 6.5 c 128,-1,17
 374 -20 374 -20 301 -20 c 0,18,19
 218 -20 218 -20 156 13.5 c 128,-1,20
 94 47 94 47 59.5 112 c 128,-1,21
 25 177 25 177 25 270 c 0,22,23
 25 377 25 377 63 479 c 128,-1,24
 101 581 101 581 184 648.5 c 128,-1,25
 267 716 267 716 395 716 c 0,26,0
 537 716 537 716 613 626 c 1,1,-1
EndSplineSet
Substitution2: "'c2sc' Capitals to Small Capitals lookup 27 subtable" c.sc
Substitution2: "'aalt' Access All Alternates lookup 0 subtable" c.sc
Position2: "'cpsp' Capital Spacing lookup 0 subtable" dx=5 dy=0 dh=10 dv=0
EndChar

StartChar: Ccedilla
Encoding: 199 199 47
Width: 571
GlyphClass: 2
Flags: W
AnchorPoint: "Anchor-18" 0 0 basechar 0
AnchorPoint: "Anchor-17" 0 0 basechar 0
AnchorPoint: "Anchor-16" 410 696 basechar 0
AnchorPoint: "Anchor-15" 0 0 basechar 0
AnchorPoint: "Anchor-14" 290 -275 basechar 0
LayerCount: 2
Fore
SplineSet
348 -17 m 1,1,-1
 344 -43 l 1,2,3
 391 -49 391 -49 415.5 -73.5 c 128,-1,4
 440 -98 440 -98 440 -139 c 0,5,6
 440 -170 440 -170 423 -201 c 128,-1,7
 406 -232 406 -232 366 -253.5 c 128,-1,8
 326 -275 326 -275 262 -275 c 0,9,10
 194 -275 194 -275 143 -240 c 1,11,-1
 196 -156 l 1,12,13
 225 -173 225 -173 256 -173 c 0,14,15
 305 -173 305 -173 305 -145 c 0,16,17
 305 -131 305 -131 284.5 -125.5 c 128,-1,18
 264 -120 264 -120 217 -120 c 1,19,-1
 243 -15 l 1,20,21
 142 1 142 1 83.5 74.5 c 128,-1,22
 25 148 25 148 25 270 c 0,23,24
 25 377 25 377 63 479 c 128,-1,25
 101 581 101 581 184 648.5 c 128,-1,26
 267 716 267 716 395 716 c 0,27,28
 537 716 537 716 613 626 c 1,29,-1
 506 523 l 1,30,31
 481 545 481 545 455 556.5 c 128,-1,32
 429 568 429 568 397 568 c 0,33,34
 338 568 338 568 301.5 519.5 c 128,-1,35
 265 471 265 471 249.5 403 c 128,-1,36
 234 335 234 335 234 274 c 0,37,38
 234 135 234 135 337 135 c 0,39,40
 370 135 370 135 400.5 150 c 128,-1,41
 431 165 431 165 469 193 c 1,42,-1
 545 76 l 1,43,0
 457 -3 457 -3 348 -17 c 1,1,-1
EndSplineSet
Substitution2: "'c2sc' Capitals to Small Capitals lookup 27 subtable" ccedilla.sc
Substitution2: "'aalt' Access All Alternates lookup 0 subtable" ccedilla.sc
Position2: "'cpsp' Capital Spacing lookup 0 subtable" dx=5 dy=0 dh=10 dv=0
EndChar

StartChar: uniA7B3
Encoding: 42931 42931 50
Width: 584
GlyphClass: 2
Flags: W
AnchorPoint: "Anchor-18" 0 0 basechar 0
AnchorPoint: "Anchor-17" 0 0 basechar 0
AnchorPoint: "Anchor-16" 351 696 basechar 0
AnchorPoint: "Anchor-15" 0 0 basechar 0
AnchorPoint: "Anchor-14" 0 0 basechar 0
LayerCount: 2
Fore
SplineSet
640 696 m 1,0,-1
 408 281 l 1,1,-1
 531 -180 l 1,2,-1
 317 -180 l 1,3,-1
 270 145 l 1,4,-1
 145 -180 l 1,5,-1
 -73 -180 l 1,6,-1
 168 279 l 1,7,-1
 63 696 l 1,8,-1
 277 696 l 1,9,-1
 307 406 l 1,10,-1
 425 696 l 1,11,-1
 640 696 l 1,0,-1
EndSplineSet
Substitution2: "'c2sc' Capitals to Small Capitals lookup 27 subtable" uniA7B3.sc
Substitution2: "'aalt' Access All Alternates lookup 0 subtable" uniA7B3.sc
Position2: "'cpsp' Capital Spacing lookup 0 subtable" dx=5 dy=0 dh=10 dv=0
EndChar

StartChar: uni0187
Encoding: 391 391 51
Width: 583
GlyphClass: 2
Flags: W
AnchorPoint: "Anchor-18" 0 0 basechar 0
AnchorPoint: "Anchor-17" 0 0 basechar 0
AnchorPoint: "Anchor-16" 342 744 basechar 0
AnchorPoint: "Anchor-15" 0 0 basechar 0
AnchorPoint: "Anchor-14" 254 0 basechar 0
LayerCount: 2
Fore
SplineSet
795 825 m 1,1,-1
 729 705 l 1,2,3
 698 721 698 721 670 721 c 0,4,5
 624 721 624 721 617 666 c 2,6,-1
 612 626 l 1,7,-1
 524 532 l 1,8,9
 493 550 493 550 463 559 c 128,-1,10
 433 568 433 568 399 568 c 0,11,12
 339 568 339 568 302 519.5 c 128,-1,13
 265 471 265 471 249 403 c 128,-1,14
 233 335 233 335 233 274 c 0,15,16
 233 135 233 135 336 135 c 0,17,18
 369 135 369 135 399.5 150 c 128,-1,19
 430 165 430 165 470 194 c 1,20,-1
 544 76 l 1,21,22
 497 34 497 34 435.5 7 c 128,-1,23
 374 -20 374 -20 307 -20 c 0,24,25
 173 -20 173 -20 98.5 55 c 128,-1,26
 24 130 24 130 24 270 c 0,27,28
 24 373 24 373 65 476.5 c 128,-1,29
 106 580 106 580 185 648 c 128,-1,30
 264 716 264 716 373 716 c 0,31,32
 419 716 419 716 457 701 c 1,33,34
 471 778 471 778 520.5 820.5 c 128,-1,35
 570 863 570 863 656 863 c 0,36,0
 736 863 736 863 795 825 c 1,1,-1
EndSplineSet
Substitution2: "'c2sc' Capitals to Small Capitals lookup 27 subtable" uni0188.sc
Substitution2: "'aalt' Access All Alternates lookup 0 subtable" uni0188.sc
Position2: "'cpsp' Capital Spacing lookup 0 subtable" dx=5 dy=0 dh=10 dv=0
EndChar

StartChar: uni023B
Encoding: 571 571 52
Width: 571
GlyphClass: 2
Flags: W
AnchorPoint: "Anchor-18" 0 0 basechar 0
AnchorPoint: "Anchor-17" 0 0 basechar 0
AnchorPoint: "Anchor-16" 346 696 basechar 0
AnchorPoint: "Anchor-15" 0 0 basechar 0
AnchorPoint: "Anchor-14" 248 0 basechar 0
LayerCount: 2
Fore
SplineSet
400.5 150 m 128,-1,1
 431 165 431 165 469 193 c 1,2,-1
 545 76 l 1,3,4
 497 33 497 33 435.5 6.5 c 128,-1,5
 374 -20 374 -20 301 -20 c 0,6,7
 272 -20 272 -20 240 -15 c 1,8,-1
 215 -77 l 1,9,-1
 150 -62 l 1,10,-1
 177 4 l 1,11,12
 105 35 105 35 65 102.5 c 128,-1,13
 25 170 25 170 25 270 c 0,14,15
 25 377 25 377 63 479 c 128,-1,16
 101 581 101 581 184 648.5 c 128,-1,17
 267 716 267 716 395 716 c 0,18,19
 431 716 431 716 463 710 c 1,20,-1
 483 759 l 1,21,-1
 547 744 l 1,22,-1
 526 691 l 1,23,24
 576 669 576 669 613 626 c 1,25,-1
 506 523 l 1,26,27
 487 540 487 540 469 550 c 1,28,-1
 303 140 l 1,29,30
 320 135 320 135 337 135 c 0,31,0
 370 135 370 135 400.5 150 c 128,-1,1
250 186 m 1,33,-1
 405 568 l 1,34,-1
 397 568 l 2,35,36
 338 568 338 568 301.5 519.5 c 128,-1,37
 265 471 265 471 249.5 403 c 128,-1,38
 234 335 234 335 234 274 c 0,39,32
 234 221 234 221 250 186 c 1,33,-1
EndSplineSet
Substitution2: "'c2sc' Capitals to Small Capitals lookup 27 subtable" uni023C.sc
Substitution2: "'aalt' Access All Alternates lookup 0 subtable" uni023C.sc
Position2: "'cpsp' Capital Spacing lookup 0 subtable" dx=5 dy=0 dh=10 dv=0
EndChar

StartChar: D
Encoding: 68 68 53
Width: 644
GlyphClass: 2
Flags: W
AnchorPoint: "Anchor-18" 334 348 basechar 0
AnchorPoint: "Anchor-17" 0 0 basechar 0
AnchorPoint: "Anchor-16" 346 696 basechar 0
AnchorPoint: "Anchor-15" 0 0 basechar 0
AnchorPoint: "Anchor-14" 252 0 basechar 0
LayerCount: 2
Fore
SplineSet
554 637.5 m 128,-1,1
 642 579 642 579 642 432 c 0,2,3
 642 239 642 239 548 119.5 c 128,-1,4
 454 0 454 0 237 0 c 2,5,-1
 6 0 l 1,6,-1
 103 696 l 1,7,-1
 320 696 l 2,8,0
 466 696 466 696 554 637.5 c 128,-1,1
285 551 m 1,9,-1
 228 145 l 1,10,-1
 267 145 l 2,11,12
 361 145 361 145 397.5 230.5 c 128,-1,13
 434 316 434 316 434 430 c 0,14,15
 434 498 434 498 408 524.5 c 128,-1,16
 382 551 382 551 327 551 c 2,17,-1
 285 551 l 1,9,-1
EndSplineSet
Substitution2: "'c2sc' Capitals to Small Capitals lookup 27 subtable" d.sc
Substitution2: "'aalt' Access All Alternates lookup 0 subtable" d.sc
Position2: "'cpsp' Capital Spacing lookup 0 subtable" dx=5 dy=0 dh=10 dv=0
EndChar

StartChar: Eth
Encoding: 208 208 57
Width: 653
GlyphClass: 2
Flags: W
AnchorPoint: "Anchor-18" 343 348 basechar 0
AnchorPoint: "Anchor-17" 0 0 basechar 0
AnchorPoint: "Anchor-16" 355 696 basechar 0
AnchorPoint: "Anchor-15" 0 0 basechar 0
AnchorPoint: "Anchor-14" 261 0 basechar 0
LayerCount: 2
Fore
SplineSet
563 637.5 m 128,-1,1
 651 579 651 579 651 432 c 0,2,3
 651 239 651 239 557 119.5 c 128,-1,4
 463 0 463 0 246 0 c 2,5,-1
 15 0 l 1,6,-1
 56 295 l 1,7,-1
 8 295 l 1,8,-1
 24 411 l 1,9,-1
 72 411 l 1,10,-1
 112 696 l 1,11,-1
 329 696 l 2,12,0
 475 696 475 696 563 637.5 c 128,-1,1
406.5 230.5 m 128,-1,14
 443 316 443 316 443 430 c 0,15,16
 443 498 443 498 417 524.5 c 128,-1,17
 391 551 391 551 336 551 c 2,18,-1
 294 551 l 1,19,-1
 274 411 l 1,20,-1
 392 411 l 1,21,-1
 376 295 l 1,22,-1
 258 295 l 1,23,-1
 237 145 l 1,24,-1
 276 145 l 2,25,13
 370 145 370 145 406.5 230.5 c 128,-1,14
EndSplineSet
Substitution2: "'c2sc' Capitals to Small Capitals lookup 27 subtable" eth.sc
Substitution2: "'aalt' Access All Alternates lookup 0 subtable" eth.sc
Position2: "'cpsp' Capital Spacing lookup 0 subtable" dx=5 dy=0 dh=10 dv=0
EndChar

StartChar: uni018A
Encoding: 394 394 63
Width: 819
GlyphClass: 2
Flags: W
AnchorPoint: "Anchor-18" 509 348 basechar 0
AnchorPoint: "Anchor-17" 0 0 basechar 0
AnchorPoint: "Anchor-16" 521 696 basechar 0
AnchorPoint: "Anchor-15" 0 0 basechar 0
AnchorPoint: "Anchor-14" 427 0 basechar 0
LayerCount: 2
Fore
SplineSet
729 637.5 m 128,-1,1
 817 579 817 579 817 432 c 0,2,3
 817 239 817 239 723 119.5 c 128,-1,4
 629 0 629 0 412 0 c 2,5,-1
 181 0 l 1,6,-1
 258 553 l 1,7,-1
 233 553 l 2,8,9
 210 553 210 553 198 540.5 c 128,-1,10
 186 528 186 528 186 504 c 0,11,12
 186 484 186 484 192 454 c 1,13,-1
 61 404 l 1,14,15
 49 431 49 431 42.5 455 c 128,-1,16
 36 479 36 479 36 507 c 0,17,18
 36 595 36 595 93.5 645.5 c 128,-1,19
 151 696 151 696 246 696 c 2,20,-1
 495 696 l 2,21,0
 641 696 641 696 729 637.5 c 128,-1,1
572.5 230.5 m 128,-1,23
 609 316 609 316 609 430 c 0,24,25
 609 498 609 498 583 524.5 c 128,-1,26
 557 551 557 551 502 551 c 2,27,-1
 460 551 l 1,28,-1
 403 145 l 1,29,-1
 442 145 l 2,30,22
 536 145 536 145 572.5 230.5 c 128,-1,23
EndSplineSet
Substitution2: "'c2sc' Capitals to Small Capitals lookup 27 subtable" uni0257.sc
Substitution2: "'aalt' Access All Alternates lookup 0 subtable" uni0257.sc
Position2: "'cpsp' Capital Spacing lookup 0 subtable" dx=5 dy=0 dh=10 dv=0
EndChar

StartChar: uni018B
Encoding: 395 395 65
Width: 598
GlyphClass: 2
Flags: W
AnchorPoint: "Anchor-18" 0 0 basechar 0
AnchorPoint: "Anchor-17" 0 0 basechar 0
AnchorPoint: "Anchor-16" 358 696 basechar 0
AnchorPoint: "Anchor-15" 0 0 basechar 0
AnchorPoint: "Anchor-14" 260 0 basechar 0
LayerCount: 2
Fore
SplineSet
517 0 m 1,0,-1
 242 0 l 2,1,2
 132 0 132 0 67.5 53 c 128,-1,3
 3 106 3 106 3 207 c 0,4,5
 3 328 3 328 88 392 c 128,-1,6
 173 456 173 456 315 456 c 2,7,-1
 378 456 l 1,8,-1
 391 543 l 1,9,-1
 142 543 l 1,10,-1
 164 696 l 1,11,-1
 614 696 l 1,12,-1
 517 0 l 1,0,-1
335 145 m 1,13,-1
 359 318 l 1,14,-1
 319 318 l 2,15,16
 268 318 268 318 241.5 289 c 128,-1,17
 215 260 215 260 215 216 c 0,18,19
 215 179 215 179 233.5 162 c 128,-1,20
 252 145 252 145 290 145 c 2,21,-1
 335 145 l 1,13,-1
EndSplineSet
Substitution2: "'c2sc' Capitals to Small Capitals lookup 27 subtable" uni018C.sc
Substitution2: "'aalt' Access All Alternates lookup 0 subtable" uni018C.sc
Position2: "'cpsp' Capital Spacing lookup 0 subtable" dx=5 dy=0 dh=10 dv=0
EndChar

StartChar: E
Encoding: 69 69 68
Width: 510
GlyphClass: 2
Flags: W
AnchorPoint: "Anchor-18" 0 0 basechar 0
AnchorPoint: "Anchor-17" 0 0 basechar 0
AnchorPoint: "Anchor-16" 328 696 basechar 0
AnchorPoint: "Anchor-15" 420 0 basechar 0
AnchorPoint: "Anchor-14" 228 0 basechar 0
LayerCount: 2
Fore
SplineSet
552 696 m 1,0,-1
 511 553 l 1,1,-1
 285 553 l 1,2,-1
 267 423 l 1,3,-1
 464 423 l 1,4,-1
 446 284 l 1,5,-1
 248 284 l 1,6,-1
 228 144 l 1,7,-1
 470 144 l 1,8,-1
 450 0 l 1,9,-1
 6 0 l 1,10,-1
 103 696 l 1,11,-1
 552 696 l 1,0,-1
EndSplineSet
Substitution2: "'c2sc' Capitals to Small Capitals lookup 27 subtable" e.sc
Substitution2: "'aalt' Access All Alternates lookup 0 subtable" e.sc
Position2: "'cpsp' Capital Spacing lookup 0 subtable" dx=5 dy=0 dh=10 dv=0
EndChar

StartChar: uni0228
Encoding: 552 552 72
Width: 510
GlyphClass: 2
Flags: W
AnchorPoint: "Anchor-18" 0 0 basechar 0
AnchorPoint: "Anchor-17" 0 0 basechar 0
AnchorPoint: "Anchor-16" 328 696 basechar 0
AnchorPoint: "Anchor-15" 420 0 basechar 0
AnchorPoint: "Anchor-14" 228 0 basechar 0
LayerCount: 2
Fore
SplineSet
285 553 m 1,0,-1
 267 423 l 1,1,-1
 464 423 l 1,2,-1
 446 284 l 1,3,-1
 248 284 l 1,4,-1
 228 144 l 1,5,-1
 470 144 l 1,6,-1
 450 0 l 1,7,-1
 282 0 l 1,8,-1
 275 -43 l 1,9,10
 322 -49 322 -49 346.5 -73.5 c 128,-1,11
 371 -98 371 -98 371 -139 c 0,12,13
 371 -170 371 -170 354 -201 c 128,-1,14
 337 -232 337 -232 297 -253.5 c 128,-1,15
 257 -275 257 -275 193 -275 c 0,16,17
 125 -275 125 -275 74 -240 c 1,18,-1
 127 -156 l 1,19,20
 156 -173 156 -173 191 -173 c 0,21,22
 236 -173 236 -173 236 -146 c 0,23,24
 236 -131 236 -131 216 -125.5 c 128,-1,25
 196 -120 196 -120 148 -120 c 1,26,-1
 178 0 l 1,27,-1
 6 0 l 1,28,-1
 103 696 l 1,29,-1
 552 696 l 1,30,-1
 511 553 l 1,31,-1
 285 553 l 1,0,-1
EndSplineSet
Substitution2: "'c2sc' Capitals to Small Capitals lookup 27 subtable" uni0229.sc
Substitution2: "'aalt' Access All Alternates lookup 0 subtable" uni0229.sc
Position2: "'cpsp' Capital Spacing lookup 0 subtable" dx=5 dy=0 dh=10 dv=0
EndChar

StartChar: uni1EBE
Encoding: 7870 7870 74
Width: 510
GlyphClass: 2
Flags: W
AnchorPoint: "Anchor-18" 0 0 basechar 0
AnchorPoint: "Anchor-17" 430 828 basechar 0
AnchorPoint: "Anchor-16" 357 942 basechar 0
AnchorPoint: "Anchor-15" 420 0 basechar 0
AnchorPoint: "Anchor-14" 0 0 basechar 0
LayerCount: 2
Fore
SplineSet
612 1138 m 1,0,-1
 703 1036 l 1,1,-1
 514 887 l 1,2,-1
 449 952 l 1,3,-1
 612 1138 l 1,0,-1
197 724 m 1,4,-1
 138 801 l 1,5,-1
 300 942 l 1,6,-1
 416 942 l 1,7,-1
 538 801 l 1,8,-1
 465 724 l 1,9,-1
 343 811 l 1,10,-1
 197 724 l 1,4,-1
552 696 m 1,11,-1
 511 553 l 1,12,-1
 285 553 l 1,13,-1
 267 423 l 1,14,-1
 464 423 l 1,15,-1
 446 284 l 1,16,-1
 248 284 l 1,17,-1
 228 144 l 1,18,-1
 470 144 l 1,19,-1
 450 0 l 1,20,-1
 6 0 l 1,21,-1
 103 696 l 1,22,-1
 552 696 l 1,11,-1
EndSplineSet
Substitution2: "'c2sc' Capitals to Small Capitals lookup 27 subtable" uni1EBF.sc
Substitution2: "'aalt' Access All Alternates lookup 0 subtable" uni1EBF.sc
Position2: "'cpsp' Capital Spacing lookup 0 subtable" dx=5 dy=0 dh=10 dv=0
EndChar

StartChar: uni1EC0
Encoding: 7872 7872 76
Width: 510
GlyphClass: 2
Flags: W
AnchorPoint: "Anchor-18" 0 0 basechar 0
AnchorPoint: "Anchor-17" 428 828 basechar 0
AnchorPoint: "Anchor-16" 355 942 basechar 0
AnchorPoint: "Anchor-15" 420 0 basechar 0
AnchorPoint: "Anchor-14" 0 0 basechar 0
LayerCount: 2
Fore
SplineSet
144 1135 m 1,0,-1
 256 947 l 1,1,-1
 178 887 l 1,2,-1
 30 1043 l 1,3,-1
 144 1135 l 1,0,-1
195 724 m 1,4,-1
 136 801 l 1,5,-1
 298 942 l 1,6,-1
 414 942 l 1,7,-1
 536 801 l 1,8,-1
 463 724 l 1,9,-1
 341 811 l 1,10,-1
 195 724 l 1,4,-1
552 696 m 1,11,-1
 511 553 l 1,12,-1
 285 553 l 1,13,-1
 267 423 l 1,14,-1
 464 423 l 1,15,-1
 446 284 l 1,16,-1
 248 284 l 1,17,-1
 228 144 l 1,18,-1
 470 144 l 1,19,-1
 450 0 l 1,20,-1
 6 0 l 1,21,-1
 103 696 l 1,22,-1
 552 696 l 1,11,-1
EndSplineSet
Substitution2: "'c2sc' Capitals to Small Capitals lookup 27 subtable" uni1EC1.sc
Substitution2: "'aalt' Access All Alternates lookup 0 subtable" uni1EC1.sc
Position2: "'cpsp' Capital Spacing lookup 0 subtable" dx=5 dy=0 dh=10 dv=0
EndChar

StartChar: uni1EC2
Encoding: 7874 7874 77
Width: 510
GlyphClass: 2
Flags: W
AnchorPoint: "Anchor-18" 0 0 basechar 0
AnchorPoint: "Anchor-17" 426 828 basechar 0
AnchorPoint: "Anchor-16" 557 1124 basechar 0
AnchorPoint: "Anchor-15" 420 0 basechar 0
AnchorPoint: "Anchor-14" 0 0 basechar 0
LayerCount: 2
Fore
SplineSet
644.5 1095.5 m 128,-1,1
 677 1067 677 1067 677 1022 c 0,2,3
 677 979 677 979 650.5 953 c 128,-1,4
 624 927 624 927 577 918 c 1,5,-1
 573 879 l 1,6,-1
 467 879 l 1,7,-1
 534 801 l 1,8,-1
 461 724 l 1,9,-1
 339 811 l 1,10,-1
 193 724 l 1,11,-1
 134 801 l 1,12,-1
 296 942 l 1,13,-1
 412 942 l 1,14,-1
 466 880 l 1,15,-1
 476 972 l 1,16,17
 515 973 515 973 533.5 982.5 c 128,-1,18
 552 992 552 992 552 1011 c 0,19,20
 552 1035 552 1035 518 1035 c 0,21,22
 492 1035 492 1035 458 1022 c 1,23,-1
 438 1097 l 1,24,25
 489 1124 489 1124 550 1124 c 0,26,0
 612 1124 612 1124 644.5 1095.5 c 128,-1,1
6 0 m 1,27,-1
 103 696 l 1,28,-1
 552 696 l 1,29,-1
 511 553 l 1,30,-1
 285 553 l 1,31,-1
 267 423 l 1,32,-1
 464 423 l 1,33,-1
 446 284 l 1,34,-1
 248 284 l 1,35,-1
 228 144 l 1,36,-1
 470 144 l 1,37,-1
 450 0 l 1,38,-1
 6 0 l 1,27,-1
EndSplineSet
Substitution2: "'c2sc' Capitals to Small Capitals lookup 27 subtable" uni1EC3.sc
Substitution2: "'aalt' Access All Alternates lookup 0 subtable" uni1EC3.sc
Position2: "'cpsp' Capital Spacing lookup 0 subtable" dx=5 dy=0 dh=10 dv=0
EndChar

StartChar: uni1EC4
Encoding: 7876 7876 78
Width: 510
GlyphClass: 2
Flags: W
AnchorPoint: "Anchor-18" 0 0 basechar 0
AnchorPoint: "Anchor-17" 424 828 basechar 0
AnchorPoint: "Anchor-16" 370 1132 basechar 0
AnchorPoint: "Anchor-15" 420 0 basechar 0
AnchorPoint: "Anchor-14" 0 0 basechar 0
LayerCount: 2
Fore
SplineSet
385 973 m 128,-1,1
 372 978 372 978 350 990 c 0,2,3
 325 1006 325 1006 310 1006 c 0,4,5
 293 1006 293 1006 280.5 996.5 c 128,-1,6
 268 987 268 987 252 967 c 1,7,-1
 168 1009 l 1,8,9
 197 1063 197 1063 236 1097 c 128,-1,10
 275 1131 275 1131 320 1131 c 0,11,12
 342 1131 342 1131 358 1124.5 c 128,-1,13
 374 1118 374 1118 391 1107 c 0,14,15
 400 1101 400 1101 409 1096.5 c 128,-1,16
 418 1092 418 1092 426 1092 c 0,17,18
 443 1092 443 1092 455 1101 c 128,-1,19
 467 1110 467 1110 484 1132 c 1,20,-1
 567 1089 l 1,21,22
 540 1036 540 1036 499.5 1002 c 128,-1,23
 459 968 459 968 415 968 c 0,24,0
 398 968 398 968 385 973 c 128,-1,1
191 724 m 1,25,-1
 132 801 l 1,26,-1
 294 942 l 1,27,-1
 410 942 l 1,28,-1
 532 801 l 1,29,-1
 459 724 l 1,30,-1
 337 811 l 1,31,-1
 191 724 l 1,25,-1
552 696 m 1,32,-1
 511 553 l 1,33,-1
 285 553 l 1,34,-1
 267 423 l 1,35,-1
 464 423 l 1,36,-1
 446 284 l 1,37,-1
 248 284 l 1,38,-1
 228 144 l 1,39,-1
 470 144 l 1,40,-1
 450 0 l 1,41,-1
 6 0 l 1,42,-1
 103 696 l 1,43,-1
 552 696 l 1,32,-1
EndSplineSet
Substitution2: "'c2sc' Capitals to Small Capitals lookup 27 subtable" uni1EC5.sc
Substitution2: "'aalt' Access All Alternates lookup 0 subtable" uni1EC5.sc
Position2: "'cpsp' Capital Spacing lookup 0 subtable" dx=5 dy=0 dh=10 dv=0
EndChar

StartChar: Eogonek
Encoding: 280 280 87
Width: 510
GlyphClass: 2
Flags: W
AnchorPoint: "Anchor-18" 0 0 basechar 0
AnchorPoint: "Anchor-17" 0 0 basechar 0
AnchorPoint: "Anchor-16" 328 696 basechar 0
AnchorPoint: "Anchor-15" 420 0 basechar 0
AnchorPoint: "Anchor-14" 228 0 basechar 0
LayerCount: 2
Fore
SplineSet
285 553 m 1,0,-1
 267 423 l 1,1,-1
 464 423 l 1,2,-1
 446 284 l 1,3,-1
 248 284 l 1,4,-1
 228 144 l 1,5,-1
 470 144 l 1,6,-1
 450 0 l 1,7,-1
 412 0 l 1,8,9
 338 -24 338 -24 310.5 -52.5 c 128,-1,10
 283 -81 283 -81 283 -106 c 0,11,12
 283 -139 283 -139 326 -139 c 0,13,14
 353 -139 353 -139 388 -131 c 1,15,-1
 362 -246 l 1,16,17
 327 -254 327 -254 289 -254 c 0,18,19
 226 -254 226 -254 186 -224.5 c 128,-1,20
 146 -195 146 -195 146 -143 c 0,21,22
 146 -57 146 -57 236 0 c 1,23,-1
 6 0 l 1,24,-1
 103 696 l 1,25,-1
 552 696 l 1,26,-1
 511 553 l 1,27,-1
 285 553 l 1,0,-1
EndSplineSet
Substitution2: "'c2sc' Capitals to Small Capitals lookup 27 subtable" eogonek.sc
Substitution2: "'aalt' Access All Alternates lookup 0 subtable" eogonek.sc
Position2: "'cpsp' Capital Spacing lookup 0 subtable" dx=5 dy=0 dh=10 dv=0
EndChar

StartChar: uni0190
Encoding: 400 400 88
Width: 541
GlyphClass: 2
Flags: W
AnchorPoint: "Anchor-18" 0 0 basechar 0
AnchorPoint: "Anchor-17" 0 0 basechar 0
AnchorPoint: "Anchor-16" 351 696 basechar 0
AnchorPoint: "Anchor-15" 0 0 basechar 0
AnchorPoint: "Anchor-14" 253 0 basechar 0
LayerCount: 2
Fore
SplineSet
478 692 m 128,-1,1
 533 668 533 668 577 619 c 1,2,-1
 471 521 l 1,3,4
 423 572 423 572 360 572 c 0,5,6
 318 572 318 572 294.5 551.5 c 128,-1,7
 271 531 271 531 271 495 c 0,8,9
 271 436 271 436 347 436 c 2,10,-1
 428 436 l 1,11,-1
 385 295 l 1,12,-1
 333 295 l 2,13,14
 274 295 274 295 241.5 270 c 128,-1,15
 209 245 209 245 209 200 c 0,16,17
 209 161 209 161 230 143.5 c 128,-1,18
 251 126 251 126 294 126 c 0,19,20
 331 126 331 126 363 140 c 128,-1,21
 395 154 395 154 433 185 c 1,22,-1
 525 79 l 1,23,24
 420 -20 420 -20 259 -20 c 0,25,26
 182 -20 182 -20 123.5 3.5 c 128,-1,27
 65 27 65 27 33 71 c 128,-1,28
 1 115 1 115 1 174 c 0,29,30
 1 263 1 263 55 309.5 c 128,-1,31
 109 356 109 356 210 367 c 1,32,33
 137 383 137 383 102.5 420.5 c 128,-1,34
 68 458 68 458 68 512 c 0,35,36
 68 573 68 573 106.5 619.5 c 128,-1,37
 145 666 145 666 208 691 c 128,-1,38
 271 716 271 716 343 716 c 0,39,0
 423 716 423 716 478 692 c 128,-1,1
EndSplineSet
Substitution2: "'c2sc' Capitals to Small Capitals lookup 27 subtable" uni025B.sc
Substitution2: "'aalt' Access All Alternates lookup 0 subtable" uni025B.sc
Position2: "'cpsp' Capital Spacing lookup 0 subtable" dx=5 dy=0 dh=10 dv=0
EndChar

StartChar: uni018E
Encoding: 398 398 89
Width: 506
GlyphClass: 2
Flags: W
LayerCount: 2
Fore
SplineSet
83 696 m 1,0,-1
 522 696 l 1,1,-1
 425 0 l 1,2,-1
 -19 0 l 1,3,-1
 1 144 l 1,4,-1
 243 144 l 1,5,-1
 263 284 l 1,6,-1
 65 284 l 1,7,-1
 83 423 l 1,8,-1
 281 423 l 1,9,-1
 300 553 l 1,10,-1
 63 553 l 1,11,-1
 83 696 l 1,0,-1
EndSplineSet
Substitution2: "'c2sc' Capitals to Small Capitals lookup 27 subtable" uni0258.sc
Substitution2: "'aalt' Access All Alternates lookup 0 subtable" uni0258.sc
Position2: "'cpsp' Capital Spacing lookup 0 subtable" dx=5 dy=0 dh=10 dv=0
EndChar

StartChar: uni0246
Encoding: 582 582 91
Width: 510
GlyphClass: 2
Flags: W
AnchorPoint: "Anchor-18" 0 0 basechar 0
AnchorPoint: "Anchor-17" 0 0 basechar 0
AnchorPoint: "Anchor-16" 315 696 basechar 0
AnchorPoint: "Anchor-15" 420 0 basechar 0
AnchorPoint: "Anchor-14" 217 0 basechar 0
LayerCount: 2
Fore
SplineSet
511 553 m 1,0,-1
 464 553 l 1,1,-1
 411 423 l 1,2,-1
 464 423 l 1,3,-1
 446 284 l 1,4,-1
 355 284 l 1,5,-1
 298 144 l 1,6,-1
 470 144 l 1,7,-1
 450 0 l 1,8,-1
 240 0 l 1,9,-1
 209 -77 l 1,10,-1
 144 -62 l 1,11,-1
 169 0 l 1,12,-1
 6 0 l 1,13,-1
 103 696 l 1,14,-1
 451 696 l 1,15,-1
 477 759 l 1,16,-1
 541 744 l 1,17,-1
 522 696 l 1,18,-1
 552 696 l 1,19,-1
 511 553 l 1,0,-1
341 423 m 1,20,-1
 393 553 l 1,21,-1
 285 553 l 1,22,-1
 267 423 l 1,23,-1
 341 423 l 1,20,-1
228 146 m 1,24,-1
 284 284 l 1,25,-1
 248 284 l 1,26,-1
 228 146 l 1,24,-1
EndSplineSet
Substitution2: "'c2sc' Capitals to Small Capitals lookup 27 subtable" uni0247.sc
Substitution2: "'aalt' Access All Alternates lookup 0 subtable" uni0247.sc
Position2: "'cpsp' Capital Spacing lookup 0 subtable" dx=5 dy=0 dh=10 dv=0
EndChar

StartChar: uni01B7
Encoding: 439 439 93
Width: 559
GlyphClass: 2
Flags: W
AnchorPoint: "Anchor-18" 0 0 basechar 0
AnchorPoint: "Anchor-17" 0 0 basechar 0
AnchorPoint: "Anchor-16" 335 696 basechar 0
AnchorPoint: "Anchor-15" 0 0 basechar 0
AnchorPoint: "Anchor-14" 240 0 basechar 0
LayerCount: 2
Fore
SplineSet
543 557 m 1,0,-1
 370 406 l 1,1,2
 448 401 448 401 493 357.5 c 128,-1,3
 538 314 538 314 538 239 c 0,4,5
 538 159 538 159 496 100.5 c 128,-1,6
 454 42 454 42 382 11 c 128,-1,7
 310 -20 310 -20 222 -20 c 256,8,9
 134 -20 134 -20 76.5 9 c 128,-1,10
 19 38 19 38 -20 91 c 1,11,-1
 92 188 l 1,12,13
 124 156 124 156 152.5 142 c 128,-1,14
 181 128 181 128 220 128 c 0,15,16
 267 128 267 128 299 156 c 128,-1,17
 331 184 331 184 331 230 c 0,18,19
 331 296 331 296 238 296 c 2,20,-1
 133 296 l 1,21,-1
 148 403 l 1,22,-1
 315 552 l 1,23,-1
 88 552 l 1,24,-1
 108 696 l 1,25,-1
 562 696 l 1,26,-1
 543 557 l 1,0,-1
EndSplineSet
Substitution2: "'c2sc' Capitals to Small Capitals lookup 27 subtable" uni0292.sc
Substitution2: "'aalt' Access All Alternates lookup 0 subtable" uni0292.sc
Position2: "'cpsp' Capital Spacing lookup 0 subtable" dx=5 dy=0 dh=10 dv=0
EndChar

StartChar: uni01B8
Encoding: 440 440 95
Width: 561
GlyphClass: 2
Flags: W
AnchorPoint: "Anchor-18" 0 0 basechar 0
AnchorPoint: "Anchor-17" 0 0 basechar 0
AnchorPoint: "Anchor-16" 342 696 basechar 0
AnchorPoint: "Anchor-15" 0 0 basechar 0
AnchorPoint: "Anchor-14" 244 0 basechar 0
LayerCount: 2
Fore
SplineSet
550 552 m 1,0,-1
 314 552 l 1,1,-1
 449 400 l 1,2,-1
 434 296 l 1,3,-1
 331 296 l 2,4,5
 278 296 278 296 246.5 269 c 128,-1,6
 215 242 215 242 215 194 c 0,7,8
 215 163 215 163 235 145.5 c 128,-1,9
 255 128 255 128 289 128 c 0,10,11
 331 128 331 128 366.5 142.5 c 128,-1,12
 402 157 402 157 442 190 c 1,13,-1
 531 89 l 1,14,15
 478 36 478 36 413 8 c 128,-1,16
 348 -20 348 -20 261 -20 c 0,17,18
 139 -20 139 -20 72 36 c 128,-1,19
 5 92 5 92 5 186 c 0,20,21
 5 248 5 248 35.5 297 c 128,-1,22
 66 346 66 346 119 374 c 128,-1,23
 172 402 172 402 236 406 c 1,24,-1
 98 557 l 1,25,-1
 117 696 l 1,26,-1
 570 696 l 1,27,-1
 550 552 l 1,0,-1
EndSplineSet
Substitution2: "'c2sc' Capitals to Small Capitals lookup 27 subtable" uni01B9.sc
Substitution2: "'aalt' Access All Alternates lookup 0 subtable" uni01B9.sc
Position2: "'cpsp' Capital Spacing lookup 0 subtable" dx=5 dy=0 dh=10 dv=0
EndChar

StartChar: F
Encoding: 70 70 96
Width: 475
GlyphClass: 2
Flags: W
AnchorPoint: "Anchor-18" 0 0 basechar 0
AnchorPoint: "Anchor-17" 0 0 basechar 0
AnchorPoint: "Anchor-16" 320 696 basechar 0
AnchorPoint: "Anchor-15" 0 0 basechar 0
AnchorPoint: "Anchor-14" 107 0 basechar 0
LayerCount: 2
Fore
SplineSet
537 696 m 1,0,-1
 496 553 l 1,1,-1
 285 553 l 1,2,-1
 264 401 l 1,3,-1
 450 401 l 1,4,-1
 430 258 l 1,5,-1
 244 258 l 1,6,-1
 208 0 l 1,7,-1
 6 0 l 1,8,-1
 103 696 l 1,9,-1
 537 696 l 1,0,-1
EndSplineSet
Substitution2: "'c2sc' Capitals to Small Capitals lookup 27 subtable" f.sc
Substitution2: "'aalt' Access All Alternates lookup 0 subtable" f.sc
Position2: "'cpsp' Capital Spacing lookup 0 subtable" dx=5 dy=0 dh=10 dv=0
EndChar

StartChar: uni0191
Encoding: 401 401 98
Width: 475
GlyphClass: 2
Flags: W
AnchorPoint: "Anchor-18" 0 0 basechar 0
AnchorPoint: "Anchor-17" 0 0 basechar 0
AnchorPoint: "Anchor-16" 320 696 basechar 0
AnchorPoint: "Anchor-15" 0 0 basechar 0
AnchorPoint: "Anchor-14" 107 0 basechar 0
LayerCount: 2
Fore
SplineSet
285 553 m 1,0,-1
 264 401 l 1,1,-1
 450 401 l 1,2,-1
 430 258 l 1,3,-1
 244 258 l 1,4,-1
 208 0 l 1,5,-1
 205 -18 l 2,6,7
 187 -122 187 -122 121 -174.5 c 128,-1,8
 55 -227 55 -227 -48 -227 c 0,9,10
 -141 -227 -141 -227 -198 -181 c 1,11,-1
 -119 -63 l 1,12,13
 -101 -73 -101 -73 -88 -77.5 c 128,-1,14
 -75 -82 -75 -82 -57 -82 c 0,15,16
 -7 -82 -7 -82 2 -28 c 2,17,-1
 6 0 l 1,18,-1
 103 696 l 1,19,-1
 537 696 l 1,20,-1
 496 553 l 1,21,-1
 285 553 l 1,0,-1
EndSplineSet
Substitution2: "'c2sc' Capitals to Small Capitals lookup 27 subtable" uni0191.sc
Substitution2: "'aalt' Access All Alternates lookup 0 subtable" uni0191.sc
Position2: "'cpsp' Capital Spacing lookup 0 subtable" dx=5 dy=0 dh=10 dv=0
EndChar

StartChar: G
Encoding: 71 71 99
Width: 640
GlyphClass: 2
Flags: W
AnchorPoint: "Anchor-18" 0 0 basechar 0
AnchorPoint: "Anchor-17" 0 0 basechar 0
AnchorPoint: "Anchor-16" 408 696 basechar 0
AnchorPoint: "Anchor-15" 0 0 basechar 0
AnchorPoint: "Anchor-14" 306 0 basechar 0
LayerCount: 2
Fore
SplineSet
557.5 690 m 128,-1,1
 616 664 616 664 654 622 c 1,2,-1
 544 523 l 1,3,4
 512 549 512 549 484.5 560.5 c 128,-1,5
 457 572 457 572 421 572 c 0,6,7
 317 572 317 572 274 473.5 c 128,-1,8
 231 375 231 375 231 243 c 0,9,10
 231 178 231 178 252.5 152 c 128,-1,11
 274 126 274 126 319 126 c 0,12,13
 356 126 356 126 394 142 c 1,14,-1
 412 270 l 1,15,-1
 343 270 l 1,16,-1
 345 409 l 1,17,-1
 626 409 l 1,18,-1
 578 58 l 1,19,20
 519 21 519 21 447 0.5 c 128,-1,21
 375 -20 375 -20 310 -20 c 0,22,23
 24 -20 24 -20 24 259 c 0,24,25
 24 374 24 374 65 478 c 128,-1,26
 106 582 106 582 196 649 c 128,-1,27
 286 716 286 716 425 716 c 0,28,0
 499 716 499 716 557.5 690 c 128,-1,1
EndSplineSet
Substitution2: "'c2sc' Capitals to Small Capitals lookup 27 subtable" g.sc
Substitution2: "'aalt' Access All Alternates lookup 0 subtable" g.sc
Position2: "'cpsp' Capital Spacing lookup 0 subtable" dx=5 dy=0 dh=10 dv=0
EndChar

StartChar: uni0194
Encoding: 404 404 101
Width: 569
GlyphClass: 2
Flags: W
AnchorPoint: "Anchor-18" 0 0 basechar 0
AnchorPoint: "Anchor-17" 0 0 basechar 0
AnchorPoint: "Anchor-16" 344 696 basechar 0
AnchorPoint: "Anchor-15" 0 0 basechar 0
AnchorPoint: "Anchor-14" 0 0 basechar 0
LayerCount: 2
Fore
SplineSet
358 97 m 1,0,1
 383 46 383 46 395 11.5 c 128,-1,2
 407 -23 407 -23 407 -62 c 0,3,4
 407 -142 407 -142 358 -184.5 c 128,-1,5
 309 -227 309 -227 220 -227 c 0,6,7
 143 -227 143 -227 106.5 -192.5 c 128,-1,8
 70 -158 70 -158 70 -97 c 0,9,10
 70 -48 70 -48 94 0.5 c 128,-1,11
 118 49 118 49 164 106 c 1,12,-1
 35 696 l 1,13,-1
 246 696 l 1,14,-1
 281 237 l 1,15,-1
 445 696 l 1,16,-1
 654 696 l 1,17,-1
 358 97 l 1,0,1
251 7 m 1,19,20
 233 -17 233 -17 222 -41 c 128,-1,21
 211 -65 211 -65 211 -83 c 0,22,23
 211 -106 211 -106 233 -106 c 0,24,25
 249 -106 249 -106 257.5 -95 c 128,-1,26
 266 -84 266 -84 266 -66 c 0,27,18
 266 -35 266 -35 251 7 c 1,19,20
EndSplineSet
Substitution2: "'c2sc' Capitals to Small Capitals lookup 27 subtable" uni0194.sc
Substitution2: "'aalt' Access All Alternates lookup 0 subtable" uni0194.sc
Position2: "'cpsp' Capital Spacing lookup 0 subtable" dx=5 dy=0 dh=10 dv=0
EndChar

StartChar: uni0193
Encoding: 403 403 107
Width: 624
GlyphClass: 2
Flags: W
AnchorPoint: "Anchor-18" 0 0 basechar 0
AnchorPoint: "Anchor-17" 0 0 basechar 0
AnchorPoint: "Anchor-16" 372 744 basechar 0
AnchorPoint: "Anchor-15" 0 0 basechar 0
AnchorPoint: "Anchor-14" 274 0 basechar 0
LayerCount: 2
Fore
SplineSet
836 825 m 1,1,-1
 770 705 l 1,2,3
 739 721 739 721 711 721 c 0,4,5
 664 721 664 721 658 666 c 2,6,-1
 653 622 l 1,7,-1
 553 532 l 1,8,9
 490 572 490 572 420 572 c 0,10,11
 316 572 316 572 273 473.5 c 128,-1,12
 230 375 230 375 230 243 c 0,13,14
 230 178 230 178 251.5 152 c 128,-1,15
 273 126 273 126 318 126 c 0,16,17
 355 126 355 126 393 142 c 1,18,-1
 411 270 l 1,19,-1
 342 270 l 1,20,-1
 344 409 l 1,21,-1
 625 409 l 1,22,-1
 577 58 l 1,23,24
 518 21 518 21 446 0.5 c 128,-1,25
 374 -20 374 -20 309 -20 c 0,26,27
 23 -20 23 -20 23 259 c 0,28,29
 23 370 23 370 67 475.5 c 128,-1,30
 111 581 111 581 197 648.5 c 128,-1,31
 283 716 283 716 402 716 c 0,32,33
 455 716 455 716 498 700 c 1,34,35
 512 778 512 778 561.5 820.5 c 128,-1,36
 611 863 611 863 697 863 c 0,37,0
 777 863 777 863 836 825 c 1,1,-1
EndSplineSet
Substitution2: "'c2sc' Capitals to Small Capitals lookup 27 subtable" uni0260.sc
Substitution2: "'aalt' Access All Alternates lookup 0 subtable" uni0260.sc
Position2: "'cpsp' Capital Spacing lookup 0 subtable" dx=5 dy=0 dh=10 dv=0
EndChar

StartChar: uni0241
Encoding: 577 577 108
Width: 535
GlyphClass: 2
Flags: W
AnchorPoint: "Anchor-18" 0 0 basechar 0
AnchorPoint: "Anchor-17" 0 0 basechar 0
AnchorPoint: "Anchor-16" 328 696 basechar 0
AnchorPoint: "Anchor-15" 0 0 basechar 0
AnchorPoint: "Anchor-14" 214 0 basechar 0
LayerCount: 2
Fore
SplineSet
159 337 m 1,0,-1
 205 350 l 2,1,2
 271 369 271 369 305.5 404.5 c 128,-1,3
 340 440 340 440 340 499 c 0,4,5
 340 534 340 534 322 553 c 128,-1,6
 304 572 304 572 268 572 c 0,7,8
 235 572 235 572 205 559 c 128,-1,9
 175 546 175 546 140 519 c 1,10,-1
 56 621 l 1,11,12
 112 670 112 670 171 693 c 128,-1,13
 230 716 230 716 309 716 c 0,14,15
 421 716 421 716 484.5 662 c 128,-1,16
 548 608 548 608 548 512 c 0,17,18
 548 348 548 348 384 292 c 2,19,-1
 355 282 l 1,20,-1
 315 0 l 1,21,-1
 113 0 l 1,22,-1
 159 337 l 1,0,-1
EndSplineSet
Substitution2: "'c2sc' Capitals to Small Capitals lookup 27 subtable" uni0294.sc
Substitution2: "'aalt' Access All Alternates lookup 0 subtable" uni0294.sc
Position2: "'cpsp' Capital Spacing lookup 0 subtable" dx=5 dy=0 dh=10 dv=0
EndChar

StartChar: uni01E4
Encoding: 484 484 109
Width: 680
GlyphClass: 2
Flags: W
AnchorPoint: "Anchor-18" 0 0 basechar 0
AnchorPoint: "Anchor-17" 0 0 basechar 0
AnchorPoint: "Anchor-16" 400 696 basechar 0
AnchorPoint: "Anchor-15" 0 0 basechar 0
AnchorPoint: "Anchor-14" 302 0 basechar 0
LayerCount: 2
Fore
SplineSet
658 181 m 1,0,-1
 595 181 l 1,1,-1
 578 58 l 1,2,3
 519 21 519 21 447 0.5 c 128,-1,4
 375 -20 375 -20 310 -20 c 0,5,6
 24 -20 24 -20 24 259 c 0,7,8
 24 374 24 374 65 478 c 128,-1,9
 106 582 106 582 196 649 c 128,-1,10
 286 716 286 716 425 716 c 0,11,12
 499 716 499 716 557.5 690 c 128,-1,13
 616 664 616 664 654 622 c 1,14,-1
 540 519 l 1,15,16
 512 547 512 547 485 559.5 c 128,-1,17
 458 572 458 572 421 572 c 0,18,19
 317 572 317 572 274 473.5 c 128,-1,20
 231 375 231 375 231 243 c 0,21,22
 231 178 231 178 252.5 152 c 128,-1,23
 274 126 274 126 319 126 c 0,24,25
 366 126 366 126 404 142 c 1,26,-1
 409 181 l 1,27,-1
 324 181 l 1,28,-1
 338 286 l 1,29,-1
 423 286 l 1,30,-1
 427 320 l 1,31,-1
 348 320 l 1,32,-1
 348 433 l 1,33,-1
 630 433 l 1,34,-1
 610 286 l 1,35,-1
 672 286 l 1,36,-1
 658 181 l 1,0,-1
EndSplineSet
Substitution2: "'c2sc' Capitals to Small Capitals lookup 27 subtable" uni01E5.sc
Substitution2: "'aalt' Access All Alternates lookup 0 subtable" uni01E5.sc
Position2: "'cpsp' Capital Spacing lookup 0 subtable" dx=5 dy=0 dh=10 dv=0
EndChar

StartChar: uni021C
Encoding: 540 540 110
Width: 520
GlyphClass: 2
Flags: W
AnchorPoint: "Anchor-18" 0 0 basechar 0
AnchorPoint: "Anchor-17" 0 0 basechar 0
AnchorPoint: "Anchor-16" 319 696 basechar 0
AnchorPoint: "Anchor-15" 0 0 basechar 0
AnchorPoint: "Anchor-14" 0 0 basechar 0
LayerCount: 2
Fore
SplineSet
417 693.5 m 128,-1,1
 468 671 468 671 495 630.5 c 128,-1,2
 522 590 522 590 522 537 c 0,3,4
 522 398 522 398 337 357 c 1,5,6
 415 355 415 355 457 319 c 128,-1,7
 499 283 499 283 499 216 c 0,8,9
 499 87 499 87 363 2.5 c 128,-1,10
 227 -82 227 -82 17 -120 c 1,11,-1
 21 24 l 1,12,13
 155 62 155 62 222 105.5 c 128,-1,14
 289 149 289 149 289 221 c 0,15,16
 289 256 289 256 267 270.5 c 128,-1,17
 245 285 245 285 196 285 c 2,18,-1
 120 285 l 1,19,-1
 160 426 l 1,20,-1
 217 426 l 2,21,22
 265 426 265 426 290 450 c 128,-1,23
 315 474 315 474 315 516 c 0,24,25
 315 572 315 572 253 572 c 0,26,27
 190 572 190 572 121 521 c 1,28,-1
 40 621 l 1,29,30
 152 716 152 716 297 716 c 0,31,0
 366 716 366 716 417 693.5 c 128,-1,1
EndSplineSet
Substitution2: "'c2sc' Capitals to Small Capitals lookup 27 subtable" uni021D.sc
Substitution2: "'aalt' Access All Alternates lookup 0 subtable" uni021D.sc
Position2: "'cpsp' Capital Spacing lookup 0 subtable" dx=5 dy=0 dh=10 dv=0
EndChar

StartChar: H
Encoding: 72 72 111
Width: 645
GlyphClass: 2
Flags: W
AnchorPoint: "Anchor-18" 334 348 basechar 0
AnchorPoint: "Anchor-17" 0 0 basechar 0
AnchorPoint: "Anchor-16" 382 696 basechar 0
AnchorPoint: "Anchor-15" 0 0 basechar 0
AnchorPoint: "Anchor-14" 284 0 basechar 0
LayerCount: 2
Fore
SplineSet
207 0 m 1,0,-1
 5 0 l 1,1,-1
 103 696 l 1,2,-1
 305 696 l 1,3,-1
 269 439 l 1,4,-1
 423 439 l 1,5,-1
 459 696 l 1,6,-1
 661 696 l 1,7,-1
 564 0 l 1,8,-1
 362 0 l 1,9,-1
 400 281 l 1,10,-1
 247 281 l 1,11,-1
 207 0 l 1,0,-1
EndSplineSet
Substitution2: "'c2sc' Capitals to Small Capitals lookup 27 subtable" h.sc
Substitution2: "'aalt' Access All Alternates lookup 0 subtable" h.sc
Position2: "'cpsp' Capital Spacing lookup 0 subtable" dx=5 dy=0 dh=10 dv=0
EndChar

StartChar: Hbar
Encoding: 294 294 112
Width: 669
GlyphClass: 2
Flags: W
AnchorPoint: "Anchor-18" 344 348 basechar 0
AnchorPoint: "Anchor-17" 0 0 basechar 0
AnchorPoint: "Anchor-16" 392 696 basechar 0
AnchorPoint: "Anchor-15" 0 0 basechar 0
AnchorPoint: "Anchor-14" 294 0 basechar 0
LayerCount: 2
Fore
SplineSet
708 601 m 1,0,-1
 693 495 l 1,1,-1
 643 495 l 1,2,-1
 574 0 l 1,3,-1
 372 0 l 1,4,-1
 410 281 l 1,5,-1
 257 281 l 1,6,-1
 217 0 l 1,7,-1
 15 0 l 1,8,-1
 85 495 l 1,9,-1
 36 495 l 1,10,-1
 51 601 l 1,11,-1
 100 601 l 1,12,-1
 113 696 l 1,13,-1
 315 696 l 1,14,-1
 302 601 l 1,15,-1
 456 601 l 1,16,-1
 469 696 l 1,17,-1
 671 696 l 1,18,-1
 658 601 l 1,19,-1
 708 601 l 1,0,-1
433 439 m 1,20,-1
 441 495 l 1,21,-1
 287 495 l 1,22,-1
 279 439 l 1,23,-1
 433 439 l 1,20,-1
EndSplineSet
Substitution2: "'c2sc' Capitals to Small Capitals lookup 27 subtable" hbar.sc
Substitution2: "'aalt' Access All Alternates lookup 0 subtable" hbar.sc
Position2: "'cpsp' Capital Spacing lookup 0 subtable" dx=5 dy=0 dh=10 dv=0
EndChar

StartChar: uniA7AA
Encoding: 42922 42922 116
Width: 820
GlyphClass: 2
Flags: W
AnchorPoint: "Anchor-18" 509 348 basechar 0
AnchorPoint: "Anchor-17" 0 0 basechar 0
AnchorPoint: "Anchor-16" 557 696 basechar 0
AnchorPoint: "Anchor-15" 0 0 basechar 0
AnchorPoint: "Anchor-14" 459 0 basechar 0
LayerCount: 2
Fore
SplineSet
836 696 m 1,0,-1
 739 0 l 1,1,-1
 537 0 l 1,2,-1
 575 281 l 1,3,-1
 422 281 l 1,4,-1
 382 0 l 1,5,-1
 180 0 l 1,6,-1
 258 553 l 1,7,-1
 233 553 l 2,8,9
 210 553 210 553 198 540.5 c 128,-1,10
 186 528 186 528 186 504 c 0,11,12
 186 484 186 484 192 454 c 1,13,-1
 61 404 l 1,14,15
 49 431 49 431 42.5 455 c 128,-1,16
 36 479 36 479 36 507 c 0,17,18
 36 595 36 595 93.5 645.5 c 128,-1,19
 151 696 151 696 246 696 c 2,20,-1
 480 696 l 1,21,-1
 444 439 l 1,22,-1
 598 439 l 1,23,-1
 634 696 l 1,24,-1
 836 696 l 1,0,-1
EndSplineSet
Substitution2: "'c2sc' Capitals to Small Capitals lookup 27 subtable" uniA7AA.sc
Substitution2: "'aalt' Access All Alternates lookup 0 subtable" uniA7AA.sc
Position2: "'cpsp' Capital Spacing lookup 0 subtable" dx=5 dy=0 dh=10 dv=0
EndChar

StartChar: uni01F6
Encoding: 502 502 118
Width: 920
GlyphClass: 2
Flags: W
AnchorPoint: "Anchor-18" 0 0 basechar 0
AnchorPoint: "Anchor-17" 0 0 basechar 0
AnchorPoint: "Anchor-16" 520 696 basechar 0
AnchorPoint: "Anchor-15" 0 0 basechar 0
AnchorPoint: "Anchor-14" 422 0 basechar 0
LayerCount: 2
Fore
SplineSet
441 29 m 128,-1,1
 386 78 386 78 386 155 c 0,2,3
 386 164 386 164 388 182 c 2,4,-1
 401 281 l 1,5,-1
 247 281 l 1,6,-1
 208 0 l 1,7,-1
 6 0 l 1,8,-1
 103 696 l 1,9,-1
 305 696 l 1,10,-1
 269 439 l 1,11,-1
 424 439 l 1,12,-1
 460 696 l 1,13,-1
 662 696 l 1,14,-1
 591 190 l 2,15,16
 589 172 589 172 589 163 c 0,17,18
 589 122 589 122 620 122 c 0,19,20
 677 122 677 122 698.5 228.5 c 128,-1,21
 720 335 720 335 720 456 c 0,22,23
 720 499 720 499 716 534 c 1,24,-1
 899 534 l 1,25,26
 907 486 907 486 907 426 c 0,27,28
 907 285 907 285 882 188.5 c 128,-1,29
 857 92 857 92 789.5 36 c 128,-1,30
 722 -20 722 -20 599 -20 c 0,31,0
 496 -20 496 -20 441 29 c 128,-1,1
EndSplineSet
Substitution2: "'c2sc' Capitals to Small Capitals lookup 27 subtable" uni01F6.sc
Substitution2: "'aalt' Access All Alternates lookup 0 subtable" uni01F6.sc
Position2: "'cpsp' Capital Spacing lookup 0 subtable" dx=5 dy=0 dh=10 dv=0
EndChar

StartChar: I
Encoding: 73 73 119
Width: 289
GlyphClass: 2
Flags: W
AnchorPoint: "Anchor-18" 0 0 basechar 0
AnchorPoint: "Anchor-17" 0 0 basechar 0
AnchorPoint: "Anchor-16" 204 696 basechar 0
AnchorPoint: "Anchor-15" 173 0 basechar 0
AnchorPoint: "Anchor-14" 107 0 basechar 0
LayerCount: 2
Fore
SplineSet
305 696 m 1,0,-1
 208 0 l 1,1,-1
 6 0 l 1,2,-1
 103 696 l 1,3,-1
 305 696 l 1,0,-1
EndSplineSet
Substitution2: "'c2sc' Capitals to Small Capitals lookup 27 subtable" i.sc
Substitution2: "'aalt' Access All Alternates lookup 0 subtable" i.sc
Position2: "'cpsp' Capital Spacing lookup 0 subtable" dx=5 dy=0 dh=10 dv=0
EndChar

StartChar: Iogonek
Encoding: 302 302 134
Width: 289
GlyphClass: 2
Flags: W
AnchorPoint: "Anchor-18" 0 0 basechar 0
AnchorPoint: "Anchor-17" 0 0 basechar 0
AnchorPoint: "Anchor-16" 204 696 basechar 0
AnchorPoint: "Anchor-15" 173 0 basechar 0
AnchorPoint: "Anchor-14" 107 0 basechar 0
LayerCount: 2
Fore
SplineSet
305 696 m 1,0,-1
 208 0 l 1,1,-1
 165 0 l 1,2,3
 91 -24 91 -24 63.5 -52.5 c 128,-1,4
 36 -81 36 -81 36 -106 c 0,5,6
 36 -139 36 -139 79 -139 c 0,7,8
 106 -139 106 -139 141 -131 c 1,9,-1
 115 -246 l 1,10,11
 80 -254 80 -254 42 -254 c 0,12,13
 -21 -254 -21 -254 -61 -224.5 c 128,-1,14
 -101 -195 -101 -195 -101 -143 c 0,15,16
 -101 -49 -101 -49 8 11 c 1,17,-1
 103 696 l 1,18,-1
 305 696 l 1,0,-1
EndSplineSet
Substitution2: "'c2sc' Capitals to Small Capitals lookup 27 subtable" iogonek.sc
Substitution2: "'aalt' Access All Alternates lookup 0 subtable" iogonek.sc
Position2: "'cpsp' Capital Spacing lookup 0 subtable" dx=5 dy=0 dh=10 dv=0
EndChar

StartChar: uni0196
Encoding: 406 406 135
Width: 397
GlyphClass: 2
Flags: W
AnchorPoint: "Anchor-18" 0 0 basechar 0
AnchorPoint: "Anchor-17" 0 0 basechar 0
AnchorPoint: "Anchor-16" 195 696 basechar 0
AnchorPoint: "Anchor-15" 0 0 basechar 0
AnchorPoint: "Anchor-14" 156 0 basechar 0
LayerCount: 2
Fore
SplineSet
380 24 m 1,0,1
 314 -20 314 -20 221 -20 c 0,2,3
 127 -20 127 -20 73.5 24 c 128,-1,4
 20 68 20 68 20 153 c 0,5,6
 20 171 20 171 23 192 c 2,7,-1
 25 207 l 1,8,-1
 94 696 l 1,9,-1
 296 696 l 1,10,-1
 227 207 l 1,11,-1
 223 177 l 2,12,13
 222 172 222 172 222 164 c 0,14,15
 222 125 222 125 262 125 c 0,16,17
 281 125 281 125 295.5 129 c 128,-1,18
 310 133 310 133 332 143 c 1,19,-1
 380 24 l 1,0,1
EndSplineSet
Substitution2: "'c2sc' Capitals to Small Capitals lookup 27 subtable" uni0196.sc
Substitution2: "'aalt' Access All Alternates lookup 0 subtable" uni0196.sc
Position2: "'cpsp' Capital Spacing lookup 0 subtable" dx=5 dy=0 dh=10 dv=0
EndChar

StartChar: uni0197
Encoding: 407 407 136
Width: 340
GlyphClass: 2
Flags: W
AnchorPoint: "Anchor-18" 0 0 basechar 0
AnchorPoint: "Anchor-17" 0 0 basechar 0
AnchorPoint: "Anchor-16" 231 696 basechar 0
AnchorPoint: "Anchor-15" 200 0 basechar 0
AnchorPoint: "Anchor-14" 134 0 basechar 0
LayerCount: 2
Fore
SplineSet
360 435 m 1,0,-1
 340 285 l 1,1,-1
 275 285 l 1,2,-1
 235 0 l 1,3,-1
 33 0 l 1,4,-1
 73 285 l 1,5,-1
 6 285 l 1,6,-1
 26 435 l 1,7,-1
 94 435 l 1,8,-1
 130 696 l 1,9,-1
 332 696 l 1,10,-1
 296 435 l 1,11,-1
 360 435 l 1,0,-1
EndSplineSet
Substitution2: "'c2sc' Capitals to Small Capitals lookup 27 subtable" uni0268.sc
Substitution2: "'aalt' Access All Alternates lookup 0 subtable" uni0268.sc
Position2: "'cpsp' Capital Spacing lookup 0 subtable" dx=5 dy=0 dh=10 dv=0
EndChar

StartChar: J
Encoding: 74 74 138
Width: 317
GlyphClass: 2
Flags: W
AnchorPoint: "Anchor-18" 0 0 basechar 0
AnchorPoint: "Anchor-17" 0 0 basechar 0
AnchorPoint: "Anchor-16" 234 696 basechar 0
AnchorPoint: "Anchor-15" 0 0 basechar 0
AnchorPoint: "Anchor-14" 0 0 basechar 0
LayerCount: 2
Fore
SplineSet
254 110 m 2,0,1
 241 19 241 19 198.5 -40 c 128,-1,2
 156 -99 156 -99 99 -132 c 128,-1,3
 42 -165 42 -165 -32 -189 c 1,4,-1
 -68 -44 l 1,5,6
 -24 -28 -24 -28 0 -5 c 128,-1,7
 24 18 24 18 35 46.5 c 128,-1,8
 46 75 46 75 52 119 c 2,9,-1
 133 696 l 1,10,-1
 335 696 l 1,11,-1
 254 110 l 2,0,1
EndSplineSet
Substitution2: "'c2sc' Capitals to Small Capitals lookup 27 subtable" j.sc
Substitution2: "'aalt' Access All Alternates lookup 0 subtable" j.sc
Position2: "'cpsp' Capital Spacing lookup 0 subtable" dx=5 dy=0 dh=10 dv=0
EndChar

StartChar: uniA7B2
Encoding: 42930 42930 140
Width: 373
GlyphClass: 2
Flags: W
AnchorPoint: "Anchor-18" 0 0 basechar 0
AnchorPoint: "Anchor-17" 0 0 basechar 0
AnchorPoint: "Anchor-16" 289 696 basechar 0
AnchorPoint: "Anchor-15" 0 0 basechar 0
AnchorPoint: "Anchor-14" 0 0 basechar 0
LayerCount: 2
Fore
SplineSet
291 -7 m 1,1,2
 334 -20 334 -20 378 -46 c 1,3,-1
 338 -120 l 1,4,5
 309 -104 309 -104 266 -92 c 1,6,7
 236 -161 236 -161 178.5 -194 c 128,-1,8
 121 -227 121 -227 25 -227 c 0,9,10
 -52 -227 -52 -227 -93.5 -195 c 128,-1,11
 -135 -163 -135 -163 -135 -105 c 0,12,13
 -135 -41 -135 -41 -86.5 -6.5 c 128,-1,14
 -38 28 -38 28 36 28 c 0,15,16
 74 28 74 28 94 26 c 1,17,-1
 188 696 l 1,18,-1
 390 696 l 1,19,-1
 298 34 l 2,20,0
 294 6 294 6 291 -7 c 1,1,2
59 -117 m 128,-1,22
 74 -101 74 -101 82 -61 c 1,23,24
 60 -59 60 -59 33 -59 c 0,25,26
 8 -59 8 -59 -6.5 -70 c 128,-1,27
 -21 -81 -21 -81 -21 -100 c 0,28,29
 -21 -116 -21 -116 -11.5 -124.5 c 128,-1,30
 -2 -133 -2 -133 16 -133 c 0,31,21
 44 -133 44 -133 59 -117 c 128,-1,22
EndSplineSet
Substitution2: "'c2sc' Capitals to Small Capitals lookup 27 subtable" uniA7B2.sc
Substitution2: "'aalt' Access All Alternates lookup 0 subtable" uniA7B2.sc
Position2: "'cpsp' Capital Spacing lookup 0 subtable" dx=5 dy=0 dh=10 dv=0
EndChar

StartChar: uni0248
Encoding: 584 584 141
Width: 339
GlyphClass: 2
Flags: W
AnchorPoint: "Anchor-18" 0 0 basechar 0
AnchorPoint: "Anchor-17" 0 0 basechar 0
AnchorPoint: "Anchor-16" 233 696 basechar 0
AnchorPoint: "Anchor-15" 0 0 basechar 0
AnchorPoint: "Anchor-14" 0 0 basechar 0
LayerCount: 2
Fore
SplineSet
340 268 m 1,0,-1
 275 268 l 1,1,-1
 253 110 l 2,2,3
 240 19 240 19 197.5 -40 c 128,-1,4
 155 -99 155 -99 98 -132 c 128,-1,5
 41 -165 41 -165 -33 -189 c 1,6,-1
 -69 -44 l 1,7,8
 -25 -28 -25 -28 -1 -5 c 128,-1,9
 23 18 23 18 34 46.5 c 128,-1,10
 45 75 45 75 51 119 c 2,11,-1
 72 268 l 1,12,-1
 6 268 l 1,13,-1
 26 418 l 1,14,-1
 93 418 l 1,15,-1
 132 696 l 1,16,-1
 334 696 l 1,17,-1
 296 418 l 1,18,-1
 360 418 l 1,19,-1
 340 268 l 1,0,-1
EndSplineSet
Substitution2: "'c2sc' Capitals to Small Capitals lookup 27 subtable" uni0249.sc
Substitution2: "'aalt' Access All Alternates lookup 0 subtable" uni0249.sc
Position2: "'cpsp' Capital Spacing lookup 0 subtable" dx=5 dy=0 dh=10 dv=0
EndChar

StartChar: K
Encoding: 75 75 142
Width: 647
GlyphClass: 2
Flags: W
AnchorPoint: "Anchor-18" 0 0 basechar 0
AnchorPoint: "Anchor-17" 0 0 basechar 0
AnchorPoint: "Anchor-16" 385 696 basechar 0
AnchorPoint: "Anchor-15" 0 0 basechar 0
AnchorPoint: "Anchor-14" 288 0 basechar 0
LayerCount: 2
Fore
SplineSet
6 0 m 1,0,-1
 103 696 l 1,1,-1
 305 696 l 1,2,-1
 208 0 l 1,3,-1
 6 0 l 1,0,-1
402 0 m 1,4,-1
 266 371 l 1,5,-1
 499 696 l 1,6,-1
 709 696 l 1,7,-1
 471 377 l 1,8,-1
 630 0 l 1,9,-1
 402 0 l 1,4,-1
EndSplineSet
Substitution2: "'c2sc' Capitals to Small Capitals lookup 27 subtable" k.sc
Substitution2: "'aalt' Access All Alternates lookup 0 subtable" k.sc
Position2: "'cpsp' Capital Spacing lookup 0 subtable" dx=5 dy=0 dh=10 dv=0
EndChar

StartChar: uni0198
Encoding: 408 408 145
Width: 661
GlyphClass: 2
Flags: W
AnchorPoint: "Anchor-18" 0 0 basechar 0
AnchorPoint: "Anchor-17" 0 0 basechar 0
AnchorPoint: "Anchor-16" 391 696 basechar 0
AnchorPoint: "Anchor-15" 0 0 basechar 0
AnchorPoint: "Anchor-14" 293 0 basechar 0
LayerCount: 2
Fore
SplineSet
266 371 m 1,0,-1
 418 590 l 2,1,2
 467 661 467 661 510.5 688.5 c 128,-1,3
 554 716 554 716 621 716 c 0,4,5
 661 716 661 716 689 705.5 c 128,-1,6
 717 695 717 695 740 677 c 1,7,-1
 678 565 l 1,8,9
 672 568 672 568 663.5 571 c 128,-1,10
 655 574 655 574 643 574 c 0,11,12
 624 574 624 574 610.5 564.5 c 128,-1,13
 597 555 597 555 576 525 c 2,14,-1
 472 377 l 1,15,-1
 630 0 l 1,16,-1
 402 0 l 1,17,-1
 266 371 l 1,0,-1
6 0 m 1,18,-1
 103 696 l 1,19,-1
 305 696 l 1,20,-1
 208 0 l 1,21,-1
 6 0 l 1,18,-1
EndSplineSet
Substitution2: "'c2sc' Capitals to Small Capitals lookup 27 subtable" uni0199.sc
Substitution2: "'aalt' Access All Alternates lookup 0 subtable" uni0199.sc
Position2: "'cpsp' Capital Spacing lookup 0 subtable" dx=5 dy=0 dh=10 dv=0
EndChar

StartChar: L
Encoding: 76 76 146
Width: 514
GlyphClass: 2
Flags: W
AnchorPoint: "Anchor-18" 415 404 basechar 0
AnchorPoint: "Anchor-17" 324 696 basechar 0
AnchorPoint: "Anchor-16" 204 696 basechar 0
AnchorPoint: "Anchor-15" 0 0 basechar 0
AnchorPoint: "Anchor-14" 226 0 basechar 0
LayerCount: 2
Fore
SplineSet
305 696 m 1,0,-1
 230 158 l 1,1,-1
 487 158 l 1,2,-1
 445 0 l 1,3,-1
 6 0 l 1,4,-1
 103 696 l 1,5,-1
 305 696 l 1,0,-1
EndSplineSet
Substitution2: "'c2sc' Capitals to Small Capitals lookup 27 subtable" l.sc
Substitution2: "'aalt' Access All Alternates lookup 0 subtable" l.sc
Position2: "'cpsp' Capital Spacing lookup 0 subtable" dx=5 dy=0 dh=10 dv=0
EndChar

StartChar: uni023D
Encoding: 573 573 149
Width: 537
GlyphClass: 2
Flags: W
AnchorPoint: "Anchor-18" 438 404 basechar 0
AnchorPoint: "Anchor-17" 347 696 basechar 0
AnchorPoint: "Anchor-16" 227 696 basechar 0
AnchorPoint: "Anchor-15" 0 0 basechar 0
AnchorPoint: "Anchor-14" 249 0 basechar 0
LayerCount: 2
Fore
SplineSet
253 158 m 1,0,-1
 510 158 l 1,1,-1
 468 0 l 1,2,-1
 29 0 l 1,3,-1
 69 288 l 1,4,-1
 6 288 l 1,5,-1
 26 438 l 1,6,-1
 90 438 l 1,7,-1
 126 696 l 1,8,-1
 328 696 l 1,9,-1
 292 438 l 1,10,-1
 360 438 l 1,11,-1
 340 288 l 1,12,-1
 271 288 l 1,13,-1
 253 158 l 1,0,-1
EndSplineSet
Substitution2: "'c2sc' Capitals to Small Capitals lookup 27 subtable" uni019A.sc
Substitution2: "'aalt' Access All Alternates lookup 0 subtable" uni019A.sc
Position2: "'cpsp' Capital Spacing lookup 0 subtable" dx=5 dy=0 dh=10 dv=0
EndChar

StartChar: uniA7AD
Encoding: 42925 42925 150
Width: 646
GlyphClass: 2
Flags: W
AnchorPoint: "Anchor-18" 547 404 basechar 0
AnchorPoint: "Anchor-17" 456 696 basechar 0
AnchorPoint: "Anchor-16" 336 696 basechar 0
AnchorPoint: "Anchor-15" 0 0 basechar 0
AnchorPoint: "Anchor-14" 358 0 basechar 0
LayerCount: 2
Fore
SplineSet
619 158 m 1,0,-1
 577 0 l 1,1,-1
 138 0 l 1,2,-1
 173 248 l 1,3,4
 94 250 94 250 53 284.5 c 128,-1,5
 12 319 12 319 12 376 c 0,6,7
 12 438 12 438 55.5 475 c 128,-1,8
 99 512 99 512 169 512 c 0,9,10
 191 512 191 512 209 507 c 1,11,-1
 235 696 l 1,12,-1
 437 696 l 1,13,-1
 390 357 l 1,14,15
 437 359 437 359 495 366 c 1,16,-1
 494 265 l 1,17,18
 426 254 426 254 375 252 c 1,19,-1
 362 158 l 1,20,-1
 619 158 l 1,0,-1
187 353 m 1,22,-1
 196 414 l 1,23,24
 188 417 188 417 171 417 c 0,25,26
 156 417 156 417 147 408 c 128,-1,27
 138 399 138 399 138 385 c 0,28,21
 138 353 138 353 187 353 c 1,22,-1
EndSplineSet
Substitution2: "'c2sc' Capitals to Small Capitals lookup 27 subtable" uniA7AD.sc
Substitution2: "'aalt' Access All Alternates lookup 0 subtable" uniA7AD.sc
Position2: "'cpsp' Capital Spacing lookup 0 subtable" dx=5 dy=0 dh=10 dv=0
EndChar

StartChar: Lslash
Encoding: 321 321 157
Width: 562
GlyphClass: 2
Flags: W
AnchorPoint: "Anchor-18" 463 404 basechar 0
AnchorPoint: "Anchor-17" 372 696 basechar 0
AnchorPoint: "Anchor-16" 252 696 basechar 0
AnchorPoint: "Anchor-15" 0 0 basechar 0
AnchorPoint: "Anchor-14" 274 0 basechar 0
LayerCount: 2
Fore
SplineSet
278 158 m 1,0,-1
 535 158 l 1,1,-1
 493 0 l 1,2,-1
 54 0 l 1,3,-1
 83 205 l 1,4,-1
 47 184 l 1,5,-1
 0 287 l 1,6,-1
 102 346 l 1,7,-1
 151 696 l 1,8,-1
 353 696 l 1,9,-1
 322 474 l 1,10,-1
 437 541 l 1,11,-1
 486 439 l 1,12,-1
 302 332 l 1,13,-1
 278 158 l 1,0,-1
EndSplineSet
Substitution2: "'c2sc' Capitals to Small Capitals lookup 27 subtable" lslash.sc
Substitution2: "'aalt' Access All Alternates lookup 0 subtable" lslash.sc
Position2: "'cpsp' Capital Spacing lookup 0 subtable" dx=5 dy=0 dh=10 dv=0
EndChar

StartChar: M
Encoding: 77 77 158
Width: 777
GlyphClass: 2
Flags: W
AnchorPoint: "Anchor-18" 0 0 basechar 0
AnchorPoint: "Anchor-17" 0 0 basechar 0
AnchorPoint: "Anchor-16" 442 696 basechar 0
AnchorPoint: "Anchor-15" 0 0 basechar 0
AnchorPoint: "Anchor-14" 350 0 basechar 0
LayerCount: 2
Fore
SplineSet
724 0 m 1,0,-1
 525 0 l 1,1,-1
 554 248 l 2,2,3
 569 379 569 379 602 552 c 1,4,-1
 456 70 l 1,5,-1
 262 70 l 1,6,-1
 239 550 l 1,7,8
 238 449 238 449 232.5 383.5 c 128,-1,9
 227 318 227 318 215 247 c 2,10,-1
 176 0 l 1,11,-1
 -23 0 l 1,12,-1
 123 696 l 1,13,-1
 367 696 l 1,14,-1
 380 226 l 1,15,-1
 516 696 l 1,16,-1
 772 696 l 1,17,-1
 724 0 l 1,0,-1
EndSplineSet
Substitution2: "'c2sc' Capitals to Small Capitals lookup 27 subtable" m.sc
Substitution2: "'aalt' Access All Alternates lookup 0 subtable" m.sc
Position2: "'cpsp' Capital Spacing lookup 0 subtable" dx=5 dy=0 dh=10 dv=0
EndChar

StartChar: uni019C
Encoding: 412 412 161
Width: 889
GlyphClass: 2
Flags: W
AnchorPoint: "Anchor-18" 0 0 basechar 0
AnchorPoint: "Anchor-17" 0 0 basechar 0
AnchorPoint: "Anchor-16" 504 696 basechar 0
AnchorPoint: "Anchor-15" 0 0 basechar 0
AnchorPoint: "Anchor-14" 406 0 basechar 0
LayerCount: 2
Fore
SplineSet
905 696 m 1,0,-1
 808 0 l 1,1,-1
 630 0 l 1,2,-1
 624 62 l 1,3,4
 584 18 584 18 547 -1 c 128,-1,5
 510 -20 510 -20 464 -20 c 0,6,7
 415 -20 415 -20 381.5 2.5 c 128,-1,8
 348 25 348 25 333 65 c 1,9,10
 259 -20 259 -20 159 -20 c 0,11,12
 92 -20 92 -20 54.5 21.5 c 128,-1,13
 17 63 17 63 17 132 c 0,14,15
 17 150 17 150 20 171 c 2,16,-1
 93 696 l 1,17,-1
 295 696 l 1,18,-1
 223 180 l 2,19,20
 222 176 222 176 222 168 c 0,21,22
 222 149 222 149 230 139 c 128,-1,23
 238 129 238 129 252 129 c 0,24,25
 287 129 287 129 326 179 c 1,26,-1
 398 696 l 1,27,-1
 600 696 l 1,28,-1
 528 180 l 2,29,30
 527 176 527 176 527 168 c 0,31,32
 527 149 527 149 535 139 c 128,-1,33
 543 129 543 129 557 129 c 0,34,35
 592 129 592 129 631 179 c 1,36,-1
 703 696 l 1,37,-1
 905 696 l 1,0,-1
EndSplineSet
Substitution2: "'c2sc' Capitals to Small Capitals lookup 27 subtable" uni026F.sc
Substitution2: "'aalt' Access All Alternates lookup 0 subtable" uni026F.sc
Position2: "'cpsp' Capital Spacing lookup 0 subtable" dx=5 dy=0 dh=10 dv=0
EndChar

StartChar: N
Encoding: 78 78 162
Width: 640
GlyphClass: 2
Flags: W
AnchorPoint: "Anchor-18" 0 0 basechar 0
AnchorPoint: "Anchor-17" 0 0 basechar 0
AnchorPoint: "Anchor-16" 380 696 basechar 0
AnchorPoint: "Anchor-15" 0 0 basechar 0
AnchorPoint: "Anchor-14" 283 0 basechar 0
LayerCount: 2
Fore
SplineSet
559 0 m 1,0,-1
 305 0 l 1,1,-1
 220 527 l 1,2,-1
 221 500 l 2,3,4
 225 438 225 438 225 399 c 0,5,6
 225 311 225 311 211 205 c 2,7,-1
 182 0 l 1,8,-1
 6 0 l 1,9,-1
 103 696 l 1,10,-1
 353 696 l 1,11,-1
 442 169 l 1,12,13
 436 261 436 261 436 301 c 0,14,15
 436 382 436 382 450 484 c 2,16,-1
 480 696 l 1,17,-1
 656 696 l 1,18,-1
 559 0 l 1,0,-1
EndSplineSet
Substitution2: "'c2sc' Capitals to Small Capitals lookup 27 subtable" n.sc
Substitution2: "'aalt' Access All Alternates lookup 0 subtable" n.sc
Position2: "'cpsp' Capital Spacing lookup 0 subtable" dx=5 dy=0 dh=10 dv=0
EndChar

StartChar: Eng
Encoding: 330 330 171
Width: 640
GlyphClass: 2
Flags: W
AnchorPoint: "Anchor-18" 0 0 basechar 0
AnchorPoint: "Anchor-17" 0 0 basechar 0
AnchorPoint: "Anchor-16" 380 696 basechar 0
AnchorPoint: "Anchor-15" 0 0 basechar 0
AnchorPoint: "Anchor-14" 283 0 basechar 0
LayerCount: 2
Fore
SplineSet
656 696 m 1,0,-1
 559 0 l 1,1,-1
 556 -18 l 2,2,3
 538 -122 538 -122 472 -174.5 c 128,-1,4
 406 -227 406 -227 303 -227 c 0,5,6
 210 -227 210 -227 153 -181 c 1,7,-1
 232 -63 l 1,8,9
 250 -73 250 -73 263 -77.5 c 128,-1,10
 276 -82 276 -82 294 -82 c 0,11,12
 344 -82 344 -82 353 -28 c 2,13,-1
 357 0 l 1,14,-1
 305 0 l 1,15,-1
 220 527 l 1,16,-1
 221 500 l 2,17,18
 225 438 225 438 225 399 c 0,19,20
 225 311 225 311 211 205 c 2,21,-1
 182 0 l 1,22,-1
 6 0 l 1,23,-1
 103 696 l 1,24,-1
 353 696 l 1,25,-1
 442 169 l 1,26,27
 436 261 436 261 436 301 c 0,28,29
 436 382 436 382 450 484 c 2,30,-1
 480 696 l 1,31,-1
 656 696 l 1,0,-1
EndSplineSet
Substitution2: "'ss01' Style Set 1 lookup 34 subtable" Eng.ss01
Substitution2: "'salt' Stylistic Alternatives lookup 33 subtable" Eng.ss01
Substitution2: "'c2sc' Capitals to Small Capitals lookup 27 subtable" eng.sc
AlternateSubs2: "'aalt' Access All Alternates lookup 1 subtable" eng.sc Eng.ss01
Position2: "'cpsp' Capital Spacing lookup 0 subtable" dx=5 dy=0 dh=10 dv=0
EndChar

StartChar: uni019D
Encoding: 413 413 172
Width: 640
GlyphClass: 2
Flags: W
AnchorPoint: "Anchor-18" 0 0 basechar 0
AnchorPoint: "Anchor-17" 0 0 basechar 0
AnchorPoint: "Anchor-16" 380 696 basechar 0
AnchorPoint: "Anchor-15" 0 0 basechar 0
AnchorPoint: "Anchor-14" 283 0 basechar 0
LayerCount: 2
Fore
SplineSet
656 696 m 1,0,-1
 559 0 l 1,1,-1
 305 0 l 1,2,-1
 220 527 l 1,3,-1
 221 500 l 2,4,5
 225 438 225 438 225 399 c 0,6,7
 225 311 225 311 211 205 c 2,8,-1
 182 0 l 1,9,-1
 179 -19 l 2,10,11
 146 -227 146 -227 -48 -227 c 0,12,13
 -141 -227 -141 -227 -198 -181 c 1,14,-1
 -119 -70 l 1,15,16
 -101 -80 -101 -80 -88 -84.5 c 128,-1,17
 -75 -89 -75 -89 -57 -89 c 0,18,19
 -7 -89 -7 -89 2 -28 c 2,20,-1
 6 0 l 1,21,-1
 103 696 l 1,22,-1
 353 696 l 1,23,-1
 442 169 l 1,24,25
 436 261 436 261 436 301 c 0,26,27
 436 382 436 382 450 484 c 2,28,-1
 480 696 l 1,29,-1
 656 696 l 1,0,-1
EndSplineSet
Substitution2: "'ss01' Style Set 1 lookup 34 subtable" uni019D.ss01
Substitution2: "'salt' Stylistic Alternatives lookup 33 subtable" uni019D.ss01
Substitution2: "'c2sc' Capitals to Small Capitals lookup 27 subtable" uni0272.sc
AlternateSubs2: "'aalt' Access All Alternates lookup 1 subtable" uni0272.sc uni019D.ss01
Position2: "'cpsp' Capital Spacing lookup 0 subtable" dx=5 dy=0 dh=10 dv=0
EndChar

StartChar: uni0220
Encoding: 544 544 174
Width: 631
GlyphClass: 2
Flags: W
AnchorPoint: "Anchor-18" 0 0 basechar 0
AnchorPoint: "Anchor-17" 0 0 basechar 0
AnchorPoint: "Anchor-16" 382 696 basechar 0
AnchorPoint: "Anchor-15" 0 0 basechar 0
AnchorPoint: "Anchor-14" 0 0 basechar 0
LayerCount: 2
Fore
SplineSet
589.5 674.5 m 128,-1,1
 630 633 630 633 630 561 c 0,2,3
 630 545 630 545 627 525 c 2,4,-1
 526 -215 l 1,5,-1
 324 -215 l 1,6,-1
 423 506 l 2,7,8
 424 513 424 513 424 524 c 0,9,10
 424 567 424 567 385 567 c 0,11,12
 359 567 359 567 335.5 554.5 c 128,-1,13
 312 542 312 542 279 514 c 1,14,-1
 207 0 l 1,15,-1
 6 0 l 1,16,-1
 103 696 l 1,17,-1
 280 696 l 1,18,-1
 286 642 l 1,19,20
 331 681 331 681 374.5 698.5 c 128,-1,21
 418 716 418 716 472 716 c 0,22,0
 549 716 549 716 589.5 674.5 c 128,-1,1
EndSplineSet
Substitution2: "'c2sc' Capitals to Small Capitals lookup 27 subtable" uni0220.sc
Substitution2: "'aalt' Access All Alternates lookup 0 subtable" uni0220.sc
Position2: "'cpsp' Capital Spacing lookup 0 subtable" dx=5 dy=0 dh=10 dv=0
EndChar

StartChar: O
Encoding: 79 79 176
Width: 678
GlyphClass: 2
Flags: W
AnchorPoint: "Anchor-18" 0 0 basechar 0
AnchorPoint: "Anchor-17" 644 696 basechar 0
AnchorPoint: "Anchor-16" 399 696 basechar 0
AnchorPoint: "Anchor-15" 436 0 basechar 0
AnchorPoint: "Anchor-14" 303 0 basechar 0
LayerCount: 2
Fore
SplineSet
605 640.5 m 128,-1,1
 676 565 676 565 676 429 c 0,2,3
 676 322 676 322 640 220 c 128,-1,4
 604 118 604 118 520 49 c 128,-1,5
 436 -20 436 -20 301 -20 c 0,6,7
 168 -20 168 -20 96.5 56 c 128,-1,8
 25 132 25 132 25 268 c 0,9,10
 25 375 25 375 61 477 c 128,-1,11
 97 579 97 579 181.5 647.5 c 128,-1,12
 266 716 266 716 400 716 c 256,13,0
 534 716 534 716 605 640.5 c 128,-1,1
291.5 515 m 128,-1,15
 258 460 258 460 245.5 387.5 c 128,-1,16
 233 315 233 315 233 251 c 0,17,18
 233 184 233 184 253.5 155 c 128,-1,19
 274 126 274 126 317 126 c 0,20,21
 376 126 376 126 409.5 180.5 c 128,-1,22
 443 235 443 235 455.5 308 c 128,-1,23
 468 381 468 381 468 447 c 256,24,25
 468 513 468 513 447.5 541.5 c 128,-1,26
 427 570 427 570 384 570 c 0,27,14
 325 570 325 570 291.5 515 c 128,-1,15
EndSplineSet
Substitution2: "Single Substitution lookup 44 subtable" ordmasculine
Substitution2: "'c2sc' Capitals to Small Capitals lookup 27 subtable" o.sc
AlternateSubs2: "'aalt' Access All Alternates lookup 1 subtable" ordmasculine o.sc
Position2: "'cpsp' Capital Spacing lookup 0 subtable" dx=5 dy=0 dh=10 dv=0
EndChar

StartChar: uni0222
Encoding: 546 546 177
Width: 636
GlyphClass: 2
Flags: W
AnchorPoint: "Anchor-18" 0 0 basechar 0
AnchorPoint: "Anchor-17" 0 0 basechar 0
AnchorPoint: "Anchor-16" 378 696 basechar 0
AnchorPoint: "Anchor-15" 0 0 basechar 0
AnchorPoint: "Anchor-14" 280 0 basechar 0
LayerCount: 2
Fore
SplineSet
508 400 m 1,1,2
 613 356 613 356 613 249 c 0,3,4
 613 170 613 170 570.5 109 c 128,-1,5
 528 48 528 48 453 14 c 128,-1,6
 378 -20 378 -20 283 -20 c 0,7,8
 199 -20 199 -20 137.5 8.5 c 128,-1,9
 76 37 76 37 43.5 85.5 c 128,-1,10
 11 134 11 134 11 195 c 0,11,12
 11 270 11 270 52 321.5 c 128,-1,13
 93 373 93 373 166 400 c 1,14,15
 94 440 94 440 94 526 c 0,16,17
 94 542 94 542 95 551 c 2,18,-1
 115 696 l 1,19,-1
 317 696 l 1,20,-1
 294 535 l 2,21,22
 292 519 292 519 292 512 c 0,23,24
 292 487 292 487 304.5 474.5 c 128,-1,25
 317 462 317 462 345 462 c 0,26,27
 380 462 380 462 397 481.5 c 128,-1,28
 414 501 414 501 418 537 c 2,29,-1
 441 696 l 1,30,-1
 643 696 l 1,31,-1
 623 549 l 2,32,0
 608 449 608 449 508 400 c 1,1,2
374.5 159.5 m 128,-1,34
 403 193 403 193 403 247 c 0,35,36
 403 282 403 282 383.5 303 c 128,-1,37
 364 324 364 324 328 324 c 0,38,39
 281 324 281 324 251.5 289 c 128,-1,40
 222 254 222 254 222 200 c 0,41,42
 222 166 222 166 241.5 146 c 128,-1,43
 261 126 261 126 297 126 c 0,44,33
 346 126 346 126 374.5 159.5 c 128,-1,34
EndSplineSet
Substitution2: "'c2sc' Capitals to Small Capitals lookup 27 subtable" uni0223.sc
Substitution2: "'aalt' Access All Alternates lookup 0 subtable" uni0223.sc
Position2: "'cpsp' Capital Spacing lookup 0 subtable" dx=5 dy=0 dh=10 dv=0
EndChar

StartChar: uni1ED0
Encoding: 7888 7888 183
Width: 678
GlyphClass: 2
Flags: W
AnchorPoint: "Anchor-18" 0 0 basechar 0
AnchorPoint: "Anchor-17" 501 828 basechar 0
AnchorPoint: "Anchor-16" 428 942 basechar 0
AnchorPoint: "Anchor-15" 436 0 basechar 0
AnchorPoint: "Anchor-14" 0 0 basechar 0
LayerCount: 2
Fore
SplineSet
683 1138 m 1,0,-1
 774 1036 l 1,1,-1
 585 887 l 1,2,-1
 520 952 l 1,3,-1
 683 1138 l 1,0,-1
268 724 m 1,4,-1
 209 801 l 1,5,-1
 371 942 l 1,6,-1
 487 942 l 1,7,-1
 609 801 l 1,8,-1
 536 724 l 1,9,-1
 414 811 l 1,10,-1
 268 724 l 1,4,-1
605 640.5 m 128,-1,12
 676 565 676 565 676 429 c 0,13,14
 676 322 676 322 640 220 c 128,-1,15
 604 118 604 118 520 49 c 128,-1,16
 436 -20 436 -20 301 -20 c 0,17,18
 168 -20 168 -20 96.5 56 c 128,-1,19
 25 132 25 132 25 268 c 0,20,21
 25 375 25 375 61 477 c 128,-1,22
 97 579 97 579 181.5 647.5 c 128,-1,23
 266 716 266 716 400 716 c 256,24,11
 534 716 534 716 605 640.5 c 128,-1,12
291.5 515 m 128,-1,26
 258 460 258 460 245.5 387.5 c 128,-1,27
 233 315 233 315 233 251 c 0,28,29
 233 184 233 184 253.5 155 c 128,-1,30
 274 126 274 126 317 126 c 0,31,32
 376 126 376 126 409.5 180.5 c 128,-1,33
 443 235 443 235 455.5 308 c 128,-1,34
 468 381 468 381 468 447 c 256,35,36
 468 513 468 513 447.5 541.5 c 128,-1,37
 427 570 427 570 384 570 c 0,38,25
 325 570 325 570 291.5 515 c 128,-1,26
EndSplineSet
Substitution2: "'c2sc' Capitals to Small Capitals lookup 27 subtable" uni1ED1.sc
Substitution2: "'aalt' Access All Alternates lookup 0 subtable" uni1ED1.sc
Position2: "'cpsp' Capital Spacing lookup 0 subtable" dx=5 dy=0 dh=10 dv=0
EndChar

StartChar: uni1ED2
Encoding: 7890 7890 185
Width: 678
GlyphClass: 2
Flags: W
AnchorPoint: "Anchor-18" 0 0 basechar 0
AnchorPoint: "Anchor-17" 499 828 basechar 0
AnchorPoint: "Anchor-16" 426 942 basechar 0
AnchorPoint: "Anchor-15" 436 0 basechar 0
AnchorPoint: "Anchor-14" 0 0 basechar 0
LayerCount: 2
Fore
SplineSet
215 1135 m 1,0,-1
 327 947 l 1,1,-1
 249 887 l 1,2,-1
 101 1043 l 1,3,-1
 215 1135 l 1,0,-1
266 724 m 1,4,-1
 207 801 l 1,5,-1
 369 942 l 1,6,-1
 485 942 l 1,7,-1
 607 801 l 1,8,-1
 534 724 l 1,9,-1
 412 811 l 1,10,-1
 266 724 l 1,4,-1
605 640.5 m 128,-1,12
 676 565 676 565 676 429 c 0,13,14
 676 322 676 322 640 220 c 128,-1,15
 604 118 604 118 520 49 c 128,-1,16
 436 -20 436 -20 301 -20 c 0,17,18
 168 -20 168 -20 96.5 56 c 128,-1,19
 25 132 25 132 25 268 c 0,20,21
 25 375 25 375 61 477 c 128,-1,22
 97 579 97 579 181.5 647.5 c 128,-1,23
 266 716 266 716 400 716 c 256,24,11
 534 716 534 716 605 640.5 c 128,-1,12
291.5 515 m 128,-1,26
 258 460 258 460 245.5 387.5 c 128,-1,27
 233 315 233 315 233 251 c 0,28,29
 233 184 233 184 253.5 155 c 128,-1,30
 274 126 274 126 317 126 c 0,31,32
 376 126 376 126 409.5 180.5 c 128,-1,33
 443 235 443 235 455.5 308 c 128,-1,34
 468 381 468 381 468 447 c 256,35,36
 468 513 468 513 447.5 541.5 c 128,-1,37
 427 570 427 570 384 570 c 0,38,25
 325 570 325 570 291.5 515 c 128,-1,26
EndSplineSet
Substitution2: "'c2sc' Capitals to Small Capitals lookup 27 subtable" uni1ED3.sc
Substitution2: "'aalt' Access All Alternates lookup 0 subtable" uni1ED3.sc
Position2: "'cpsp' Capital Spacing lookup 0 subtable" dx=5 dy=0 dh=10 dv=0
EndChar

StartChar: uni1ED4
Encoding: 7892 7892 186
Width: 678
GlyphClass: 2
Flags: W
AnchorPoint: "Anchor-18" 0 0 basechar 0
AnchorPoint: "Anchor-17" 497 828 basechar 0
AnchorPoint: "Anchor-16" 628 1124 basechar 0
AnchorPoint: "Anchor-15" 436 0 basechar 0
AnchorPoint: "Anchor-14" 0 0 basechar 0
LayerCount: 2
Fore
SplineSet
715.5 1095.5 m 128,-1,1
 748 1067 748 1067 748 1022 c 0,2,3
 748 979 748 979 721.5 953 c 128,-1,4
 695 927 695 927 648 918 c 1,5,-1
 644 879 l 1,6,-1
 538 879 l 1,7,-1
 605 801 l 1,8,-1
 532 724 l 1,9,-1
 410 811 l 1,10,-1
 264 724 l 1,11,-1
 205 801 l 1,12,-1
 367 942 l 1,13,-1
 483 942 l 1,14,-1
 537 880 l 1,15,-1
 547 972 l 1,16,17
 586 973 586 973 604.5 982.5 c 128,-1,18
 623 992 623 992 623 1011 c 0,19,20
 623 1035 623 1035 589 1035 c 0,21,22
 563 1035 563 1035 529 1022 c 1,23,-1
 509 1097 l 1,24,25
 560 1124 560 1124 621 1124 c 0,26,0
 683 1124 683 1124 715.5 1095.5 c 128,-1,1
605 640.5 m 128,-1,28
 676 565 676 565 676 429 c 0,29,30
 676 322 676 322 640 220 c 128,-1,31
 604 118 604 118 520 49 c 128,-1,32
 436 -20 436 -20 301 -20 c 0,33,34
 168 -20 168 -20 96.5 56 c 128,-1,35
 25 132 25 132 25 268 c 0,36,37
 25 375 25 375 61 477 c 128,-1,38
 97 579 97 579 181.5 647.5 c 128,-1,39
 266 716 266 716 400 716 c 256,40,27
 534 716 534 716 605 640.5 c 128,-1,28
409.5 180.5 m 128,-1,42
 443 235 443 235 455.5 308 c 128,-1,43
 468 381 468 381 468 447 c 256,44,45
 468 513 468 513 447.5 541.5 c 128,-1,46
 427 570 427 570 384 570 c 0,47,48
 325 570 325 570 291.5 515 c 128,-1,49
 258 460 258 460 245.5 387.5 c 128,-1,50
 233 315 233 315 233 251 c 0,51,52
 233 184 233 184 253.5 155 c 128,-1,53
 274 126 274 126 317 126 c 0,54,41
 376 126 376 126 409.5 180.5 c 128,-1,42
EndSplineSet
Substitution2: "'c2sc' Capitals to Small Capitals lookup 27 subtable" uni1ED5.sc
Substitution2: "'aalt' Access All Alternates lookup 0 subtable" uni1ED5.sc
Position2: "'cpsp' Capital Spacing lookup 0 subtable" dx=5 dy=0 dh=10 dv=0
EndChar

StartChar: uni1ED6
Encoding: 7894 7894 187
Width: 678
GlyphClass: 2
Flags: W
AnchorPoint: "Anchor-18" 0 0 basechar 0
AnchorPoint: "Anchor-17" 495 828 basechar 0
AnchorPoint: "Anchor-16" 441 1132 basechar 0
AnchorPoint: "Anchor-15" 436 0 basechar 0
AnchorPoint: "Anchor-14" 0 0 basechar 0
LayerCount: 2
Fore
SplineSet
456 973 m 128,-1,1
 443 978 443 978 421 990 c 0,2,3
 396 1006 396 1006 381 1006 c 0,4,5
 364 1006 364 1006 351.5 996.5 c 128,-1,6
 339 987 339 987 323 967 c 1,7,-1
 239 1009 l 1,8,9
 268 1063 268 1063 307 1097 c 128,-1,10
 346 1131 346 1131 391 1131 c 0,11,12
 413 1131 413 1131 429 1124.5 c 128,-1,13
 445 1118 445 1118 462 1107 c 0,14,15
 471 1101 471 1101 480 1096.5 c 128,-1,16
 489 1092 489 1092 497 1092 c 0,17,18
 514 1092 514 1092 526 1101 c 128,-1,19
 538 1110 538 1110 555 1132 c 1,20,-1
 638 1089 l 1,21,22
 611 1036 611 1036 570.5 1002 c 128,-1,23
 530 968 530 968 486 968 c 0,24,0
 469 968 469 968 456 973 c 128,-1,1
262 724 m 1,25,-1
 203 801 l 1,26,-1
 365 942 l 1,27,-1
 481 942 l 1,28,-1
 603 801 l 1,29,-1
 530 724 l 1,30,-1
 408 811 l 1,31,-1
 262 724 l 1,25,-1
605 640.5 m 128,-1,33
 676 565 676 565 676 429 c 0,34,35
 676 322 676 322 640 220 c 128,-1,36
 604 118 604 118 520 49 c 128,-1,37
 436 -20 436 -20 301 -20 c 0,38,39
 168 -20 168 -20 96.5 56 c 128,-1,40
 25 132 25 132 25 268 c 0,41,42
 25 375 25 375 61 477 c 128,-1,43
 97 579 97 579 181.5 647.5 c 128,-1,44
 266 716 266 716 400 716 c 256,45,32
 534 716 534 716 605 640.5 c 128,-1,33
291.5 515 m 128,-1,47
 258 460 258 460 245.5 387.5 c 128,-1,48
 233 315 233 315 233 251 c 0,49,50
 233 184 233 184 253.5 155 c 128,-1,51
 274 126 274 126 317 126 c 0,52,53
 376 126 376 126 409.5 180.5 c 128,-1,54
 443 235 443 235 455.5 308 c 128,-1,55
 468 381 468 381 468 447 c 256,56,57
 468 513 468 513 447.5 541.5 c 128,-1,58
 427 570 427 570 384 570 c 0,59,46
 325 570 325 570 291.5 515 c 128,-1,47
EndSplineSet
Substitution2: "'c2sc' Capitals to Small Capitals lookup 27 subtable" uni1ED7.sc
Substitution2: "'aalt' Access All Alternates lookup 0 subtable" uni1ED7.sc
Position2: "'cpsp' Capital Spacing lookup 0 subtable" dx=5 dy=0 dh=10 dv=0
EndChar

StartChar: Ohorn
Encoding: 416 416 196
Width: 712
GlyphClass: 2
Flags: W
AnchorPoint: "Anchor-18" 0 0 basechar 0
AnchorPoint: "Anchor-17" 695 696 basechar 0
AnchorPoint: "Anchor-16" 399 696 basechar 0
AnchorPoint: "Anchor-15" 436 0 basechar 0
AnchorPoint: "Anchor-14" 303 0 basechar 0
LayerCount: 2
Fore
SplineSet
757.5 599.5 m 128,-1,1
 723 558 723 558 659 547 c 1,2,3
 676 493 676 493 676 429 c 0,4,5
 676 322 676 322 640 220 c 128,-1,6
 604 118 604 118 520 49 c 128,-1,7
 436 -20 436 -20 301 -20 c 0,8,9
 168 -20 168 -20 96.5 56 c 128,-1,10
 25 132 25 132 25 268 c 0,11,12
 25 375 25 375 61 477 c 128,-1,13
 97 579 97 579 181.5 647.5 c 128,-1,14
 266 716 266 716 400 716 c 0,15,16
 540 716 540 716 612 633 c 1,17,18
 641 636 641 636 654.5 654.5 c 128,-1,19
 668 673 668 673 668 708 c 0,20,21
 668 736 668 736 663 759 c 1,22,-1
 784 772 l 1,23,24
 792 744 792 744 792 712 c 0,25,0
 792 641 792 641 757.5 599.5 c 128,-1,1
409.5 180.5 m 128,-1,27
 443 235 443 235 455.5 308 c 128,-1,28
 468 381 468 381 468 447 c 256,29,30
 468 513 468 513 447.5 541.5 c 128,-1,31
 427 570 427 570 384 570 c 0,32,33
 325 570 325 570 291.5 515 c 128,-1,34
 258 460 258 460 245.5 387.5 c 128,-1,35
 233 315 233 315 233 251 c 0,36,37
 233 184 233 184 253.5 155 c 128,-1,38
 274 126 274 126 317 126 c 0,39,26
 376 126 376 126 409.5 180.5 c 128,-1,27
EndSplineSet
Substitution2: "'c2sc' Capitals to Small Capitals lookup 27 subtable" ohorn.sc
Substitution2: "'aalt' Access All Alternates lookup 0 subtable" ohorn.sc
Position2: "'cpsp' Capital Spacing lookup 0 subtable" dx=5 dy=0 dh=10 dv=0
EndChar

StartChar: uni1EDA
Encoding: 7898 7898 197
Width: 712
GlyphClass: 2
Flags: W
AnchorPoint: "Anchor-18" 0 0 basechar 0
AnchorPoint: "Anchor-17" 695 696 basechar 0
AnchorPoint: "Anchor-16" 425 985 basechar 0
AnchorPoint: "Anchor-15" 436 0 basechar 0
AnchorPoint: "Anchor-14" 303 0 basechar 0
LayerCount: 2
Fore
SplineSet
585 831 m 1,0,-1
 325 742 l 1,1,-1
 283 838 l 1,2,-1
 525 975 l 1,3,-1
 585 831 l 1,0,-1
757.5 599.5 m 128,-1,5
 723 558 723 558 659 547 c 1,6,7
 676 493 676 493 676 429 c 0,8,9
 676 322 676 322 640 220 c 128,-1,10
 604 118 604 118 520 49 c 128,-1,11
 436 -20 436 -20 301 -20 c 0,12,13
 168 -20 168 -20 96.5 56 c 128,-1,14
 25 132 25 132 25 268 c 0,15,16
 25 375 25 375 61 477 c 128,-1,17
 97 579 97 579 181.5 647.5 c 128,-1,18
 266 716 266 716 400 716 c 0,19,20
 540 716 540 716 612 633 c 1,21,22
 641 636 641 636 654.5 654.5 c 128,-1,23
 668 673 668 673 668 708 c 0,24,25
 668 736 668 736 663 759 c 1,26,-1
 784 772 l 1,27,28
 792 744 792 744 792 712 c 0,29,4
 792 641 792 641 757.5 599.5 c 128,-1,5
409.5 180.5 m 128,-1,31
 443 235 443 235 455.5 308 c 128,-1,32
 468 381 468 381 468 447 c 256,33,34
 468 513 468 513 447.5 541.5 c 128,-1,35
 427 570 427 570 384 570 c 0,36,37
 325 570 325 570 291.5 515 c 128,-1,38
 258 460 258 460 245.5 387.5 c 128,-1,39
 233 315 233 315 233 251 c 0,40,41
 233 184 233 184 253.5 155 c 128,-1,42
 274 126 274 126 317 126 c 0,43,30
 376 126 376 126 409.5 180.5 c 128,-1,31
EndSplineSet
Substitution2: "'c2sc' Capitals to Small Capitals lookup 27 subtable" uni1EDB.sc
Substitution2: "'aalt' Access All Alternates lookup 0 subtable" uni1EDB.sc
Position2: "'cpsp' Capital Spacing lookup 0 subtable" dx=5 dy=0 dh=10 dv=0
EndChar

StartChar: uni1EE2
Encoding: 7906 7906 198
Width: 712
GlyphClass: 2
Flags: W
AnchorPoint: "Anchor-18" 0 0 basechar 0
AnchorPoint: "Anchor-17" 695 696 basechar 0
AnchorPoint: "Anchor-16" 399 696 basechar 0
AnchorPoint: "Anchor-15" 436 0 basechar 0
AnchorPoint: "Anchor-14" 270 -264 basechar 0
LayerCount: 2
Fore
SplineSet
757.5 599.5 m 128,-1,1
 723 558 723 558 659 547 c 1,2,3
 676 493 676 493 676 429 c 0,4,5
 676 322 676 322 640 220 c 128,-1,6
 604 118 604 118 520 49 c 128,-1,7
 436 -20 436 -20 301 -20 c 0,8,9
 168 -20 168 -20 96.5 56 c 128,-1,10
 25 132 25 132 25 268 c 0,11,12
 25 375 25 375 61 477 c 128,-1,13
 97 579 97 579 181.5 647.5 c 128,-1,14
 266 716 266 716 400 716 c 0,15,16
 540 716 540 716 612 633 c 1,17,18
 641 636 641 636 654.5 654.5 c 128,-1,19
 668 673 668 673 668 708 c 0,20,21
 668 736 668 736 663 759 c 1,22,-1
 784 772 l 1,23,24
 792 744 792 744 792 712 c 0,25,0
 792 641 792 641 757.5 599.5 c 128,-1,1
409.5 180.5 m 128,-1,27
 443 235 443 235 455.5 308 c 128,-1,28
 468 381 468 381 468 447 c 256,29,30
 468 513 468 513 447.5 541.5 c 128,-1,31
 427 570 427 570 384 570 c 0,32,33
 325 570 325 570 291.5 515 c 128,-1,34
 258 460 258 460 245.5 387.5 c 128,-1,35
 233 315 233 315 233 251 c 0,36,37
 233 184 233 184 253.5 155 c 128,-1,38
 274 126 274 126 317 126 c 0,39,26
 376 126 376 126 409.5 180.5 c 128,-1,27
362.5 -78 m 128,-1,41
 389 -104 389 -104 389 -145 c 0,42,43
 389 -196 389 -196 353.5 -230 c 128,-1,44
 318 -264 318 -264 266 -264 c 0,45,46
 222 -264 222 -264 195.5 -238 c 128,-1,47
 169 -212 169 -212 169 -171 c 0,48,49
 169 -120 169 -120 204.5 -86 c 128,-1,50
 240 -52 240 -52 292 -52 c 0,51,40
 336 -52 336 -52 362.5 -78 c 128,-1,41
EndSplineSet
Substitution2: "'c2sc' Capitals to Small Capitals lookup 27 subtable" uni1EE3.sc
Substitution2: "'aalt' Access All Alternates lookup 0 subtable" uni1EE3.sc
Position2: "'cpsp' Capital Spacing lookup 0 subtable" dx=5 dy=0 dh=10 dv=0
EndChar

StartChar: uni1EDC
Encoding: 7900 7900 199
Width: 712
GlyphClass: 2
Flags: W
AnchorPoint: "Anchor-18" 0 0 basechar 0
AnchorPoint: "Anchor-17" 695 696 basechar 0
AnchorPoint: "Anchor-16" 425 986 basechar 0
AnchorPoint: "Anchor-15" 436 0 basechar 0
AnchorPoint: "Anchor-14" 303 0 basechar 0
LayerCount: 2
Fore
SplineSet
571 838 m 1,0,-1
 522 744 l 1,1,-1
 283 830 l 1,2,-1
 363 974 l 1,3,-1
 571 838 l 1,0,-1
757.5 599.5 m 128,-1,5
 723 558 723 558 659 547 c 1,6,7
 676 493 676 493 676 429 c 0,8,9
 676 322 676 322 640 220 c 128,-1,10
 604 118 604 118 520 49 c 128,-1,11
 436 -20 436 -20 301 -20 c 0,12,13
 168 -20 168 -20 96.5 56 c 128,-1,14
 25 132 25 132 25 268 c 0,15,16
 25 375 25 375 61 477 c 128,-1,17
 97 579 97 579 181.5 647.5 c 128,-1,18
 266 716 266 716 400 716 c 0,19,20
 540 716 540 716 612 633 c 1,21,22
 641 636 641 636 654.5 654.5 c 128,-1,23
 668 673 668 673 668 708 c 0,24,25
 668 736 668 736 663 759 c 1,26,-1
 784 772 l 1,27,28
 792 744 792 744 792 712 c 0,29,4
 792 641 792 641 757.5 599.5 c 128,-1,5
409.5 180.5 m 128,-1,31
 443 235 443 235 455.5 308 c 128,-1,32
 468 381 468 381 468 447 c 256,33,34
 468 513 468 513 447.5 541.5 c 128,-1,35
 427 570 427 570 384 570 c 0,36,37
 325 570 325 570 291.5 515 c 128,-1,38
 258 460 258 460 245.5 387.5 c 128,-1,39
 233 315 233 315 233 251 c 0,40,41
 233 184 233 184 253.5 155 c 128,-1,42
 274 126 274 126 317 126 c 0,43,30
 376 126 376 126 409.5 180.5 c 128,-1,31
EndSplineSet
Substitution2: "'c2sc' Capitals to Small Capitals lookup 27 subtable" uni1EDD.sc
Substitution2: "'aalt' Access All Alternates lookup 0 subtable" uni1EDD.sc
Position2: "'cpsp' Capital Spacing lookup 0 subtable" dx=5 dy=0 dh=10 dv=0
EndChar

StartChar: uni1EDE
Encoding: 7902 7902 200
Width: 712
GlyphClass: 2
Flags: W
AnchorPoint: "Anchor-18" 0 0 basechar 0
AnchorPoint: "Anchor-17" 695 696 basechar 0
AnchorPoint: "Anchor-16" 447 1009 basechar 0
AnchorPoint: "Anchor-15" 436 0 basechar 0
AnchorPoint: "Anchor-14" 303 0 basechar 0
LayerCount: 2
Fore
SplineSet
348 907 m 1,1,-1
 328 982 l 1,2,3
 379 1009 379 1009 440 1009 c 0,4,5
 502 1009 502 1009 534.5 980.5 c 128,-1,6
 567 952 567 952 567 907 c 0,7,8
 567 864 567 864 540.5 838 c 128,-1,9
 514 812 514 812 467 803 c 1,10,-1
 463 764 l 1,11,-1
 356 764 l 1,12,-1
 366 857 l 1,13,14
 405 858 405 858 423.5 867.5 c 128,-1,15
 442 877 442 877 442 896 c 0,16,17
 442 920 442 920 408 920 c 0,18,0
 382 920 382 920 348 907 c 1,1,-1
757.5 599.5 m 128,-1,20
 723 558 723 558 659 547 c 1,21,22
 676 493 676 493 676 429 c 0,23,24
 676 322 676 322 640 220 c 128,-1,25
 604 118 604 118 520 49 c 128,-1,26
 436 -20 436 -20 301 -20 c 0,27,28
 168 -20 168 -20 96.5 56 c 128,-1,29
 25 132 25 132 25 268 c 0,30,31
 25 375 25 375 61 477 c 128,-1,32
 97 579 97 579 181.5 647.5 c 128,-1,33
 266 716 266 716 400 716 c 0,34,35
 540 716 540 716 612 633 c 1,36,37
 641 636 641 636 654.5 654.5 c 128,-1,38
 668 673 668 673 668 708 c 0,39,40
 668 736 668 736 663 759 c 1,41,-1
 784 772 l 1,42,43
 792 744 792 744 792 712 c 0,44,19
 792 641 792 641 757.5 599.5 c 128,-1,20
409.5 180.5 m 128,-1,46
 443 235 443 235 455.5 308 c 128,-1,47
 468 381 468 381 468 447 c 256,48,49
 468 513 468 513 447.5 541.5 c 128,-1,50
 427 570 427 570 384 570 c 0,51,52
 325 570 325 570 291.5 515 c 128,-1,53
 258 460 258 460 245.5 387.5 c 128,-1,54
 233 315 233 315 233 251 c 0,55,56
 233 184 233 184 253.5 155 c 128,-1,57
 274 126 274 126 317 126 c 0,58,45
 376 126 376 126 409.5 180.5 c 128,-1,46
EndSplineSet
Substitution2: "'c2sc' Capitals to Small Capitals lookup 27 subtable" uni1EDF.sc
Substitution2: "'aalt' Access All Alternates lookup 0 subtable" uni1EDF.sc
Position2: "'cpsp' Capital Spacing lookup 0 subtable" dx=5 dy=0 dh=10 dv=0
EndChar

StartChar: uni1EE0
Encoding: 7904 7904 201
Width: 712
GlyphClass: 2
Flags: W
AnchorPoint: "Anchor-18" 0 0 basechar 0
AnchorPoint: "Anchor-17" 695 696 basechar 0
AnchorPoint: "Anchor-16" 422 930 basechar 0
AnchorPoint: "Anchor-15" 436 0 basechar 0
AnchorPoint: "Anchor-14" 303 0 basechar 0
LayerCount: 2
Fore
SplineSet
330.5 780.5 m 128,-1,1
 318 770 318 770 301 747 c 1,2,-1
 216 794 l 1,3,4
 244 853 244 853 285 891 c 128,-1,5
 326 929 326 929 371 929 c 0,6,7
 393 929 393 929 409 922 c 128,-1,8
 425 915 425 915 443 902 c 0,9,10
 466 886 466 886 479 886 c 0,11,12
 496 886 496 886 508.5 896.5 c 128,-1,13
 521 907 521 907 538 930 c 1,14,-1
 623 883 l 1,15,16
 595 824 595 824 554 786 c 128,-1,17
 513 748 513 748 468 748 c 0,18,19
 440 748 440 748 402 773 c 0,20,21
 388 782 388 782 379 786.5 c 128,-1,22
 370 791 370 791 361 791 c 0,23,0
 343 791 343 791 330.5 780.5 c 128,-1,1
757.5 599.5 m 128,-1,25
 723 558 723 558 659 547 c 1,26,27
 676 493 676 493 676 429 c 0,28,29
 676 322 676 322 640 220 c 128,-1,30
 604 118 604 118 520 49 c 128,-1,31
 436 -20 436 -20 301 -20 c 0,32,33
 168 -20 168 -20 96.5 56 c 128,-1,34
 25 132 25 132 25 268 c 0,35,36
 25 375 25 375 61 477 c 128,-1,37
 97 579 97 579 181.5 647.5 c 128,-1,38
 266 716 266 716 400 716 c 0,39,40
 540 716 540 716 612 633 c 1,41,42
 641 636 641 636 654.5 654.5 c 128,-1,43
 668 673 668 673 668 708 c 0,44,45
 668 736 668 736 663 759 c 1,46,-1
 784 772 l 1,47,48
 792 744 792 744 792 712 c 0,49,24
 792 641 792 641 757.5 599.5 c 128,-1,25
409.5 180.5 m 128,-1,51
 443 235 443 235 455.5 308 c 128,-1,52
 468 381 468 381 468 447 c 256,53,54
 468 513 468 513 447.5 541.5 c 128,-1,55
 427 570 427 570 384 570 c 0,56,57
 325 570 325 570 291.5 515 c 128,-1,58
 258 460 258 460 245.5 387.5 c 128,-1,59
 233 315 233 315 233 251 c 0,60,61
 233 184 233 184 253.5 155 c 128,-1,62
 274 126 274 126 317 126 c 0,63,50
 376 126 376 126 409.5 180.5 c 128,-1,51
EndSplineSet
Substitution2: "'c2sc' Capitals to Small Capitals lookup 27 subtable" uni1EE1.sc
Substitution2: "'aalt' Access All Alternates lookup 0 subtable" uni1EE1.sc
Position2: "'cpsp' Capital Spacing lookup 0 subtable" dx=5 dy=0 dh=10 dv=0
EndChar

StartChar: uni01A2
Encoding: 418 418 203
Width: 963
GlyphClass: 2
Flags: W
AnchorPoint: "Anchor-18" 0 0 basechar 0
AnchorPoint: "Anchor-17" 0 0 basechar 0
AnchorPoint: "Anchor-16" 541 696 basechar 0
AnchorPoint: "Anchor-15" 0 0 basechar 0
AnchorPoint: "Anchor-14" 0 0 basechar 0
LayerCount: 2
Fore
SplineSet
904 672.5 m 128,-1,1
 956 629 956 629 956 546 c 0,2,3
 956 527 956 527 953 504 c 2,4,-1
 852 -215 l 1,5,-1
 650 -215 l 1,6,-1
 753 514 l 2,7,8
 754 520 754 520 754 531 c 0,9,10
 754 576 754 576 712 576 c 0,11,12
 683 576 683 576 652 562 c 1,13,14
 676 505 676 505 676 429 c 0,15,16
 676 322 676 322 640 220 c 128,-1,17
 604 118 604 118 520 49 c 128,-1,18
 436 -20 436 -20 301 -20 c 0,19,20
 168 -20 168 -20 96.5 56 c 128,-1,21
 25 132 25 132 25 268 c 0,22,23
 25 375 25 375 61 477 c 128,-1,24
 97 579 97 579 181.5 647.5 c 128,-1,25
 266 716 266 716 400 716 c 0,26,27
 506 716 506 716 576 663 c 1,28,29
 653 716 653 716 758 716 c 0,30,0
 852 716 852 716 904 672.5 c 128,-1,1
409.5 180.5 m 128,-1,32
 443 235 443 235 455.5 308 c 128,-1,33
 468 381 468 381 468 447 c 256,34,35
 468 513 468 513 447.5 541.5 c 128,-1,36
 427 570 427 570 384 570 c 0,37,38
 325 570 325 570 291.5 515 c 128,-1,39
 258 460 258 460 245.5 387.5 c 128,-1,40
 233 315 233 315 233 251 c 0,41,42
 233 184 233 184 253.5 155 c 128,-1,43
 274 126 274 126 317 126 c 0,44,31
 376 126 376 126 409.5 180.5 c 128,-1,32
EndSplineSet
Substitution2: "'c2sc' Capitals to Small Capitals lookup 27 subtable" uni01A3.sc
Substitution2: "'aalt' Access All Alternates lookup 0 subtable" uni01A3.sc
Position2: "'cpsp' Capital Spacing lookup 0 subtable" dx=5 dy=0 dh=10 dv=0
EndChar

StartChar: uniA7B6
Encoding: 42934 42934 208
Width: 893
GlyphClass: 2
Flags: W
AnchorPoint: "Anchor-18" 0 0 basechar 0
AnchorPoint: "Anchor-17" 0 0 basechar 0
AnchorPoint: "Anchor-16" 506 696 basechar 0
AnchorPoint: "Anchor-15" 0 0 basechar 0
AnchorPoint: "Anchor-14" 408 0 basechar 0
LayerCount: 2
Fore
SplineSet
84 36 m 128,-1,1
 34 92 34 92 34 208 c 0,2,3
 34 330 34 330 71 454 c 128,-1,4
 108 578 108 578 174 696 c 1,5,-1
 359 696 l 1,6,7
 300 550 300 550 268 435.5 c 128,-1,8
 236 321 236 321 236 206 c 0,9,10
 236 163 236 163 246 144.5 c 128,-1,11
 256 126 256 126 279 126 c 0,12,13
 329 126 329 126 340 201 c 2,14,-1
 368 399 l 1,15,-1
 567 399 l 1,16,-1
 539 199 l 2,17,18
 536 180 536 180 536 165 c 0,19,20
 536 144 536 144 543.5 135 c 128,-1,21
 551 126 551 126 569 126 c 0,22,23
 606 126 606 126 629 180.5 c 128,-1,24
 652 235 652 235 662 312.5 c 128,-1,25
 672 390 672 390 672 462 c 0,26,27
 672 522 672 522 665 571.5 c 128,-1,28
 658 621 658 621 643 696 c 1,29,-1
 837 696 l 1,30,31
 854 637 854 637 863.5 582 c 128,-1,32
 873 527 873 527 873 459 c 0,33,34
 873 246 873 246 806 113 c 128,-1,35
 739 -20 739 -20 587 -20 c 0,36,37
 443 -20 443 -20 425 109 c 1,38,39
 399 42 399 42 349.5 11 c 128,-1,40
 300 -20 300 -20 239 -20 c 0,41,0
 134 -20 134 -20 84 36 c 128,-1,1
EndSplineSet
Substitution2: "'c2sc' Capitals to Small Capitals lookup 27 subtable" uniA7B6.sc
Substitution2: "'aalt' Access All Alternates lookup 0 subtable" uniA7B6.sc
Position2: "'cpsp' Capital Spacing lookup 0 subtable" dx=5 dy=0 dh=10 dv=0
EndChar

StartChar: uni01EA
Encoding: 490 490 209
Width: 678
GlyphClass: 2
Flags: W
AnchorPoint: "Anchor-18" 0 0 basechar 0
AnchorPoint: "Anchor-17" 644 696 basechar 0
AnchorPoint: "Anchor-16" 399 696 basechar 0
AnchorPoint: "Anchor-15" 436 0 basechar 0
AnchorPoint: "Anchor-14" 303 0 basechar 0
LayerCount: 2
Fore
SplineSet
324 -55.5 m 128,-1,1
 299 -83 299 -83 299 -106 c 0,2,3
 299 -139 299 -139 342 -139 c 0,4,5
 369 -139 369 -139 404 -131 c 1,6,-1
 378 -246 l 1,7,8
 343 -254 343 -254 305 -254 c 0,9,10
 242 -254 242 -254 202 -224.5 c 128,-1,11
 162 -195 162 -195 162 -143 c 0,12,13
 162 -67 162 -67 232 -14 c 1,14,15
 131 5 131 5 78 78 c 128,-1,16
 25 151 25 151 25 268 c 0,17,18
 25 375 25 375 61 477 c 128,-1,19
 97 579 97 579 181.5 647.5 c 128,-1,20
 266 716 266 716 400 716 c 256,21,22
 534 716 534 716 605 640.5 c 128,-1,23
 676 565 676 565 676 429 c 0,24,25
 676 340 676 340 650.5 251.5 c 128,-1,26
 625 163 625 163 566.5 93 c 128,-1,27
 508 23 508 23 415 -5 c 0,28,0
 349 -28 349 -28 324 -55.5 c 128,-1,1
291.5 515 m 128,-1,30
 258 460 258 460 245.5 387.5 c 128,-1,31
 233 315 233 315 233 251 c 0,32,33
 233 184 233 184 253.5 155 c 128,-1,34
 274 126 274 126 317 126 c 0,35,36
 376 126 376 126 409.5 180.5 c 128,-1,37
 443 235 443 235 455.5 308 c 128,-1,38
 468 381 468 381 468 447 c 256,39,40
 468 513 468 513 447.5 541.5 c 128,-1,41
 427 570 427 570 384 570 c 0,42,29
 325 570 325 570 291.5 515 c 128,-1,30
EndSplineSet
Substitution2: "'c2sc' Capitals to Small Capitals lookup 27 subtable" uni01EB.sc
Substitution2: "'aalt' Access All Alternates lookup 0 subtable" uni01EB.sc
Position2: "'cpsp' Capital Spacing lookup 0 subtable" dx=5 dy=0 dh=10 dv=0
EndChar

StartChar: uni01EC
Encoding: 492 492 210
Width: 678
GlyphClass: 2
Flags: W
AnchorPoint: "Anchor-18" 0 0 basechar 0
AnchorPoint: "Anchor-17" 644 696 basechar 0
AnchorPoint: "Anchor-16" 421 908 basechar 0
AnchorPoint: "Anchor-15" 436 0 basechar 0
AnchorPoint: "Anchor-14" 303 0 basechar 0
LayerCount: 2
Fore
SplineSet
588 908 m 1,0,-1
 569 774 l 1,1,-1
 250 774 l 1,2,-1
 269 908 l 1,3,-1
 588 908 l 1,0,-1
324 -55.5 m 128,-1,5
 299 -83 299 -83 299 -106 c 0,6,7
 299 -139 299 -139 342 -139 c 0,8,9
 369 -139 369 -139 404 -131 c 1,10,-1
 378 -246 l 1,11,12
 343 -254 343 -254 305 -254 c 0,13,14
 242 -254 242 -254 202 -224.5 c 128,-1,15
 162 -195 162 -195 162 -143 c 0,16,17
 162 -67 162 -67 232 -14 c 1,18,19
 131 5 131 5 78 78 c 128,-1,20
 25 151 25 151 25 268 c 0,21,22
 25 375 25 375 61 477 c 128,-1,23
 97 579 97 579 181.5 647.5 c 128,-1,24
 266 716 266 716 400 716 c 256,25,26
 534 716 534 716 605 640.5 c 128,-1,27
 676 565 676 565 676 429 c 0,28,29
 676 340 676 340 650.5 251.5 c 128,-1,30
 625 163 625 163 566.5 93 c 128,-1,31
 508 23 508 23 415 -5 c 0,32,4
 349 -28 349 -28 324 -55.5 c 128,-1,5
291.5 515 m 128,-1,34
 258 460 258 460 245.5 387.5 c 128,-1,35
 233 315 233 315 233 251 c 0,36,37
 233 184 233 184 253.5 155 c 128,-1,38
 274 126 274 126 317 126 c 0,39,40
 376 126 376 126 409.5 180.5 c 128,-1,41
 443 235 443 235 455.5 308 c 128,-1,42
 468 381 468 381 468 447 c 256,43,44
 468 513 468 513 447.5 541.5 c 128,-1,45
 427 570 427 570 384 570 c 0,46,33
 325 570 325 570 291.5 515 c 128,-1,34
EndSplineSet
Substitution2: "'c2sc' Capitals to Small Capitals lookup 27 subtable" uni01ED.sc
Substitution2: "'aalt' Access All Alternates lookup 0 subtable" uni01ED.sc
Position2: "'cpsp' Capital Spacing lookup 0 subtable" dx=5 dy=0 dh=10 dv=0
EndChar

StartChar: uni0186
Encoding: 390 390 211
Width: 571
GlyphClass: 2
Flags: W
AnchorPoint: "Anchor-18" 0 0 basechar 0
AnchorPoint: "Anchor-17" 0 0 basechar 0
AnchorPoint: "Anchor-16" 305 696 basechar 0
AnchorPoint: "Anchor-15" 0 0 basechar 0
AnchorPoint: "Anchor-14" 207 0 basechar 0
LayerCount: 2
Fore
SplineSet
495 639 m 128,-1,1
 568 562 568 562 568 424 c 0,2,3
 568 300 568 300 522.5 199 c 128,-1,4
 477 98 477 98 391 39 c 128,-1,5
 305 -20 305 -20 189 -20 c 0,6,7
 119 -20 119 -20 64 7.5 c 128,-1,8
 9 35 9 35 -28 78 c 1,9,-1
 73 191 l 1,10,11
 104 163 104 163 132 149 c 128,-1,12
 160 135 160 135 196 135 c 0,13,14
 252 135 252 135 288.5 177.5 c 128,-1,15
 325 220 325 220 342 287 c 128,-1,16
 359 354 359 354 359 429 c 0,17,18
 359 501 359 501 336 534.5 c 128,-1,19
 313 568 313 568 267 568 c 0,20,21
 233 568 233 568 202 555 c 128,-1,22
 171 542 171 542 138 518 c 1,23,-1
 56 635 l 1,24,25
 108 675 108 675 166.5 695.5 c 128,-1,26
 225 716 225 716 295 716 c 0,27,0
 422 716 422 716 495 639 c 128,-1,1
EndSplineSet
Substitution2: "'c2sc' Capitals to Small Capitals lookup 27 subtable" uni0254.sc
Substitution2: "'aalt' Access All Alternates lookup 0 subtable" uni0254.sc
Position2: "'cpsp' Capital Spacing lookup 0 subtable" dx=5 dy=0 dh=10 dv=0
EndChar

StartChar: Oslash
Encoding: 216 216 212
Width: 678
GlyphClass: 2
Flags: W
AnchorPoint: "Anchor-18" 0 0 basechar 0
AnchorPoint: "Anchor-17" 0 0 basechar 0
AnchorPoint: "Anchor-16" 404 741 basechar 0
AnchorPoint: "Anchor-15" 0 0 basechar 0
AnchorPoint: "Anchor-14" 301 0 basechar 0
LayerCount: 2
Fore
SplineSet
651 569 m 128,-1,1
 676 509 676 509 676 429 c 0,2,3
 676 322 676 322 640 220 c 128,-1,4
 604 118 604 118 520 49 c 128,-1,5
 436 -20 436 -20 301 -20 c 0,6,7
 287 -20 287 -20 261 -18 c 1,8,-1
 208 -139 l 1,9,-1
 65 -99 l 1,10,-1
 124 31 l 1,11,12
 75 68 75 68 50 128 c 128,-1,13
 25 188 25 188 25 268 c 0,14,15
 25 375 25 375 61 477 c 128,-1,16
 97 579 97 579 181.5 647.5 c 128,-1,17
 266 716 266 716 400 716 c 0,18,19
 414 716 414 716 438 714 c 1,20,-1
 493 833 l 1,21,-1
 635 793 l 1,22,-1
 577 666 l 1,23,0
 626 629 626 629 651 569 c 128,-1,1
290 514.5 m 128,-1,25
 255 459 255 459 241.5 385 c 128,-1,26
 228 311 228 311 228 246 c 0,27,28
 228 207 228 207 232 187 c 1,29,-1
 398 570 l 1,30,-1
 384 570 l 2,31,24
 325 570 325 570 290 514.5 c 128,-1,25
410.5 181 m 128,-1,33
 445 236 445 236 458.5 310.5 c 128,-1,34
 472 385 472 385 472 452 c 0,35,36
 472 484 472 484 469 506 c 1,37,-1
 305 126 l 1,38,-1
 317 126 l 2,39,32
 376 126 376 126 410.5 181 c 128,-1,33
EndSplineSet
Substitution2: "'c2sc' Capitals to Small Capitals lookup 27 subtable" oslash.sc
Substitution2: "'aalt' Access All Alternates lookup 0 subtable" oslash.sc
Position2: "'cpsp' Capital Spacing lookup 0 subtable" dx=5 dy=0 dh=10 dv=0
EndChar

StartChar: uni022C
Encoding: 556 556 216
Width: 678
GlyphClass: 2
Flags: W
AnchorPoint: "Anchor-18" 0 0 basechar 0
AnchorPoint: "Anchor-17" 644 696 basechar 0
AnchorPoint: "Anchor-16" 435 1096 basechar 0
AnchorPoint: "Anchor-15" 436 0 basechar 0
AnchorPoint: "Anchor-14" 303 0 basechar 0
LayerCount: 2
Fore
SplineSet
583 962 m 1,0,-1
 264 962 l 1,1,-1
 283 1096 l 1,2,-1
 602 1096 l 1,3,-1
 583 962 l 1,0,-1
397 779 m 0,5,6
 383 788 383 788 374 792.5 c 128,-1,7
 365 797 365 797 356 797 c 0,8,9
 338 797 338 797 325.5 786.5 c 128,-1,10
 313 776 313 776 296 753 c 1,11,-1
 211 800 l 1,12,13
 239 859 239 859 280 897 c 128,-1,14
 321 935 321 935 366 935 c 0,15,16
 388 935 388 935 404 928 c 128,-1,17
 420 921 420 921 438 908 c 0,18,19
 461 892 461 892 474 892 c 0,20,21
 491 892 491 892 503.5 902.5 c 128,-1,22
 516 913 516 913 533 936 c 1,23,-1
 618 889 l 1,24,25
 590 830 590 830 549 792 c 128,-1,26
 508 754 508 754 463 754 c 0,27,4
 434 754 434 754 397 779 c 0,5,6
605 640.5 m 128,-1,29
 676 565 676 565 676 429 c 0,30,31
 676 322 676 322 640 220 c 128,-1,32
 604 118 604 118 520 49 c 128,-1,33
 436 -20 436 -20 301 -20 c 0,34,35
 168 -20 168 -20 96.5 56 c 128,-1,36
 25 132 25 132 25 268 c 0,37,38
 25 375 25 375 61 477 c 128,-1,39
 97 579 97 579 181.5 647.5 c 128,-1,40
 266 716 266 716 400 716 c 256,41,28
 534 716 534 716 605 640.5 c 128,-1,29
291.5 515 m 128,-1,43
 258 460 258 460 245.5 387.5 c 128,-1,44
 233 315 233 315 233 251 c 0,45,46
 233 184 233 184 253.5 155 c 128,-1,47
 274 126 274 126 317 126 c 0,48,49
 376 126 376 126 409.5 180.5 c 128,-1,50
 443 235 443 235 455.5 308 c 128,-1,51
 468 381 468 381 468 447 c 256,52,53
 468 513 468 513 447.5 541.5 c 128,-1,54
 427 570 427 570 384 570 c 0,55,42
 325 570 325 570 291.5 515 c 128,-1,43
EndSplineSet
Substitution2: "'c2sc' Capitals to Small Capitals lookup 27 subtable" uni022D.sc
Substitution2: "'aalt' Access All Alternates lookup 0 subtable" uni022D.sc
Position2: "'cpsp' Capital Spacing lookup 0 subtable" dx=5 dy=0 dh=10 dv=0
EndChar

StartChar: OE
Encoding: 338 338 217
Width: 890
GlyphClass: 2
Flags: W
AnchorPoint: "Anchor-18" 0 0 basechar 0
AnchorPoint: "Anchor-17" 0 0 basechar 0
AnchorPoint: "Anchor-16" 505 696 basechar 0
AnchorPoint: "Anchor-15" 0 0 basechar 0
AnchorPoint: "Anchor-14" 407 0 basechar 0
LayerCount: 2
Fore
SplineSet
622 553 m 1,0,1
 647 497 647 497 650 423 c 1,2,-1
 845 423 l 1,3,-1
 827 284 l 1,4,-1
 638 284 l 1,5,6
 619 203 619 203 573 144 c 1,7,-1
 851 144 l 1,8,-1
 831 0 l 1,9,-1
 393 0 l 1,10,11
 341 -20 341 -20 283 -20 c 0,12,13
 160 -20 160 -20 92.5 55.5 c 128,-1,14
 25 131 25 131 25 267 c 0,15,16
 25 372 25 372 60.5 474.5 c 128,-1,17
 96 577 96 577 176 646.5 c 128,-1,18
 256 716 256 716 382 716 c 0,19,20
 443 716 443 716 488 696 c 1,21,-1
 932 696 l 1,22,-1
 892 553 l 1,23,-1
 622 553 l 1,0,1
414.5 223.5 m 128,-1,25
 447 321 447 321 447 455 c 0,26,27
 447 515 447 515 428.5 542.5 c 128,-1,28
 410 570 410 570 372 570 c 0,29,30
 295 570 295 570 263.5 474.5 c 128,-1,31
 232 379 232 379 232 244 c 0,32,33
 232 182 232 182 250.5 154 c 128,-1,34
 269 126 269 126 306 126 c 0,35,24
 382 126 382 126 414.5 223.5 c 128,-1,25
EndSplineSet
Substitution2: "'c2sc' Capitals to Small Capitals lookup 27 subtable" oe.sc
Substitution2: "'aalt' Access All Alternates lookup 0 subtable" oe.sc
Position2: "'cpsp' Capital Spacing lookup 0 subtable" dx=5 dy=0 dh=10 dv=0
EndChar

StartChar: P
Encoding: 80 80 218
Width: 600
GlyphClass: 2
Flags: W
AnchorPoint: "Anchor-18" 0 0 basechar 0
AnchorPoint: "Anchor-17" 0 0 basechar 0
AnchorPoint: "Anchor-16" 360 696 basechar 0
AnchorPoint: "Anchor-15" 0 0 basechar 0
AnchorPoint: "Anchor-14" 262 0 basechar 0
LayerCount: 2
Fore
SplineSet
546.5 644.5 m 128,-1,1
 617 593 617 593 617 495 c 0,2,3
 617 427 617 427 585 363.5 c 128,-1,4
 553 300 553 300 483 258.5 c 128,-1,5
 413 217 413 217 306 217 c 2,6,-1
 238 217 l 1,7,-1
 208 0 l 1,8,-1
 6 0 l 1,9,-1
 103 696 l 1,10,-1
 349 696 l 2,11,0
 476 696 476 696 546.5 644.5 c 128,-1,1
385 400 m 128,-1,13
 409 438 409 438 409 483 c 0,14,15
 409 553 409 553 328 553 c 2,16,-1
 285 553 l 1,17,-1
 258 362 l 1,18,-1
 304 362 l 2,19,12
 361 362 361 362 385 400 c 128,-1,13
EndSplineSet
Substitution2: "'c2sc' Capitals to Small Capitals lookup 27 subtable" p.sc
Substitution2: "'aalt' Access All Alternates lookup 0 subtable" p.sc
Position2: "'cpsp' Capital Spacing lookup 0 subtable" dx=5 dy=0 dh=10 dv=0
EndChar

StartChar: uni01A4
Encoding: 420 420 221
Width: 775
GlyphClass: 2
Flags: W
AnchorPoint: "Anchor-18" 0 0 basechar 0
AnchorPoint: "Anchor-17" 0 0 basechar 0
AnchorPoint: "Anchor-16" 535 696 basechar 0
AnchorPoint: "Anchor-15" 0 0 basechar 0
AnchorPoint: "Anchor-14" 437 0 basechar 0
LayerCount: 2
Fore
SplineSet
721.5 644.5 m 128,-1,1
 792 593 792 593 792 495 c 0,2,3
 792 427 792 427 760 363.5 c 128,-1,4
 728 300 728 300 658 258.5 c 128,-1,5
 588 217 588 217 481 217 c 2,6,-1
 413 217 l 1,7,-1
 383 0 l 1,8,-1
 181 0 l 1,9,-1
 258 553 l 1,10,-1
 233 553 l 2,11,12
 210 553 210 553 198 540.5 c 128,-1,13
 186 528 186 528 186 504 c 0,14,15
 186 484 186 484 192 454 c 1,16,-1
 61 404 l 1,17,18
 49 431 49 431 42.5 455 c 128,-1,19
 36 479 36 479 36 507 c 0,20,21
 36 595 36 595 93.5 645.5 c 128,-1,22
 151 696 151 696 246 696 c 2,23,-1
 524 696 l 2,24,0
 651 696 651 696 721.5 644.5 c 128,-1,1
560 400 m 128,-1,26
 584 438 584 438 584 483 c 0,27,28
 584 553 584 553 503 553 c 2,29,-1
 460 553 l 1,30,-1
 433 362 l 1,31,-1
 479 362 l 2,32,25
 536 362 536 362 560 400 c 128,-1,26
EndSplineSet
Substitution2: "'c2sc' Capitals to Small Capitals lookup 27 subtable" uni01A5.sc
Substitution2: "'aalt' Access All Alternates lookup 0 subtable" uni01A5.sc
Position2: "'cpsp' Capital Spacing lookup 0 subtable" dx=5 dy=0 dh=10 dv=0
EndChar

StartChar: Thorn
Encoding: 222 222 222
Width: 600
GlyphClass: 2
Flags: W
AnchorPoint: "Anchor-18" 0 0 basechar 0
AnchorPoint: "Anchor-17" 0 0 basechar 0
AnchorPoint: "Anchor-16" 360 696 basechar 0
AnchorPoint: "Anchor-15" 0 0 basechar 0
AnchorPoint: "Anchor-14" 262 0 basechar 0
LayerCount: 2
Fore
SplineSet
532 541.5 m 128,-1,1
 602 490 602 490 602 386 c 0,2,3
 602 320 602 320 572.5 256.5 c 128,-1,4
 543 193 543 193 473.5 149.5 c 128,-1,5
 404 106 404 106 290 106 c 2,6,-1
 223 106 l 1,7,-1
 208 0 l 1,8,-1
 6 0 l 1,9,-1
 103 696 l 1,10,-1
 305 696 l 1,11,-1
 291 593 l 1,12,-1
 334 593 l 2,13,0
 462 593 462 593 532 541.5 c 128,-1,1
370 291.5 m 128,-1,15
 394 332 394 332 394 380 c 0,16,17
 394 450 394 450 313 450 c 2,18,-1
 271 450 l 1,19,-1
 243 251 l 1,20,-1
 288 251 l 2,21,14
 346 251 346 251 370 291.5 c 128,-1,15
EndSplineSet
Substitution2: "'c2sc' Capitals to Small Capitals lookup 27 subtable" thorn.sc
Substitution2: "'aalt' Access All Alternates lookup 0 subtable" thorn.sc
Position2: "'cpsp' Capital Spacing lookup 0 subtable" dx=5 dy=0 dh=10 dv=0
EndChar

StartChar: Q
Encoding: 81 81 223
Width: 678
GlyphClass: 2
Flags: W
AnchorPoint: "Anchor-18" 0 0 basechar 0
AnchorPoint: "Anchor-17" 0 0 basechar 0
AnchorPoint: "Anchor-16" 399 696 basechar 0
AnchorPoint: "Anchor-15" 0 0 basechar 0
AnchorPoint: "Anchor-14" 301 0 basechar 0
LayerCount: 2
Fore
SplineSet
599.5 27.5 m 128,-1,1
 645 12 645 12 682 -20 c 1,2,-1
 543 -176 l 1,3,4
 500 -107 500 -107 444 -63.5 c 128,-1,5
 388 -20 388 -20 301 -20 c 0,6,7
 168 -20 168 -20 96.5 56 c 128,-1,8
 25 132 25 132 25 268 c 0,9,10
 25 375 25 375 61 477 c 128,-1,11
 97 579 97 579 181.5 647.5 c 128,-1,12
 266 716 266 716 400 716 c 256,13,14
 534 716 534 716 605 640.5 c 128,-1,15
 676 565 676 565 676 429 c 0,16,17
 676 311 676 311 629.5 206 c 128,-1,18
 583 101 583 101 479 46 c 1,19,0
 554 43 554 43 599.5 27.5 c 128,-1,1
253.5 154.5 m 128,-1,21
 274 126 274 126 317 126 c 0,22,23
 402 126 402 126 435 230.5 c 128,-1,24
 468 335 468 335 468 452 c 0,25,26
 468 514 468 514 447.5 542 c 128,-1,27
 427 570 427 570 384 570 c 0,28,29
 325 570 325 570 291.5 515 c 128,-1,30
 258 460 258 460 245.5 386.5 c 128,-1,31
 233 313 233 313 233 246 c 0,32,20
 233 183 233 183 253.5 154.5 c 128,-1,21
EndSplineSet
Substitution2: "'c2sc' Capitals to Small Capitals lookup 27 subtable" q.sc
Substitution2: "'aalt' Access All Alternates lookup 0 subtable" q.sc
Position2: "'cpsp' Capital Spacing lookup 0 subtable" dx=5 dy=0 dh=10 dv=0
EndChar

StartChar: uni024A
Encoding: 586 586 224
Width: 668
GlyphClass: 2
Flags: W
AnchorPoint: "Anchor-18" 0 0 basechar 0
AnchorPoint: "Anchor-17" 0 0 basechar 0
AnchorPoint: "Anchor-16" 398 696 basechar 0
AnchorPoint: "Anchor-15" 0 0 basechar 0
AnchorPoint: "Anchor-14" 0 0 basechar 0
LayerCount: 2
Fore
SplineSet
737 -183 m 1,0,1
 671 -227 671 -227 578 -227 c 0,2,3
 484 -227 484 -227 430.5 -183 c 128,-1,4
 377 -139 377 -139 377 -54 c 0,5,6
 377 -36 377 -36 380 -15 c 2,7,-1
 382 0 l 1,8,-1
 387 34 l 1,9,10
 330 -20 330 -20 242 -20 c 0,11,12
 175 -20 175 -20 125.5 13 c 128,-1,13
 76 46 76 46 50 108 c 128,-1,14
 24 170 24 170 24 253 c 0,15,16
 23 373 23 373 62.5 479.5 c 128,-1,17
 102 586 102 586 176 651 c 128,-1,18
 250 716 250 716 347 716 c 0,19,20
 395 716 395 716 428.5 700.5 c 128,-1,21
 462 685 462 685 490 656 c 1,22,-1
 501 696 l 1,23,-1
 681 696 l 1,24,-1
 584 0 l 1,25,-1
 580 -30 l 2,26,27
 579 -35 579 -35 579 -43 c 0,28,29
 579 -82 579 -82 619 -82 c 0,30,31
 638 -82 638 -82 652.5 -78 c 128,-1,32
 667 -74 667 -74 689 -64 c 1,33,-1
 737 -183 l 1,0,1
404 157 m 1,35,-1
 457 534 l 1,36,37
 426 570 426 570 379 570 c 0,38,39
 330 570 330 570 296.5 522 c 128,-1,40
 263 474 263 474 247 400 c 128,-1,41
 231 326 231 326 231 248 c 0,42,43
 231 179 231 179 251.5 150 c 128,-1,44
 272 121 272 121 313 121 c 0,45,34
 361 121 361 121 404 157 c 1,35,-1
EndSplineSet
Substitution2: "'c2sc' Capitals to Small Capitals lookup 27 subtable" uni024B.sc
Substitution2: "'aalt' Access All Alternates lookup 0 subtable" uni024B.sc
Position2: "'cpsp' Capital Spacing lookup 0 subtable" dx=5 dy=0 dh=10 dv=0
EndChar

StartChar: R
Encoding: 82 82 225
Width: 612
GlyphClass: 2
Flags: W
AnchorPoint: "Anchor-18" 0 0 basechar 0
AnchorPoint: "Anchor-17" 0 0 basechar 0
AnchorPoint: "Anchor-16" 367 696 basechar 0
AnchorPoint: "Anchor-15" 0 0 basechar 0
AnchorPoint: "Anchor-14" 270 0 basechar 0
LayerCount: 2
Fore
SplineSet
587.5 378.5 m 128,-1,1
 557 325 557 325 470 281 c 1,2,-1
 595 0 l 1,3,-1
 375 0 l 1,4,-1
 283 248 l 1,5,-1
 242 248 l 1,6,-1
 208 0 l 1,7,-1
 6 0 l 1,8,-1
 103 696 l 1,9,-1
 354 696 l 2,10,11
 482 696 482 696 550 644 c 128,-1,12
 618 592 618 592 618 504 c 0,13,0
 618 432 618 432 587.5 378.5 c 128,-1,1
262 386 m 1,14,-1
 314 386 l 2,15,16
 363 386 363 386 386.5 417 c 128,-1,17
 410 448 410 448 410 491 c 0,18,19
 410 555 410 555 329 555 c 2,20,-1
 285 555 l 1,21,-1
 262 386 l 1,14,-1
EndSplineSet
Substitution2: "'c2sc' Capitals to Small Capitals lookup 27 subtable" r.sc
Substitution2: "'aalt' Access All Alternates lookup 0 subtable" r.sc
Position2: "'cpsp' Capital Spacing lookup 0 subtable" dx=5 dy=0 dh=10 dv=0
EndChar

StartChar: uni024C
Encoding: 588 588 232
Width: 622
GlyphClass: 2
Flags: W
AnchorPoint: "Anchor-18" 0 0 basechar 0
AnchorPoint: "Anchor-17" 0 0 basechar 0
AnchorPoint: "Anchor-16" 377 696 basechar 0
AnchorPoint: "Anchor-15" 0 0 basechar 0
AnchorPoint: "Anchor-14" 280 0 basechar 0
LayerCount: 2
Fore
SplineSet
597.5 378.5 m 128,-1,1
 567 325 567 325 480 281 c 1,2,-1
 605 0 l 1,3,-1
 385 0 l 1,4,-1
 293 248 l 1,5,-1
 252 248 l 1,6,-1
 218 0 l 1,7,-1
 16 0 l 1,8,-1
 51 248 l 1,9,-1
 2 248 l 1,10,-1
 21 386 l 1,11,-1
 70 386 l 1,12,-1
 113 696 l 1,13,-1
 364 696 l 2,14,15
 492 696 492 696 560 644 c 128,-1,16
 628 592 628 592 628 504 c 0,17,0
 628 432 628 432 597.5 378.5 c 128,-1,1
295 555 m 1,18,-1
 272 386 l 1,19,-1
 324 386 l 2,20,21
 373 386 373 386 396.5 417 c 128,-1,22
 420 448 420 448 420 491 c 0,23,24
 420 555 420 555 339 555 c 2,25,-1
 295 555 l 1,18,-1
EndSplineSet
Substitution2: "'c2sc' Capitals to Small Capitals lookup 27 subtable" uni024D.sc
Substitution2: "'aalt' Access All Alternates lookup 0 subtable" uni024D.sc
Position2: "'cpsp' Capital Spacing lookup 0 subtable" dx=5 dy=0 dh=10 dv=0
EndChar

StartChar: uni2C64
Encoding: 11364 11364 233
Width: 612
GlyphClass: 2
Flags: W
AnchorPoint: "Anchor-18" 0 0 basechar 0
AnchorPoint: "Anchor-17" 0 0 basechar 0
AnchorPoint: "Anchor-16" 367 696 basechar 0
AnchorPoint: "Anchor-15" 0 0 basechar 0
AnchorPoint: "Anchor-14" 270 0 basechar 0
LayerCount: 2
Fore
SplineSet
587.5 378.5 m 128,-1,1
 557 325 557 325 470 281 c 1,2,-1
 595 0 l 1,3,-1
 375 0 l 1,4,-1
 283 248 l 1,5,-1
 242 248 l 1,6,-1
 208 0 l 1,7,-1
 204 -30 l 2,8,9
 203 -35 203 -35 203 -43 c 0,10,11
 203 -82 203 -82 243 -82 c 0,12,13
 262 -82 262 -82 276.5 -78 c 128,-1,14
 291 -74 291 -74 313 -64 c 1,15,-1
 361 -183 l 1,16,17
 295 -227 295 -227 202 -227 c 0,18,19
 108 -227 108 -227 54.5 -183 c 128,-1,20
 1 -139 1 -139 1 -54 c 0,21,22
 1 -36 1 -36 4 -15 c 2,23,-1
 6 0 l 1,24,-1
 103 696 l 1,25,-1
 354 696 l 2,26,27
 482 696 482 696 550 644 c 128,-1,28
 618 592 618 592 618 504 c 0,29,0
 618 432 618 432 587.5 378.5 c 128,-1,1
262 386 m 1,30,-1
 314 386 l 2,31,32
 363 386 363 386 386.5 417 c 128,-1,33
 410 448 410 448 410 491 c 0,34,35
 410 555 410 555 329 555 c 2,36,-1
 285 555 l 1,37,-1
 262 386 l 1,30,-1
EndSplineSet
Substitution2: "'ss01' Style Set 1 lookup 34 subtable" uni2C64.ss01
Substitution2: "'salt' Stylistic Alternatives lookup 33 subtable" uni2C64.ss01
Substitution2: "'c2sc' Capitals to Small Capitals lookup 27 subtable" uni2C64.sc
AlternateSubs2: "'aalt' Access All Alternates lookup 1 subtable" uni2C64.sc uni2C64.ss01
Position2: "'cpsp' Capital Spacing lookup 0 subtable" dx=5 dy=0 dh=10 dv=0
EndChar

StartChar: S
Encoding: 83 83 234
Width: 576
GlyphClass: 2
Flags: W
AnchorPoint: "Anchor-18" 0 0 basechar 0
AnchorPoint: "Anchor-17" 0 0 basechar 0
AnchorPoint: "Anchor-16" 361 696 basechar 0
AnchorPoint: "Anchor-15" 0 0 basechar 0
AnchorPoint: "Anchor-14" 250 0 basechar 0
LayerCount: 2
Fore
SplineSet
594 620 m 1,1,-1
 492 515 l 1,2,3
 431 570 431 570 354 570 c 0,4,5
 314 570 314 570 292.5 554.5 c 128,-1,6
 271 539 271 539 271 514 c 0,7,8
 271 497 271 497 280.5 486 c 128,-1,9
 290 475 290 475 312.5 465 c 128,-1,10
 335 455 335 455 380 440 c 0,11,12
 471 409 471 409 513.5 360.5 c 128,-1,13
 556 312 556 312 556 238 c 0,14,15
 556 172 556 172 525 113.5 c 128,-1,16
 494 55 494 55 424 17.5 c 128,-1,17
 354 -20 354 -20 244 -20 c 0,18,19
 155 -20 155 -20 88 9.5 c 128,-1,20
 21 39 21 39 -25 86 c 1,21,-1
 88 201 l 1,22,23
 155 134 155 134 249 134 c 0,24,25
 294 134 294 134 318 151 c 128,-1,26
 342 168 342 168 342 200 c 0,27,28
 342 228 342 228 320.5 247 c 128,-1,29
 299 266 299 266 244 285 c 0,30,31
 144 318 144 318 101 367.5 c 128,-1,32
 58 417 58 417 58 486 c 0,33,34
 58 547 58 547 89 599 c 128,-1,35
 120 651 120 651 185 683.5 c 128,-1,36
 250 716 250 716 346 716 c 0,37,0
 500 716 500 716 594 620 c 1,1,-1
EndSplineSet
Substitution2: "'c2sc' Capitals to Small Capitals lookup 27 subtable" s.sc
Substitution2: "'aalt' Access All Alternates lookup 0 subtable" s.sc
Position2: "'cpsp' Capital Spacing lookup 0 subtable" dx=5 dy=0 dh=10 dv=0
EndChar

StartChar: uniA78B
Encoding: 42891 42891 236
Width: 251
GlyphClass: 2
Flags: W
LayerCount: 2
Fore
SplineSet
67 326 m 1,0,-1
 96 696 l 1,1,-1
 275 696 l 1,2,-1
 200 326 l 1,3,-1
 67 326 l 1,0,-1
EndSplineSet
Position2: "'cpsp' Capital Spacing lookup 0 subtable" dx=5 dy=0 dh=10 dv=0
EndChar

StartChar: Scedilla
Encoding: 350 350 238
Width: 576
GlyphClass: 2
Flags: W
AnchorPoint: "Anchor-18" 0 0 basechar 0
AnchorPoint: "Anchor-17" 0 0 basechar 0
AnchorPoint: "Anchor-16" 361 696 basechar 0
AnchorPoint: "Anchor-15" 0 0 basechar 0
AnchorPoint: "Anchor-14" 246 -275 basechar 0
LayerCount: 2
Fore
SplineSet
513.5 360.5 m 128,-1,1
 556 312 556 312 556 238 c 0,2,3
 556 179 556 179 531 125 c 128,-1,4
 506 71 506 71 449.5 32 c 128,-1,5
 393 -7 393 -7 304 -17 c 1,6,-1
 300 -43 l 1,7,8
 347 -49 347 -49 371.5 -73.5 c 128,-1,9
 396 -98 396 -98 396 -139 c 0,10,11
 396 -170 396 -170 379 -201 c 128,-1,12
 362 -232 362 -232 322 -253.5 c 128,-1,13
 282 -275 282 -275 218 -275 c 0,14,15
 150 -275 150 -275 99 -240 c 1,16,-1
 152 -156 l 1,17,18
 181 -173 181 -173 212 -173 c 0,19,20
 261 -173 261 -173 261 -145 c 0,21,22
 261 -131 261 -131 240.5 -125.5 c 128,-1,23
 220 -120 220 -120 173 -120 c 1,24,-1
 199 -18 l 1,25,26
 63 -4 63 -4 -25 86 c 1,27,-1
 88 201 l 1,28,29
 155 134 155 134 249 134 c 0,30,31
 294 134 294 134 318 151 c 128,-1,32
 342 168 342 168 342 200 c 0,33,34
 342 228 342 228 320.5 247 c 128,-1,35
 299 266 299 266 244 285 c 0,36,37
 144 318 144 318 101 367.5 c 128,-1,38
 58 417 58 417 58 486 c 0,39,40
 58 547 58 547 89 599 c 128,-1,41
 120 651 120 651 185 683.5 c 128,-1,42
 250 716 250 716 346 716 c 0,43,44
 500 716 500 716 594 620 c 1,45,-1
 492 515 l 1,46,47
 431 570 431 570 354 570 c 0,48,49
 314 570 314 570 292.5 554.5 c 128,-1,50
 271 539 271 539 271 514 c 0,51,52
 271 497 271 497 280.5 486 c 128,-1,53
 290 475 290 475 312.5 465 c 128,-1,54
 335 455 335 455 380 440 c 0,55,0
 471 409 471 409 513.5 360.5 c 128,-1,1
EndSplineSet
Substitution2: "'c2sc' Capitals to Small Capitals lookup 27 subtable" scedilla.sc
Substitution2: "'locl' Localized Forms in Latin lookup 5 subtable" Scommaaccent
Substitution2: "'locl' Localized Forms in Latin lookup 4 subtable" Scommaaccent
AlternateSubs2: "'aalt' Access All Alternates lookup 1 subtable" Scommaaccent scedilla.sc
Position2: "'cpsp' Capital Spacing lookup 0 subtable" dx=5 dy=0 dh=10 dv=0
EndChar

StartChar: uni1E9E
Encoding: 7838 7838 243
Width: 663
GlyphClass: 2
Flags: W
LayerCount: 2
Fore
SplineSet
519 694.5 m 128,-1,1
 588 673 588 673 659 634 c 1,2,-1
 648 555 l 1,3,-1
 500 396 l 1,4,5
 643 362 643 362 643 230 c 0,6,7
 643 156 643 156 606.5 99 c 128,-1,8
 570 42 570 42 507 11 c 128,-1,9
 444 -20 444 -20 367 -20 c 0,10,11
 288 -20 288 -20 233 10 c 1,12,-1
 307 140 l 1,13,14
 325 131 325 131 355 131 c 0,15,16
 391 131 391 131 411.5 157 c 128,-1,17
 432 183 432 183 432 222 c 256,18,19
 432 261 432 261 404 282 c 128,-1,20
 376 303 376 303 311 308 c 1,21,-1
 324 401 l 1,22,-1
 462 555 l 1,23,24
 405 570 405 570 360 570 c 0,25,26
 322 570 322 570 302.5 550.5 c 128,-1,27
 283 531 283 531 277 488 c 2,28,-1
 208 0 l 1,29,-1
 6 0 l 1,30,-1
 73 483 l 2,31,32
 89 594 89 594 162 655 c 128,-1,33
 235 716 235 716 361 716 c 0,34,0
 450 716 450 716 519 694.5 c 128,-1,1
EndSplineSet
Substitution2: "'c2sc' Capitals to Small Capitals lookup 27 subtable" germandbls.sc
Substitution2: "'aalt' Access All Alternates lookup 0 subtable" germandbls.sc
Position2: "'cpsp' Capital Spacing lookup 0 subtable" dx=5 dy=0 dh=10 dv=0
EndChar

StartChar: T
Encoding: 84 84 245
Width: 542
GlyphClass: 2
Flags: W
AnchorPoint: "Anchor-18" 283 348 basechar 0
AnchorPoint: "Anchor-17" 0 0 basechar 0
AnchorPoint: "Anchor-16" 332 696 basechar 0
AnchorPoint: "Anchor-15" 0 0 basechar 0
AnchorPoint: "Anchor-14" 234 0 basechar 0
LayerCount: 2
Fore
SplineSet
608 696 m 1,0,-1
 566 542 l 1,1,-1
 411 542 l 1,2,-1
 335 0 l 1,3,-1
 133 0 l 1,4,-1
 209 542 l 1,5,-1
 43 542 l 1,6,-1
 64 696 l 1,7,-1
 608 696 l 1,0,-1
EndSplineSet
Substitution2: "'c2sc' Capitals to Small Capitals lookup 27 subtable" t.sc
Substitution2: "'aalt' Access All Alternates lookup 0 subtable" t.sc
Position2: "'cpsp' Capital Spacing lookup 0 subtable" dx=5 dy=0 dh=10 dv=0
EndChar

StartChar: Tbar
Encoding: 358 358 246
Width: 542
GlyphClass: 2
Flags: W
AnchorPoint: "Anchor-18" 283 348 basechar 0
AnchorPoint: "Anchor-17" 0 0 basechar 0
AnchorPoint: "Anchor-16" 332 696 basechar 0
AnchorPoint: "Anchor-15" 0 0 basechar 0
AnchorPoint: "Anchor-14" 234 0 basechar 0
LayerCount: 2
Fore
SplineSet
566 542 m 1,0,-1
 411 542 l 1,1,-1
 390 391 l 1,2,-1
 496 391 l 1,3,-1
 482 285 l 1,4,-1
 375 285 l 1,5,-1
 335 0 l 1,6,-1
 133 0 l 1,7,-1
 173 285 l 1,8,-1
 67 285 l 1,9,-1
 81 391 l 1,10,-1
 188 391 l 1,11,-1
 209 542 l 1,12,-1
 43 542 l 1,13,-1
 64 696 l 1,14,-1
 608 696 l 1,15,-1
 566 542 l 1,0,-1
EndSplineSet
Substitution2: "'c2sc' Capitals to Small Capitals lookup 27 subtable" tbar.sc
Substitution2: "'aalt' Access All Alternates lookup 0 subtable" tbar.sc
Position2: "'cpsp' Capital Spacing lookup 0 subtable" dx=5 dy=0 dh=10 dv=0
EndChar

StartChar: uni0162
Encoding: 354 354 248
Width: 542
GlyphClass: 2
Flags: W
AnchorPoint: "Anchor-18" 283 348 basechar 0
AnchorPoint: "Anchor-17" 0 0 basechar 0
AnchorPoint: "Anchor-16" 332 696 basechar 0
AnchorPoint: "Anchor-15" 0 0 basechar 0
AnchorPoint: "Anchor-14" 234 0 basechar 0
LayerCount: 2
Fore
SplineSet
335 0 m 1,0,-1
 329 -43 l 1,1,2
 375 -49 375 -49 399 -73.5 c 128,-1,3
 423 -98 423 -98 423 -140 c 0,4,5
 423 -170 423 -170 405.5 -201 c 128,-1,6
 388 -232 388 -232 348.5 -253.5 c 128,-1,7
 309 -275 309 -275 245 -275 c 0,8,9
 177 -275 177 -275 126 -240 c 1,10,-1
 179 -156 l 1,11,12
 208 -173 208 -173 239 -173 c 0,13,14
 288 -173 288 -173 288 -145 c 0,15,16
 288 -131 288 -131 267.5 -125.5 c 128,-1,17
 247 -120 247 -120 200 -120 c 1,18,-1
 230 0 l 1,19,-1
 133 0 l 1,20,-1
 209 542 l 1,21,-1
 43 542 l 1,22,-1
 64 696 l 1,23,-1
 608 696 l 1,24,-1
 566 542 l 1,25,-1
 411 542 l 1,26,-1
 335 0 l 1,0,-1
EndSplineSet
Substitution2: "'c2sc' Capitals to Small Capitals lookup 27 subtable" uni0163.sc
Substitution2: "'locl' Localized Forms in Latin lookup 5 subtable" uni021A
Substitution2: "'locl' Localized Forms in Latin lookup 4 subtable" uni021A
AlternateSubs2: "'aalt' Access All Alternates lookup 1 subtable" uni021A uni0163.sc
Position2: "'cpsp' Capital Spacing lookup 0 subtable" dx=5 dy=0 dh=10 dv=0
EndChar

StartChar: uni023E
Encoding: 574 574 251
Width: 542
GlyphClass: 2
Flags: W
AnchorPoint: "Anchor-18" 0 0 basechar 0
AnchorPoint: "Anchor-17" 0 0 basechar 0
AnchorPoint: "Anchor-16" 331 696 basechar 0
AnchorPoint: "Anchor-15" 0 0 basechar 0
AnchorPoint: "Anchor-14" 233 0 basechar 0
LayerCount: 2
Fore
SplineSet
568 552 m 1,0,-1
 485 552 l 1,1,-1
 370 354 l 1,2,-1
 320 0 l 1,3,-1
 164 0 l 1,4,-1
 119 -77 l 1,5,-1
 70 -52 l 1,6,-1
 163 108 l 1,7,-1
 226 552 l 1,8,-1
 45 552 l 1,9,-1
 64 696 l 1,10,-1
 506 696 l 1,11,-1
 543 759 l 1,12,-1
 591 734 l 1,13,-1
 569 696 l 1,14,-1
 608 696 l 1,15,-1
 568 552 l 1,0,-1
390 497 m 1,16,-1
 422 552 l 1,17,-1
 398 552 l 1,18,-1
 390 497 l 1,16,-1
EndSplineSet
Substitution2: "'c2sc' Capitals to Small Capitals lookup 27 subtable" uni2C66.sc
Substitution2: "'aalt' Access All Alternates lookup 0 subtable" uni2C66.sc
Position2: "'cpsp' Capital Spacing lookup 0 subtable" dx=5 dy=0 dh=10 dv=0
EndChar

StartChar: uni01AC
Encoding: 428 428 254
Width: 607
GlyphClass: 2
Flags: W
AnchorPoint: "Anchor-18" 0 0 basechar 0
AnchorPoint: "Anchor-17" 0 0 basechar 0
AnchorPoint: "Anchor-16" 363 696 basechar 0
AnchorPoint: "Anchor-15" 0 0 basechar 0
AnchorPoint: "Anchor-14" 299 0 basechar 0
LayerCount: 2
Fore
SplineSet
631 542 m 1,0,-1
 476 542 l 1,1,-1
 400 0 l 1,2,-1
 198 0 l 1,3,-1
 274 542 l 1,4,-1
 226 542 l 2,5,6
 206 542 206 542 196 530.5 c 128,-1,7
 186 519 186 519 186 500 c 0,8,9
 186 484 186 484 192 454 c 1,10,-1
 61 404 l 1,11,12
 49 431 49 431 42.5 455 c 128,-1,13
 36 479 36 479 36 507 c 0,14,15
 36 565 36 565 61.5 608 c 128,-1,16
 87 651 87 651 132 673.5 c 128,-1,17
 177 696 177 696 233 696 c 2,18,-1
 673 696 l 1,19,-1
 631 542 l 1,0,-1
EndSplineSet
Substitution2: "'c2sc' Capitals to Small Capitals lookup 27 subtable" uni01AD.sc
Substitution2: "'aalt' Access All Alternates lookup 0 subtable" uni01AD.sc
Position2: "'cpsp' Capital Spacing lookup 0 subtable" dx=5 dy=0 dh=10 dv=0
EndChar

StartChar: uni0184
Encoding: 388 388 257
Width: 616
GlyphClass: 2
Flags: W
AnchorPoint: "Anchor-18" 0 0 basechar 0
AnchorPoint: "Anchor-17" 0 0 basechar 0
AnchorPoint: "Anchor-16" 369 696 basechar 0
AnchorPoint: "Anchor-15" 0 0 basechar 0
AnchorPoint: "Anchor-14" 271 0 basechar 0
LayerCount: 2
Fore
SplineSet
542 419.5 m 128,-1,1
 607 370 607 370 607 276 c 0,2,3
 607 206 607 206 575 143.5 c 128,-1,4
 543 81 543 81 474.5 40.5 c 128,-1,5
 406 0 406 0 301 0 c 2,6,-1
 27 0 l 1,7,-1
 93 471 l 1,8,-1
 22 528 l 1,9,10
 97 595 97 595 160 696 c 1,11,-1
 326 696 l 1,12,-1
 294 469 l 1,13,-1
 356 469 l 2,14,0
 477 469 477 469 542 419.5 c 128,-1,1
371.5 181 m 128,-1,16
 395 217 395 217 395 260 c 0,17,18
 395 292 395 292 376 311.5 c 128,-1,19
 357 331 357 331 317 331 c 2,20,-1
 275 331 l 1,21,-1
 249 145 l 1,22,-1
 293 145 l 2,23,15
 348 145 348 145 371.5 181 c 128,-1,16
EndSplineSet
Substitution2: "'c2sc' Capitals to Small Capitals lookup 27 subtable" uni0185.sc
Substitution2: "'aalt' Access All Alternates lookup 0 subtable" uni0185.sc
Position2: "'cpsp' Capital Spacing lookup 0 subtable" dx=5 dy=0 dh=10 dv=0
EndChar

StartChar: uni01A7
Encoding: 423 423 258
Width: 566
GlyphClass: 2
Flags: W
AnchorPoint: "Anchor-18" 0 0 basechar 0
AnchorPoint: "Anchor-17" 0 0 basechar 0
AnchorPoint: "Anchor-16" 343 696 basechar 0
AnchorPoint: "Anchor-15" 0 0 basechar 0
AnchorPoint: "Anchor-14" 245 0 basechar 0
LayerCount: 2
Fore
SplineSet
524 667 m 128,-1,1
 587 618 587 618 587 534 c 0,2,3
 587 437 587 437 524 380.5 c 128,-1,4
 461 324 461 324 338 286 c 0,5,6
 270 267 270 267 241 242.5 c 128,-1,7
 212 218 212 218 212 186 c 0,8,9
 212 161 212 161 229 146 c 128,-1,10
 246 131 246 131 283 131 c 0,11,12
 367 131 367 131 454 197 c 1,13,-1
 540 84 l 1,14,15
 487 38 487 38 414.5 9 c 128,-1,16
 342 -20 342 -20 252 -20 c 0,17,18
 175 -20 175 -20 119 4.5 c 128,-1,19
 63 29 63 29 33.5 74 c 128,-1,20
 4 119 4 119 4 178 c 0,21,22
 4 279 4 279 62.5 337.5 c 128,-1,23
 121 396 121 396 236 433 c 0,24,25
 293 450 293 450 323.5 463.5 c 128,-1,26
 354 477 354 477 366.5 491.5 c 128,-1,27
 379 506 379 506 380 527 c 0,28,29
 378 570 378 570 319 570 c 0,30,31
 275 570 275 570 236.5 556 c 128,-1,32
 198 542 198 542 159 513 c 1,33,-1
 83 622 l 1,34,35
 200 716 200 716 356 716 c 0,36,0
 461 716 461 716 524 667 c 128,-1,1
EndSplineSet
Substitution2: "'c2sc' Capitals to Small Capitals lookup 27 subtable" uni01A8.sc
Substitution2: "'aalt' Access All Alternates lookup 0 subtable" uni01A8.sc
Position2: "'cpsp' Capital Spacing lookup 0 subtable" dx=5 dy=0 dh=10 dv=0
EndChar

StartChar: uni01AE
Encoding: 430 430 259
Width: 542
GlyphClass: 2
Flags: W
AnchorPoint: "Anchor-18" 283 348 basechar 0
AnchorPoint: "Anchor-17" 0 0 basechar 0
AnchorPoint: "Anchor-16" 332 696 basechar 0
AnchorPoint: "Anchor-15" 0 0 basechar 0
AnchorPoint: "Anchor-14" 234 0 basechar 0
LayerCount: 2
Fore
SplineSet
331 -30 m 2,0,1
 330 -35 330 -35 330 -43 c 0,2,3
 330 -82 330 -82 370 -82 c 0,4,5
 389 -82 389 -82 403.5 -78 c 128,-1,6
 418 -74 418 -74 440 -64 c 1,7,-1
 488 -183 l 1,8,9
 422 -227 422 -227 329 -227 c 0,10,11
 235 -227 235 -227 181.5 -183 c 128,-1,12
 128 -139 128 -139 128 -54 c 0,13,14
 128 -36 128 -36 131 -15 c 2,15,-1
 133 0 l 1,16,-1
 209 542 l 1,17,-1
 43 542 l 1,18,-1
 64 696 l 1,19,-1
 608 696 l 1,20,-1
 566 542 l 1,21,-1
 411 542 l 1,22,-1
 335 0 l 1,23,-1
 331 -30 l 2,0,1
EndSplineSet
Substitution2: "'c2sc' Capitals to Small Capitals lookup 27 subtable" uni0288.sc
Substitution2: "'aalt' Access All Alternates lookup 0 subtable" uni0288.sc
Position2: "'cpsp' Capital Spacing lookup 0 subtable" dx=5 dy=0 dh=10 dv=0
EndChar

StartChar: U
Encoding: 85 85 260
Width: 632
GlyphClass: 2
Flags: W
AnchorPoint: "Anchor-18" 0 0 basechar 0
AnchorPoint: "Anchor-17" 669 696 basechar 0
AnchorPoint: "Anchor-16" 376 696 basechar 0
AnchorPoint: "Anchor-15" 414 0 basechar 0
AnchorPoint: "Anchor-14" 279 0 basechar 0
LayerCount: 2
Fore
SplineSet
595 235 m 2,0,1
 585 162 585 162 545.5 104.5 c 128,-1,2
 506 47 506 47 438 13.5 c 128,-1,3
 370 -20 370 -20 278 -20 c 0,4,5
 152 -20 152 -20 89 36 c 128,-1,6
 26 92 26 92 26 190 c 0,7,8
 26 213 26 213 29 237 c 2,9,-1
 93 696 l 1,10,-1
 295 696 l 1,11,-1
 231 241 l 2,12,13
 228 219 228 219 228 201 c 0,14,15
 228 163 228 163 243.5 145.5 c 128,-1,16
 259 128 259 128 294 128 c 0,17,18
 338 128 338 128 361.5 156 c 128,-1,19
 385 184 385 184 393 243 c 2,20,-1
 457 696 l 1,21,-1
 659 696 l 1,22,-1
 595 235 l 2,0,1
EndSplineSet
Substitution2: "'c2sc' Capitals to Small Capitals lookup 27 subtable" u.sc
Substitution2: "'aalt' Access All Alternates lookup 0 subtable" u.sc
Position2: "'cpsp' Capital Spacing lookup 0 subtable" dx=5 dy=0 dh=10 dv=0
EndChar

StartChar: uni0244
Encoding: 580 580 262
Width: 677
GlyphClass: 2
Flags: W
AnchorPoint: "Anchor-18" 0 0 basechar 0
AnchorPoint: "Anchor-17" 689 696 basechar 0
AnchorPoint: "Anchor-16" 396 696 basechar 0
AnchorPoint: "Anchor-15" 434 0 basechar 0
AnchorPoint: "Anchor-14" 299 0 basechar 0
LayerCount: 2
Fore
SplineSet
701 495 m 1,0,-1
 651 495 l 1,1,-1
 615 235 l 2,2,3
 605 162 605 162 565.5 104.5 c 128,-1,4
 526 47 526 47 458 13.5 c 128,-1,5
 390 -20 390 -20 298 -20 c 0,6,7
 172 -20 172 -20 109 36 c 128,-1,8
 46 92 46 92 46 190 c 0,9,10
 46 213 46 213 49 237 c 2,11,-1
 85 495 l 1,12,-1
 37 495 l 1,13,-1
 51 601 l 1,14,-1
 100 601 l 1,15,-1
 113 696 l 1,16,-1
 315 696 l 1,17,-1
 302 601 l 1,18,-1
 464 601 l 1,19,-1
 477 696 l 1,20,-1
 679 696 l 1,21,-1
 666 601 l 1,22,-1
 715 601 l 1,23,-1
 701 495 l 1,0,-1
449 495 m 1,24,-1
 287 495 l 1,25,-1
 251 241 l 2,26,27
 248 219 248 219 248 201 c 0,28,29
 248 163 248 163 263.5 145.5 c 128,-1,30
 279 128 279 128 314 128 c 0,31,32
 358 128 358 128 381.5 156 c 128,-1,33
 405 184 405 184 413 243 c 2,34,-1
 449 495 l 1,24,-1
EndSplineSet
Substitution2: "'c2sc' Capitals to Small Capitals lookup 27 subtable" uni0289.sc
Substitution2: "'aalt' Access All Alternates lookup 0 subtable" uni0289.sc
Position2: "'cpsp' Capital Spacing lookup 0 subtable" dx=5 dy=0 dh=10 dv=0
EndChar

StartChar: Uhorn
Encoding: 431 431 275
Width: 737
GlyphClass: 2
Flags: W
AnchorPoint: "Anchor-18" 0 0 basechar 0
AnchorPoint: "Anchor-17" 720 696 basechar 0
AnchorPoint: "Anchor-16" 376 696 basechar 0
AnchorPoint: "Anchor-15" 414 0 basechar 0
AnchorPoint: "Anchor-14" 279 0 basechar 0
LayerCount: 2
Fore
SplineSet
770.5 587 m 128,-1,1
 724 544 724 544 638 543 c 1,2,-1
 595 235 l 2,3,4
 585 162 585 162 545.5 104.5 c 128,-1,5
 506 47 506 47 438 13.5 c 128,-1,6
 370 -20 370 -20 278 -20 c 0,7,8
 152 -20 152 -20 89 36 c 128,-1,9
 26 92 26 92 26 190 c 0,10,11
 26 213 26 213 29 237 c 2,12,-1
 93 696 l 1,13,-1
 295 696 l 1,14,-1
 231 241 l 2,15,16
 228 219 228 219 228 201 c 0,17,18
 228 163 228 163 243.5 145.5 c 128,-1,19
 259 128 259 128 294 128 c 0,20,21
 338 128 338 128 361.5 156 c 128,-1,22
 385 184 385 184 393 243 c 2,23,-1
 457 696 l 1,24,-1
 659 696 l 1,25,-1
 651 636 l 1,26,27
 673 642 673 642 683 659.5 c 128,-1,28
 693 677 693 677 693 708 c 0,29,30
 693 736 693 736 688 759 c 1,31,-1
 809 772 l 1,32,33
 817 744 817 744 817 712 c 0,34,0
 817 630 817 630 770.5 587 c 128,-1,1
EndSplineSet
Substitution2: "'c2sc' Capitals to Small Capitals lookup 27 subtable" uhorn.sc
Substitution2: "'aalt' Access All Alternates lookup 0 subtable" uhorn.sc
Position2: "'cpsp' Capital Spacing lookup 0 subtable" dx=5 dy=0 dh=10 dv=0
EndChar

StartChar: uni1EE8
Encoding: 7912 7912 276
Width: 737
GlyphClass: 2
Flags: W
AnchorPoint: "Anchor-18" 0 0 basechar 0
AnchorPoint: "Anchor-17" 720 696 basechar 0
AnchorPoint: "Anchor-16" 402 985 basechar 0
AnchorPoint: "Anchor-15" 414 0 basechar 0
AnchorPoint: "Anchor-14" 279 0 basechar 0
LayerCount: 2
Fore
SplineSet
562 831 m 1,0,-1
 302 742 l 1,1,-1
 260 838 l 1,2,-1
 502 975 l 1,3,-1
 562 831 l 1,0,-1
770.5 587 m 128,-1,5
 724 544 724 544 638 543 c 1,6,-1
 595 235 l 2,7,8
 585 162 585 162 545.5 104.5 c 128,-1,9
 506 47 506 47 438 13.5 c 128,-1,10
 370 -20 370 -20 278 -20 c 0,11,12
 152 -20 152 -20 89 36 c 128,-1,13
 26 92 26 92 26 190 c 0,14,15
 26 213 26 213 29 237 c 2,16,-1
 93 696 l 1,17,-1
 295 696 l 1,18,-1
 231 241 l 2,19,20
 228 219 228 219 228 201 c 0,21,22
 228 163 228 163 243.5 145.5 c 128,-1,23
 259 128 259 128 294 128 c 0,24,25
 338 128 338 128 361.5 156 c 128,-1,26
 385 184 385 184 393 243 c 2,27,-1
 457 696 l 1,28,-1
 659 696 l 1,29,-1
 651 636 l 1,30,31
 673 642 673 642 683 659.5 c 128,-1,32
 693 677 693 677 693 708 c 0,33,34
 693 736 693 736 688 759 c 1,35,-1
 809 772 l 1,36,37
 817 744 817 744 817 712 c 0,38,4
 817 630 817 630 770.5 587 c 128,-1,5
EndSplineSet
Substitution2: "'c2sc' Capitals to Small Capitals lookup 27 subtable" uni1EE9.sc
Substitution2: "'aalt' Access All Alternates lookup 0 subtable" uni1EE9.sc
Position2: "'cpsp' Capital Spacing lookup 0 subtable" dx=5 dy=0 dh=10 dv=0
EndChar

StartChar: uni1EF0
Encoding: 7920 7920 277
Width: 737
GlyphClass: 2
Flags: W
AnchorPoint: "Anchor-18" 0 0 basechar 0
AnchorPoint: "Anchor-17" 720 696 basechar 0
AnchorPoint: "Anchor-16" 376 696 basechar 0
AnchorPoint: "Anchor-15" 414 0 basechar 0
AnchorPoint: "Anchor-14" 246 -264 basechar 0
LayerCount: 2
Fore
SplineSet
770.5 587 m 128,-1,1
 724 544 724 544 638 543 c 1,2,-1
 595 235 l 2,3,4
 585 162 585 162 545.5 104.5 c 128,-1,5
 506 47 506 47 438 13.5 c 128,-1,6
 370 -20 370 -20 278 -20 c 0,7,8
 152 -20 152 -20 89 36 c 128,-1,9
 26 92 26 92 26 190 c 0,10,11
 26 213 26 213 29 237 c 2,12,-1
 93 696 l 1,13,-1
 295 696 l 1,14,-1
 231 241 l 2,15,16
 228 219 228 219 228 201 c 0,17,18
 228 163 228 163 243.5 145.5 c 128,-1,19
 259 128 259 128 294 128 c 0,20,21
 338 128 338 128 361.5 156 c 128,-1,22
 385 184 385 184 393 243 c 2,23,-1
 457 696 l 1,24,-1
 659 696 l 1,25,-1
 651 636 l 1,26,27
 673 642 673 642 683 659.5 c 128,-1,28
 693 677 693 677 693 708 c 0,29,30
 693 736 693 736 688 759 c 1,31,-1
 809 772 l 1,32,33
 817 744 817 744 817 712 c 0,34,0
 817 630 817 630 770.5 587 c 128,-1,1
338.5 -78 m 128,-1,36
 365 -104 365 -104 365 -145 c 0,37,38
 365 -196 365 -196 329.5 -230 c 128,-1,39
 294 -264 294 -264 242 -264 c 0,40,41
 198 -264 198 -264 171.5 -238 c 128,-1,42
 145 -212 145 -212 145 -171 c 0,43,44
 145 -120 145 -120 180.5 -86 c 128,-1,45
 216 -52 216 -52 268 -52 c 0,46,35
 312 -52 312 -52 338.5 -78 c 128,-1,36
EndSplineSet
Substitution2: "'c2sc' Capitals to Small Capitals lookup 27 subtable" uni1EF1.sc
Substitution2: "'aalt' Access All Alternates lookup 0 subtable" uni1EF1.sc
Position2: "'cpsp' Capital Spacing lookup 0 subtable" dx=5 dy=0 dh=10 dv=0
EndChar

StartChar: uni1EEA
Encoding: 7914 7914 278
Width: 737
GlyphClass: 2
Flags: W
AnchorPoint: "Anchor-18" 0 0 basechar 0
AnchorPoint: "Anchor-17" 720 696 basechar 0
AnchorPoint: "Anchor-16" 402 986 basechar 0
AnchorPoint: "Anchor-15" 414 0 basechar 0
AnchorPoint: "Anchor-14" 279 0 basechar 0
LayerCount: 2
Fore
SplineSet
548 838 m 1,0,-1
 499 744 l 1,1,-1
 260 830 l 1,2,-1
 340 974 l 1,3,-1
 548 838 l 1,0,-1
770.5 587 m 128,-1,5
 724 544 724 544 638 543 c 1,6,-1
 595 235 l 2,7,8
 585 162 585 162 545.5 104.5 c 128,-1,9
 506 47 506 47 438 13.5 c 128,-1,10
 370 -20 370 -20 278 -20 c 0,11,12
 152 -20 152 -20 89 36 c 128,-1,13
 26 92 26 92 26 190 c 0,14,15
 26 213 26 213 29 237 c 2,16,-1
 93 696 l 1,17,-1
 295 696 l 1,18,-1
 231 241 l 2,19,20
 228 219 228 219 228 201 c 0,21,22
 228 163 228 163 243.5 145.5 c 128,-1,23
 259 128 259 128 294 128 c 0,24,25
 338 128 338 128 361.5 156 c 128,-1,26
 385 184 385 184 393 243 c 2,27,-1
 457 696 l 1,28,-1
 659 696 l 1,29,-1
 651 636 l 1,30,31
 673 642 673 642 683 659.5 c 128,-1,32
 693 677 693 677 693 708 c 0,33,34
 693 736 693 736 688 759 c 1,35,-1
 809 772 l 1,36,37
 817 744 817 744 817 712 c 0,38,4
 817 630 817 630 770.5 587 c 128,-1,5
EndSplineSet
Substitution2: "'c2sc' Capitals to Small Capitals lookup 27 subtable" uni1EEB.sc
Substitution2: "'aalt' Access All Alternates lookup 0 subtable" uni1EEB.sc
Position2: "'cpsp' Capital Spacing lookup 0 subtable" dx=5 dy=0 dh=10 dv=0
EndChar

StartChar: uni1EEC
Encoding: 7916 7916 279
Width: 737
GlyphClass: 2
Flags: W
AnchorPoint: "Anchor-18" 0 0 basechar 0
AnchorPoint: "Anchor-17" 720 696 basechar 0
AnchorPoint: "Anchor-16" 424 1009 basechar 0
AnchorPoint: "Anchor-15" 414 0 basechar 0
AnchorPoint: "Anchor-14" 279 0 basechar 0
LayerCount: 2
Fore
SplineSet
325 907 m 1,1,-1
 305 982 l 1,2,3
 356 1009 356 1009 417 1009 c 0,4,5
 479 1009 479 1009 511.5 980.5 c 128,-1,6
 544 952 544 952 544 907 c 0,7,8
 544 864 544 864 517.5 838 c 128,-1,9
 491 812 491 812 444 803 c 1,10,-1
 440 764 l 1,11,-1
 333 764 l 1,12,-1
 343 857 l 1,13,14
 382 858 382 858 400.5 867.5 c 128,-1,15
 419 877 419 877 419 896 c 0,16,17
 419 920 419 920 385 920 c 0,18,0
 359 920 359 920 325 907 c 1,1,-1
770.5 587 m 128,-1,20
 724 544 724 544 638 543 c 1,21,-1
 595 235 l 2,22,23
 585 162 585 162 545.5 104.5 c 128,-1,24
 506 47 506 47 438 13.5 c 128,-1,25
 370 -20 370 -20 278 -20 c 0,26,27
 152 -20 152 -20 89 36 c 128,-1,28
 26 92 26 92 26 190 c 0,29,30
 26 213 26 213 29 237 c 2,31,-1
 93 696 l 1,32,-1
 295 696 l 1,33,-1
 231 241 l 2,34,35
 228 219 228 219 228 201 c 0,36,37
 228 163 228 163 243.5 145.5 c 128,-1,38
 259 128 259 128 294 128 c 0,39,40
 338 128 338 128 361.5 156 c 128,-1,41
 385 184 385 184 393 243 c 2,42,-1
 457 696 l 1,43,-1
 659 696 l 1,44,-1
 651 636 l 1,45,46
 673 642 673 642 683 659.5 c 128,-1,47
 693 677 693 677 693 708 c 0,48,49
 693 736 693 736 688 759 c 1,50,-1
 809 772 l 1,51,52
 817 744 817 744 817 712 c 0,53,19
 817 630 817 630 770.5 587 c 128,-1,20
EndSplineSet
Substitution2: "'c2sc' Capitals to Small Capitals lookup 27 subtable" uni1EED.sc
Substitution2: "'aalt' Access All Alternates lookup 0 subtable" uni1EED.sc
Position2: "'cpsp' Capital Spacing lookup 0 subtable" dx=5 dy=0 dh=10 dv=0
EndChar

StartChar: uni1EEE
Encoding: 7918 7918 280
Width: 737
GlyphClass: 2
Flags: W
AnchorPoint: "Anchor-18" 0 0 basechar 0
AnchorPoint: "Anchor-17" 720 696 basechar 0
AnchorPoint: "Anchor-16" 399 930 basechar 0
AnchorPoint: "Anchor-15" 414 0 basechar 0
AnchorPoint: "Anchor-14" 279 0 basechar 0
LayerCount: 2
Fore
SplineSet
307.5 780.5 m 128,-1,1
 295 770 295 770 278 747 c 1,2,-1
 193 794 l 1,3,4
 221 853 221 853 262 891 c 128,-1,5
 303 929 303 929 348 929 c 0,6,7
 370 929 370 929 386 922 c 128,-1,8
 402 915 402 915 420 902 c 0,9,10
 443 886 443 886 456 886 c 0,11,12
 473 886 473 886 485.5 896.5 c 128,-1,13
 498 907 498 907 515 930 c 1,14,-1
 600 883 l 1,15,16
 572 824 572 824 531 786 c 128,-1,17
 490 748 490 748 445 748 c 0,18,19
 417 748 417 748 379 773 c 0,20,21
 365 782 365 782 356 786.5 c 128,-1,22
 347 791 347 791 338 791 c 0,23,0
 320 791 320 791 307.5 780.5 c 128,-1,1
770.5 587 m 128,-1,25
 724 544 724 544 638 543 c 1,26,-1
 595 235 l 2,27,28
 585 162 585 162 545.5 104.5 c 128,-1,29
 506 47 506 47 438 13.5 c 128,-1,30
 370 -20 370 -20 278 -20 c 0,31,32
 152 -20 152 -20 89 36 c 128,-1,33
 26 92 26 92 26 190 c 0,34,35
 26 213 26 213 29 237 c 2,36,-1
 93 696 l 1,37,-1
 295 696 l 1,38,-1
 231 241 l 2,39,40
 228 219 228 219 228 201 c 0,41,42
 228 163 228 163 243.5 145.5 c 128,-1,43
 259 128 259 128 294 128 c 0,44,45
 338 128 338 128 361.5 156 c 128,-1,46
 385 184 385 184 393 243 c 2,47,-1
 457 696 l 1,48,-1
 659 696 l 1,49,-1
 651 636 l 1,50,51
 673 642 673 642 683 659.5 c 128,-1,52
 693 677 693 677 693 708 c 0,53,54
 693 736 693 736 688 759 c 1,55,-1
 809 772 l 1,56,57
 817 744 817 744 817 712 c 0,58,24
 817 630 817 630 770.5 587 c 128,-1,25
EndSplineSet
Substitution2: "'c2sc' Capitals to Small Capitals lookup 27 subtable" uni1EEF.sc
Substitution2: "'aalt' Access All Alternates lookup 0 subtable" uni1EEF.sc
Position2: "'cpsp' Capital Spacing lookup 0 subtable" dx=5 dy=0 dh=10 dv=0
EndChar

StartChar: Uogonek
Encoding: 370 370 284
Width: 632
GlyphClass: 2
Flags: W
AnchorPoint: "Anchor-18" 0 0 basechar 0
AnchorPoint: "Anchor-17" 669 696 basechar 0
AnchorPoint: "Anchor-16" 376 696 basechar 0
AnchorPoint: "Anchor-15" 414 0 basechar 0
AnchorPoint: "Anchor-14" 279 0 basechar 0
LayerCount: 2
Fore
SplineSet
659 696 m 1,0,-1
 595 235 l 2,1,2
 583 149 583 149 530.5 85 c 128,-1,3
 478 21 478 21 391 -5 c 0,4,5
 325 -28 325 -28 299.5 -55 c 128,-1,6
 274 -82 274 -82 274 -106 c 0,7,8
 274 -139 274 -139 318 -139 c 0,9,10
 346 -139 346 -139 381 -131 c 1,11,-1
 355 -246 l 1,12,13
 320 -254 320 -254 281 -254 c 0,14,15
 216 -254 216 -254 175.5 -224.5 c 128,-1,16
 135 -195 135 -195 135 -143 c 0,17,18
 135 -62 135 -62 226 -17 c 1,19,20
 126 -6 126 -6 76 48.5 c 128,-1,21
 26 103 26 103 26 190 c 0,22,23
 26 213 26 213 29 237 c 2,24,-1
 93 696 l 1,25,-1
 295 696 l 1,26,-1
 231 241 l 2,27,28
 228 219 228 219 228 201 c 0,29,30
 228 163 228 163 243.5 145.5 c 128,-1,31
 259 128 259 128 294 128 c 0,32,33
 338 128 338 128 361.5 156 c 128,-1,34
 385 184 385 184 393 243 c 2,35,-1
 457 696 l 1,36,-1
 659 696 l 1,0,-1
EndSplineSet
Substitution2: "'c2sc' Capitals to Small Capitals lookup 27 subtable" uogonek.sc
Substitution2: "'aalt' Access All Alternates lookup 0 subtable" uogonek.sc
Position2: "'cpsp' Capital Spacing lookup 0 subtable" dx=5 dy=0 dh=10 dv=0
EndChar

StartChar: uni01B1
Encoding: 433 433 285
Width: 679
GlyphClass: 2
Flags: W
AnchorPoint: "Anchor-18" 0 0 basechar 0
AnchorPoint: "Anchor-17" 0 0 basechar 0
AnchorPoint: "Anchor-16" 400 696 basechar 0
AnchorPoint: "Anchor-15" 0 0 basechar 0
AnchorPoint: "Anchor-14" 302 0 basechar 0
LayerCount: 2
Fore
SplineSet
149.5 15 m 128,-1,1
 86 50 86 50 53 110 c 128,-1,2
 20 170 20 170 20 246 c 0,3,4
 20 346 20 346 65 426 c 128,-1,5
 110 506 110 506 196 555 c 1,6,-1
 81 555 l 1,7,-1
 101 696 l 1,8,-1
 352 696 l 1,9,-1
 334 563 l 1,10,11
 284 497 284 497 257 411 c 128,-1,12
 230 325 230 325 230 246 c 0,13,14
 230 185 230 185 251 155.5 c 128,-1,15
 272 126 272 126 317 126 c 0,16,17
 395 126 395 126 428.5 205 c 128,-1,18
 462 284 462 284 462 393 c 0,19,20
 462 454 462 454 453.5 492 c 128,-1,21
 445 530 445 530 428 565 c 1,22,-1
 446 696 l 1,23,-1
 697 696 l 1,24,-1
 677 553 l 1,25,-1
 566 553 l 1,26,27
 666 481 666 481 666 351 c 0,28,29
 666 243 666 243 620.5 159 c 128,-1,30
 575 75 575 75 492 27.5 c 128,-1,31
 409 -20 409 -20 301 -20 c 0,32,0
 213 -20 213 -20 149.5 15 c 128,-1,1
EndSplineSet
Substitution2: "'c2sc' Capitals to Small Capitals lookup 27 subtable" uni01B1.sc
Substitution2: "'aalt' Access All Alternates lookup 0 subtable" uni01B1.sc
Position2: "'cpsp' Capital Spacing lookup 0 subtable" dx=5 dy=0 dh=10 dv=0
EndChar

StartChar: V
Encoding: 86 86 289
Width: 567
GlyphClass: 2
Flags: W
AnchorPoint: "Anchor-18" 0 0 basechar 0
AnchorPoint: "Anchor-17" 0 0 basechar 0
AnchorPoint: "Anchor-16" 343 696 basechar 0
AnchorPoint: "Anchor-15" 0 0 basechar 0
AnchorPoint: "Anchor-14" 245 0 basechar 0
LayerCount: 2
Fore
SplineSet
652 696 m 1,0,-1
 382 0 l 1,1,-1
 122 0 l 1,2,-1
 35 696 l 1,3,-1
 246 696 l 1,4,-1
 273 143 l 1,5,-1
 443 696 l 1,6,-1
 652 696 l 1,0,-1
EndSplineSet
Substitution2: "'c2sc' Capitals to Small Capitals lookup 27 subtable" v.sc
Substitution2: "'aalt' Access All Alternates lookup 0 subtable" v.sc
Position2: "'cpsp' Capital Spacing lookup 0 subtable" dx=5 dy=0 dh=10 dv=0
EndChar

StartChar: uni01B2
Encoding: 434 434 290
Width: 625
GlyphClass: 2
Flags: W
AnchorPoint: "Anchor-18" 0 0 basechar 0
AnchorPoint: "Anchor-17" 0 0 basechar 0
AnchorPoint: "Anchor-16" 363 696 basechar 0
AnchorPoint: "Anchor-15" 0 0 basechar 0
AnchorPoint: "Anchor-14" 265 0 basechar 0
LayerCount: 2
Fore
SplineSet
599.5 681 m 128,-1,1
 638 646 638 646 638 570 c 0,2,3
 638 541 638 541 634 516 c 2,4,-1
 603 285 l 2,5,6
 583 136 583 136 493.5 58 c 128,-1,7
 404 -20 404 -20 261 -20 c 0,8,9
 187 -20 187 -20 133 5.5 c 128,-1,10
 79 31 79 31 51 76.5 c 128,-1,11
 23 122 23 122 23 181 c 0,12,13
 23 199 23 199 26 217 c 2,14,-1
 94 696 l 1,15,-1
 296 696 l 1,16,-1
 229 213 l 2,17,18
 227 195 227 195 227 187 c 0,19,20
 227 128 227 128 280 128 c 0,21,22
 324 128 324 128 356 164 c 128,-1,23
 388 200 388 200 399 280 c 2,24,-1
 435 539 l 2,25,26
 436 543 436 543 436 549 c 0,27,28
 436 571 436 571 417 571 c 0,29,30
 408 571 408 571 396 568 c 1,31,-1
 385 699 l 1,32,33
 433 716 433 716 486 716 c 0,34,0
 561 716 561 716 599.5 681 c 128,-1,1
EndSplineSet
Substitution2: "'c2sc' Capitals to Small Capitals lookup 27 subtable" uni028B.sc
Substitution2: "'aalt' Access All Alternates lookup 0 subtable" uni028B.sc
Position2: "'cpsp' Capital Spacing lookup 0 subtable" dx=5 dy=0 dh=10 dv=0
EndChar

StartChar: W
Encoding: 87 87 292
Width: 847
GlyphClass: 2
Flags: W
AnchorPoint: "Anchor-18" 0 0 basechar 0
AnchorPoint: "Anchor-17" 0 0 basechar 0
AnchorPoint: "Anchor-16" 486 696 basechar 0
AnchorPoint: "Anchor-15" 0 0 basechar 0
AnchorPoint: "Anchor-14" 386 0 basechar 0
LayerCount: 2
Fore
SplineSet
905 696 m 1,0,-1
 709 0 l 1,1,-1
 446 0 l 1,2,-1
 455 500 l 1,3,-1
 317 0 l 1,4,-1
 61 0 l 1,5,-1
 62 696 l 1,6,-1
 262 696 l 1,7,-1
 229 149 l 1,8,-1
 378 696 l 1,9,-1
 590 696 l 1,10,-1
 574 149 l 1,11,-1
 709 696 l 1,12,-1
 905 696 l 1,0,-1
EndSplineSet
Substitution2: "'c2sc' Capitals to Small Capitals lookup 27 subtable" w.sc
Substitution2: "'aalt' Access All Alternates lookup 0 subtable" w.sc
Position2: "'cpsp' Capital Spacing lookup 0 subtable" dx=5 dy=0 dh=10 dv=0
EndChar

StartChar: uni2C72
Encoding: 11378 11378 297
Width: 907
GlyphClass: 2
Flags: W
AnchorPoint: "Anchor-18" 0 0 basechar 0
AnchorPoint: "Anchor-17" 0 0 basechar 0
AnchorPoint: "Anchor-16" 484 696 basechar 0
AnchorPoint: "Anchor-15" 0 0 basechar 0
AnchorPoint: "Anchor-14" 382 0 basechar 0
LayerCount: 2
Fore
SplineSet
317 0 m 1,0,-1
 455 500 l 1,1,-1
 446 0 l 1,2,-1
 703 0 l 1,3,-1
 837 525 l 2,4,5
 844 552 844 552 856.5 563 c 128,-1,6
 869 574 869 574 889 574 c 0,7,8
 911 574 911 574 930 563 c 1,9,-1
 995 680 l 1,10,11
 939 716 939 716 865 716 c 0,12,13
 783 716 783 716 735 674 c 128,-1,14
 687 632 687 632 662 527 c 2,15,-1
 574 149 l 1,16,-1
 590 696 l 1,17,-1
 378 696 l 1,18,-1
 229 149 l 1,19,-1
 262 696 l 1,20,-1
 62 696 l 1,21,-1
 61 0 l 1,22,-1
 317 0 l 1,0,-1
EndSplineSet
Substitution2: "'c2sc' Capitals to Small Capitals lookup 27 subtable" uni2C73.sc
Substitution2: "'aalt' Access All Alternates lookup 0 subtable" uni2C73.sc
Position2: "'cpsp' Capital Spacing lookup 0 subtable" dx=5 dy=0 dh=10 dv=0
EndChar

StartChar: uni01F7
Encoding: 503 503 298
Width: 600
GlyphClass: 2
Flags: W
AnchorPoint: "Anchor-18" 0 0 basechar 0
AnchorPoint: "Anchor-17" 0 0 basechar 0
AnchorPoint: "Anchor-16" 360 696 basechar 0
AnchorPoint: "Anchor-15" 0 0 basechar 0
AnchorPoint: "Anchor-14" 262 0 basechar 0
LayerCount: 2
Fore
SplineSet
578 670 m 128,-1,1
 624 624 624 624 624 546 c 0,2,3
 624 460 624 460 583.5 400 c 128,-1,4
 543 340 543 340 475 300.5 c 128,-1,5
 407 261 407 261 308 227 c 2,6,-1
 236 202 l 1,7,-1
 208 0 l 1,8,-1
 6 0 l 1,9,-1
 103 696 l 1,10,-1
 305 696 l 1,11,-1
 300 660 l 1,12,13
 331 687 331 687 372 701.5 c 128,-1,14
 413 716 413 716 458 716 c 0,15,0
 532 716 532 716 578 670 c 128,-1,1
414 520 m 0,17,18
 414 546 414 546 400.5 559.5 c 128,-1,19
 387 573 387 573 364 573 c 0,20,21
 323 573 323 573 284 544 c 1,22,-1
 255 340 l 1,23,-1
 272 348 l 2,24,16
 414 418 414 418 414 520 c 0,17,18
EndSplineSet
Substitution2: "'c2sc' Capitals to Small Capitals lookup 27 subtable" uni01BF.sc
Substitution2: "'aalt' Access All Alternates lookup 0 subtable" uni01BF.sc
Position2: "'cpsp' Capital Spacing lookup 0 subtable" dx=5 dy=0 dh=10 dv=0
EndChar

StartChar: X
Encoding: 88 88 299
Width: 594
GlyphClass: 2
Flags: W
AnchorPoint: "Anchor-18" 0 0 basechar 0
AnchorPoint: "Anchor-17" 0 0 basechar 0
AnchorPoint: "Anchor-16" 356 696 basechar 0
AnchorPoint: "Anchor-15" 0 0 basechar 0
AnchorPoint: "Anchor-14" 258 0 basechar 0
LayerCount: 2
Fore
SplineSet
649 696 m 1,0,-1
 428 375 l 1,1,-1
 566 0 l 1,2,-1
 350 0 l 1,3,-1
 290 249 l 1,4,-1
 168 0 l 1,5,-1
 -48 0 l 1,6,-1
 186 369 l 1,7,-1
 62 696 l 1,8,-1
 277 696 l 1,9,-1
 322 486 l 1,10,-1
 434 696 l 1,11,-1
 649 696 l 1,0,-1
EndSplineSet
Substitution2: "'c2sc' Capitals to Small Capitals lookup 27 subtable" x.sc
Substitution2: "'aalt' Access All Alternates lookup 0 subtable" x.sc
Position2: "'cpsp' Capital Spacing lookup 0 subtable" dx=5 dy=0 dh=10 dv=0
EndChar

StartChar: Y
Encoding: 89 89 300
Width: 608
GlyphClass: 2
Flags: W
AnchorPoint: "Anchor-18" 0 0 basechar 0
AnchorPoint: "Anchor-17" 0 0 basechar 0
AnchorPoint: "Anchor-16" 364 696 basechar 0
AnchorPoint: "Anchor-15" 0 0 basechar 0
AnchorPoint: "Anchor-14" 267 0 basechar 0
LayerCount: 2
Fore
SplineSet
683 696 m 1,0,-1
 404 257 l 1,1,-1
 368 0 l 1,2,-1
 166 0 l 1,3,-1
 202 256 l 1,4,-1
 45 696 l 1,5,-1
 262 696 l 1,6,-1
 325 412 l 1,7,-1
 467 696 l 1,8,-1
 683 696 l 1,0,-1
EndSplineSet
Substitution2: "'c2sc' Capitals to Small Capitals lookup 27 subtable" y.sc
Substitution2: "'aalt' Access All Alternates lookup 0 subtable" y.sc
Position2: "'cpsp' Capital Spacing lookup 0 subtable" dx=5 dy=0 dh=10 dv=0
EndChar

StartChar: uni01B3
Encoding: 435 435 306
Width: 641
GlyphClass: 2
Flags: W
AnchorPoint: "Anchor-18" 0 0 basechar 0
AnchorPoint: "Anchor-17" 0 0 basechar 0
AnchorPoint: "Anchor-16" 381 696 basechar 0
AnchorPoint: "Anchor-15" 0 0 basechar 0
AnchorPoint: "Anchor-14" 267 0 basechar 0
LayerCount: 2
Fore
SplineSet
202 256 m 1,0,-1
 45 696 l 1,1,-1
 262 696 l 1,2,-1
 325 412 l 1,3,-1
 393 558 l 2,4,5
 433 645 433 645 478.5 680.5 c 128,-1,6
 524 716 524 716 602 716 c 0,7,8
 643 716 643 716 672.5 706.5 c 128,-1,9
 702 697 702 697 729 680 c 1,10,-1
 664 563 l 1,11,12
 645 574 645 574 623 574 c 0,13,14
 604 574 604 574 591 564 c 128,-1,15
 578 554 578 554 561 525 c 2,16,-1
 404 257 l 1,17,-1
 368 0 l 1,18,-1
 166 0 l 1,19,-1
 202 256 l 1,0,-1
EndSplineSet
Substitution2: "'c2sc' Capitals to Small Capitals lookup 27 subtable" uni01B4.sc
Substitution2: "'aalt' Access All Alternates lookup 0 subtable" uni01B4.sc
Position2: "'cpsp' Capital Spacing lookup 0 subtable" dx=5 dy=0 dh=10 dv=0
EndChar

StartChar: uni01A6
Encoding: 422 422 309
Width: 612
GlyphClass: 2
Flags: W
AnchorPoint: "Anchor-18" 0 0 basechar 0
AnchorPoint: "Anchor-17" 0 0 basechar 0
AnchorPoint: "Anchor-16" 366 696 basechar 0
AnchorPoint: "Anchor-15" 0 0 basechar 0
AnchorPoint: "Anchor-14" 0 0 basechar 0
LayerCount: 2
Fore
SplineSet
572.5 273 m 128,-1,1
 542 218 542 218 455 172 c 1,2,-1
 580 -110 l 1,3,-1
 364 -110 l 1,4,-1
 269 138 l 1,5,-1
 227 138 l 1,6,-1
 208 0 l 1,7,-1
 6 0 l 1,8,-1
 103 696 l 1,9,-1
 305 696 l 1,10,-1
 290 586 l 1,11,-1
 339 586 l 2,12,13
 603 586 603 586 603 405 c 0,14,0
 603 328 603 328 572.5 273 c 128,-1,1
246 276 m 1,15,-1
 299 276 l 2,16,17
 351 276 351 276 373 308.5 c 128,-1,18
 395 341 395 341 395 383 c 0,19,20
 395 445 395 445 314 445 c 2,21,-1
 270 445 l 1,22,-1
 246 276 l 1,15,-1
EndSplineSet
Substitution2: "'c2sc' Capitals to Small Capitals lookup 27 subtable" uni0280.sc
Substitution2: "'aalt' Access All Alternates lookup 0 subtable" uni0280.sc
Position2: "'cpsp' Capital Spacing lookup 0 subtable" dx=5 dy=0 dh=10 dv=0
EndChar

StartChar: uni024E
Encoding: 590 590 310
Width: 610
GlyphClass: 2
Flags: W
AnchorPoint: "Anchor-18" 0 0 basechar 0
AnchorPoint: "Anchor-17" 0 0 basechar 0
AnchorPoint: "Anchor-16" 365 696 basechar 0
AnchorPoint: "Anchor-15" 0 0 basechar 0
AnchorPoint: "Anchor-14" 267 0 basechar 0
LayerCount: 2
Fore
SplineSet
685 696 m 1,0,-1
 637 621 l 1,1,-1
 674 621 l 1,2,-1
 660 515 l 1,3,-1
 570 515 l 1,4,-1
 406 257 l 1,5,-1
 370 0 l 1,6,-1
 168 0 l 1,7,-1
 204 256 l 1,8,-1
 112 515 l 1,9,-1
 21 515 l 1,10,-1
 35 621 l 1,11,-1
 74 621 l 1,12,-1
 47 696 l 1,13,-1
 244 696 l 1,14,-1
 264 621 l 1,15,-1
 449 621 l 1,16,-1
 489 696 l 1,17,-1
 685 696 l 1,0,-1
325 392 m 1,18,-1
 391 515 l 1,19,-1
 292 515 l 1,20,-1
 325 392 l 1,18,-1
EndSplineSet
Substitution2: "'c2sc' Capitals to Small Capitals lookup 27 subtable" uni024F.sc
Substitution2: "'aalt' Access All Alternates lookup 0 subtable" uni024F.sc
Position2: "'cpsp' Capital Spacing lookup 0 subtable" dx=5 dy=0 dh=10 dv=0
EndChar

StartChar: Z
Encoding: 90 90 312
Width: 545
GlyphClass: 2
Flags: W
AnchorPoint: "Anchor-18" 0 0 basechar 0
AnchorPoint: "Anchor-17" 0 0 basechar 0
AnchorPoint: "Anchor-16" 333 696 basechar 0
AnchorPoint: "Anchor-15" 0 0 basechar 0
AnchorPoint: "Anchor-14" 223 0 basechar 0
LayerCount: 2
Fore
SplineSet
-28 0 m 1,0,-1
 -8 151 l 1,1,-1
 326 540 l 1,2,-1
 76 540 l 1,3,-1
 97 696 l 1,4,-1
 582 696 l 1,5,-1
 561 543 l 1,6,-1
 232 161 l 1,7,-1
 516 161 l 1,8,-1
 474 0 l 1,9,-1
 -28 0 l 1,0,-1
EndSplineSet
Substitution2: "'c2sc' Capitals to Small Capitals lookup 27 subtable" z.sc
Substitution2: "'aalt' Access All Alternates lookup 0 subtable" z.sc
Position2: "'cpsp' Capital Spacing lookup 0 subtable" dx=5 dy=0 dh=10 dv=0
EndChar

StartChar: uni0224
Encoding: 548 548 317
Width: 536
GlyphClass: 2
Flags: W
AnchorPoint: "Anchor-18" 0 0 basechar 0
AnchorPoint: "Anchor-17" 0 0 basechar 0
AnchorPoint: "Anchor-16" 328 696 basechar 0
AnchorPoint: "Anchor-15" 0 0 basechar 0
AnchorPoint: "Anchor-14" 0 0 basechar 0
LayerCount: 2
Fore
SplineSet
561 543 m 1,0,-1
 237 161 l 1,1,-1
 506 161 l 1,2,-1
 482 0 l 1,3,-1
 478 -26 l 2,4,5
 461 -125 461 -125 398 -176 c 128,-1,6
 335 -227 335 -227 236 -227 c 0,7,8
 143 -227 143 -227 86 -181 c 1,9,-1
 162 -67 l 1,10,11
 179 -77 179 -77 194 -81.5 c 128,-1,12
 209 -86 209 -86 227 -86 c 0,13,14
 277 -86 277 -86 286 -28 c 2,15,-1
 290 0 l 1,16,-1
 -28 0 l 1,17,-1
 -8 151 l 1,18,-1
 326 540 l 1,19,-1
 76 540 l 1,20,-1
 97 696 l 1,21,-1
 582 696 l 1,22,-1
 561 543 l 1,0,-1
EndSplineSet
Substitution2: "'c2sc' Capitals to Small Capitals lookup 27 subtable" uni0225.sc
Substitution2: "'aalt' Access All Alternates lookup 0 subtable" uni0225.sc
Position2: "'cpsp' Capital Spacing lookup 0 subtable" dx=5 dy=0 dh=10 dv=0
EndChar

StartChar: uni01B5
Encoding: 437 437 318
Width: 545
GlyphClass: 2
Flags: W
AnchorPoint: "Anchor-18" 0 0 basechar 0
AnchorPoint: "Anchor-17" 0 0 basechar 0
AnchorPoint: "Anchor-16" 333 696 basechar 0
AnchorPoint: "Anchor-15" 0 0 basechar 0
AnchorPoint: "Anchor-14" 235 0 basechar 0
LayerCount: 2
Fore
SplineSet
582 696 m 1,0,-1
 561 543 l 1,1,-1
 439 407 l 1,2,-1
 497 407 l 1,3,-1
 480 287 l 1,4,-1
 330 287 l 1,5,-1
 217 161 l 1,6,-1
 516 161 l 1,7,-1
 474 0 l 1,8,-1
 -28 0 l 1,9,-1
 -8 151 l 1,10,-1
 116 287 l 1,11,-1
 46 287 l 1,12,-1
 63 407 l 1,13,-1
 225 407 l 1,14,-1
 346 540 l 1,15,-1
 76 540 l 1,16,-1
 97 696 l 1,17,-1
 582 696 l 1,0,-1
EndSplineSet
Substitution2: "'c2sc' Capitals to Small Capitals lookup 27 subtable" uni01B6.sc
Substitution2: "'aalt' Access All Alternates lookup 0 subtable" uni01B6.sc
Position2: "'cpsp' Capital Spacing lookup 0 subtable" dx=5 dy=0 dh=10 dv=0
EndChar

StartChar: Eng.ss01
Encoding: 65542 -1 324
Width: 632
GlyphClass: 2
Flags: W
AnchorPoint: "Anchor-18" 0 0 basechar 0
AnchorPoint: "Anchor-17" 0 0 basechar 0
AnchorPoint: "Anchor-16" 374 696 basechar 0
AnchorPoint: "Anchor-15" 0 0 basechar 0
AnchorPoint: "Anchor-14" 0 0 basechar 0
LayerCount: 2
Fore
SplineSet
594 676 m 128,-1,1
 632 636 632 636 632 570 c 0,2,3
 632 547 632 547 630 535 c 2,4,-1
 557 0 l 1,5,-1
 554 -18 l 2,6,7
 536 -122 536 -122 470 -174.5 c 128,-1,8
 404 -227 404 -227 301 -227 c 0,9,10
 208 -227 208 -227 151 -181 c 1,11,-1
 230 -63 l 1,12,13
 248 -73 248 -73 261 -77.5 c 128,-1,14
 274 -82 274 -82 292 -82 c 0,15,16
 342 -82 342 -82 351 -28 c 2,17,-1
 355 0 l 1,18,-1
 425 506 l 2,19,20
 426 513 426 513 426 524 c 0,21,22
 426 567 426 567 387 567 c 0,23,24
 361 567 361 567 337.5 554.5 c 128,-1,25
 314 542 314 542 279 514 c 1,26,-1
 207 0 l 1,27,-1
 6 0 l 1,28,-1
 103 696 l 1,29,-1
 280 696 l 1,30,-1
 286 640 l 1,31,32
 336 681 336 681 379.5 698.5 c 128,-1,33
 423 716 423 716 481 716 c 0,34,0
 556 716 556 716 594 676 c 128,-1,1
EndSplineSet
Position2: "'cpsp' Capital Spacing lookup 0 subtable" dx=5 dy=0 dh=10 dv=0
EndChar

StartChar: uni019D.ss01
Encoding: 65543 -1 325
Width: 631
GlyphClass: 2
Flags: W
AnchorPoint: "Anchor-18" 0 0 basechar 0
AnchorPoint: "Anchor-17" 0 0 basechar 0
AnchorPoint: "Anchor-16" 374 696 basechar 0
AnchorPoint: "Anchor-15" 0 0 basechar 0
AnchorPoint: "Anchor-14" 0 0 basechar 0
LayerCount: 2
Fore
SplineSet
594.5 676 m 128,-1,1
 633 636 633 636 633 568 c 0,2,3
 633 550 633 550 630 530 c 2,4,-1
 556 0 l 1,5,-1
 355 0 l 1,6,-1
 425 506 l 2,7,8
 427 522 427 522 427 526 c 0,9,10
 427 547 427 547 417.5 557 c 128,-1,11
 408 567 408 567 387 567 c 0,12,13
 359 567 359 567 334.5 554.5 c 128,-1,14
 310 542 310 542 280 514 c 1,15,-1
 208 0 l 1,16,-1
 205 -18 l 2,17,18
 187 -122 187 -122 121 -174.5 c 128,-1,19
 55 -227 55 -227 -48 -227 c 0,20,21
 -141 -227 -141 -227 -198 -181 c 1,22,-1
 -119 -63 l 1,23,24
 -101 -73 -101 -73 -88 -77.5 c 128,-1,25
 -75 -82 -75 -82 -57 -82 c 0,26,27
 -7 -82 -7 -82 2 -28 c 2,28,-1
 6 0 l 1,29,-1
 103 696 l 1,30,-1
 280 696 l 1,31,-1
 287 640 l 1,32,33
 336 681 336 681 379 698.5 c 128,-1,34
 422 716 422 716 480 716 c 0,35,0
 556 716 556 716 594.5 676 c 128,-1,1
EndSplineSet
Position2: "'cpsp' Capital Spacing lookup 0 subtable" dx=5 dy=0 dh=10 dv=0
EndChar

StartChar: uni2C64.ss01
Encoding: 65544 -1 326
Width: 440
GlyphClass: 2
Flags: W
AnchorPoint: "Anchor-18" 0 0 basechar 0
AnchorPoint: "Anchor-17" 0 0 basechar 0
AnchorPoint: "Anchor-16" 280 696 basechar 0
AnchorPoint: "Anchor-15" 0 0 basechar 0
AnchorPoint: "Anchor-14" 0 0 basechar 0
LayerCount: 2
Fore
SplineSet
484.5 711 m 128,-1,1
 497 709 497 709 511 704 c 1,2,-1
 455 508 l 1,3,4
 431 516 431 516 400 516 c 0,5,6
 346 516 346 516 315 485.5 c 128,-1,7
 284 455 284 455 263 397 c 1,8,-1
 208 0 l 1,9,-1
 204 -30 l 2,10,11
 203 -35 203 -35 203 -43 c 0,12,13
 203 -82 203 -82 243 -82 c 0,14,15
 262 -82 262 -82 276.5 -78 c 128,-1,16
 291 -74 291 -74 313 -64 c 1,17,-1
 361 -183 l 1,18,19
 295 -227 295 -227 202 -227 c 0,20,21
 108 -227 108 -227 54.5 -183 c 128,-1,22
 1 -139 1 -139 1 -54 c 0,23,24
 1 -36 1 -36 4 -15 c 2,25,-1
 6 0 l 1,26,-1
 103 696 l 1,27,-1
 280 696 l 1,28,-1
 283 599 l 1,29,30
 307 652 307 652 348.5 682.5 c 128,-1,31
 390 713 390 713 449 713 c 0,32,0
 472 713 472 713 484.5 711 c 128,-1,1
EndSplineSet
Position2: "'cpsp' Capital Spacing lookup 0 subtable" dx=5 dy=0 dh=10 dv=0
EndChar

StartChar: uniA78D.ss02
Encoding: 65546 -1 328
Width: 586
GlyphClass: 2
Flags: W
AnchorPoint: "Anchor-18" 0 0 basechar 0
AnchorPoint: "Anchor-17" 0 0 basechar 0
AnchorPoint: "Anchor-16" 337 696 basechar 0
AnchorPoint: "Anchor-15" 0 0 basechar 0
AnchorPoint: "Anchor-14" 255 0 basechar 0
LayerCount: 2
Fore
SplineSet
505 0 m 1,0,-1
 303 0 l 1,1,-1
 335 231 l 1,2,-1
 6 230 l 1,3,-1
 71 696 l 1,4,-1
 273 696 l 1,5,-1
 231 389 l 1,6,-1
 358 389 l 1,7,-1
 400 696 l 1,8,-1
 602 696 l 1,9,-1
 505 0 l 1,0,-1
EndSplineSet
Position2: "'cpsp' Capital Spacing lookup 0 subtable" dx=5 dy=0 dh=10 dv=0
EndChar

StartChar: uni0299
Encoding: 665 665 329
Width: 535
GlyphClass: 2
Flags: W
AnchorPoint: "Anchor-18" 0 0 basechar 0
AnchorPoint: "Anchor-17" 0 0 basechar 0
AnchorPoint: "Anchor-16" 305 534 basechar 0
AnchorPoint: "Anchor-15" 0 0 basechar 0
AnchorPoint: "Anchor-14" 229 0 basechar 0
LayerCount: 2
Fore
SplineSet
511 184 m 0,1,2
 511 92 511 92 439 46 c 128,-1,3
 367 0 367 0 246 0 c 2,4,-1
 4 0 l 1,5,-1
 77 529 l 1,6,7
 216 554 216 554 306 554 c 0,8,9
 409 554 409 554 466.5 520.5 c 128,-1,10
 524 487 524 487 524 424 c 0,11,12
 524 374 524 374 491 340.5 c 128,-1,13
 458 307 458 307 394 295 c 1,14,0
 511 279 511 279 511 184 c 0,1,2
314 347 m 128,-1,16
 330 365 330 365 330 396 c 0,17,18
 330 435 330 435 291 435 c 0,19,20
 282 435 282 435 260 433 c 1,21,-1
 245 329 l 1,22,-1
 272 329 l 2,23,15
 298 329 298 329 314 347 c 128,-1,16
299.5 144 m 128,-1,25
 315 165 315 165 315 198 c 0,26,27
 315 237 315 237 271 237 c 2,28,-1
 232 237 l 1,29,-1
 215 123 l 1,30,-1
 253 123 l 2,31,24
 284 123 284 123 299.5 144 c 128,-1,25
EndSplineSet
EndChar

StartChar: uni0262
Encoding: 610 610 330
Width: 550
GlyphClass: 2
Flags: W
AnchorPoint: "Anchor-18" 0 0 basechar 0
AnchorPoint: "Anchor-17" 0 0 basechar 0
AnchorPoint: "Anchor-16" 334 534 basechar 0
AnchorPoint: "Anchor-15" 0 0 basechar 0
AnchorPoint: "Anchor-14" 258 0 basechar 0
LayerCount: 2
Fore
SplineSet
460 533 m 128,-1,1
 510 512 510 512 549 475 c 1,2,-1
 446 379 l 1,3,4
 395 419 395 419 342 419 c 0,5,6
 273 419 273 419 242 357 c 128,-1,7
 211 295 211 295 211 203 c 0,8,9
 211 156 211 156 226.5 137 c 128,-1,10
 242 118 242 118 273 118 c 0,11,12
 302 118 302 118 327 127 c 1,13,-1
 337 196 l 1,14,-1
 288 196 l 1,15,-1
 287 320 l 1,16,-1
 535 320 l 1,17,-1
 498 51 l 1,18,19
 449 18 449 18 387.5 0 c 128,-1,20
 326 -18 326 -18 256 -18 c 0,21,22
 11 -18 11 -18 11 202 c 0,23,24
 11 305 11 305 52.5 385 c 128,-1,25
 94 465 94 465 168.5 509.5 c 128,-1,26
 243 554 243 554 339 554 c 0,27,0
 410 554 410 554 460 533 c 128,-1,1
EndSplineSet
EndChar

StartChar: uni029B
Encoding: 667 667 331
Width: 560
GlyphClass: 2
Flags: W
AnchorPoint: "Anchor-18" 0 0 basechar 0
AnchorPoint: "Anchor-17" 0 0 basechar 0
AnchorPoint: "Anchor-16" 347 744 basechar 0
AnchorPoint: "Anchor-15" 0 0 basechar 0
AnchorPoint: "Anchor-14" 259 0 basechar 0
LayerCount: 2
Fore
SplineSet
739 726 m 1,1,-1
 673 606 l 1,2,3
 644 622 644 622 614 622 c 0,4,5
 590 622 590 622 578 608.5 c 128,-1,6
 566 595 566 595 562 567 c 2,7,-1
 549 475 l 1,8,-1
 456 389 l 1,9,10
 394 419 394 419 342 419 c 0,11,12
 273 419 273 419 242 357 c 128,-1,13
 211 295 211 295 211 203 c 0,14,15
 211 156 211 156 226.5 137 c 128,-1,16
 242 118 242 118 273 118 c 0,17,18
 302 118 302 118 327 127 c 1,19,-1
 337 196 l 1,20,-1
 288 196 l 1,21,-1
 287 320 l 1,22,-1
 535 320 l 1,23,-1
 498 51 l 1,24,25
 449 18 449 18 387.5 0 c 128,-1,26
 326 -18 326 -18 256 -18 c 0,27,28
 11 -18 11 -18 11 202 c 0,29,30
 11 303 11 303 53 383.5 c 128,-1,31
 95 464 95 464 165 509 c 128,-1,32
 235 554 235 554 316 554 c 0,33,34
 355 554 355 554 393 544 c 1,35,-1
 399 586 l 2,36,37
 411 671 411 671 460.5 717.5 c 128,-1,38
 510 764 510 764 599 764 c 0,39,0
 682 764 682 764 739 726 c 1,1,-1
EndSplineSet
EndChar

StartChar: uni026A
Encoding: 618 618 333
Width: 331
GlyphClass: 2
Flags: W
AnchorPoint: "Anchor-18" 0 0 basechar 0
AnchorPoint: "Anchor-17" 0 0 basechar 0
AnchorPoint: "Anchor-16" 204 534 basechar 0
AnchorPoint: "Anchor-15" 0 0 basechar 0
AnchorPoint: "Anchor-14" 128 0 basechar 0
LayerCount: 2
Fore
SplineSet
341 399 m 1,0,-1
 281 399 l 1,1,-1
 244 135 l 1,2,-1
 304 135 l 1,3,-1
 285 0 l 1,4,-1
 -29 0 l 1,5,-1
 -10 135 l 1,6,-1
 50 135 l 1,7,-1
 87 399 l 1,8,-1
 27 399 l 1,9,-1
 46 534 l 1,10,-1
 360 534 l 1,11,-1
 341 399 l 1,0,-1
EndSplineSet
EndChar

StartChar: uni029F
Encoding: 671 671 334
Width: 454
GlyphClass: 2
Flags: W
AnchorPoint: "Anchor-18" 0 0 basechar 0
AnchorPoint: "Anchor-17" 0 0 basechar 0
AnchorPoint: "Anchor-16" 175 534 basechar 0
AnchorPoint: "Anchor-15" 0 0 basechar 0
AnchorPoint: "Anchor-14" 189 0 basechar 0
LayerCount: 2
Fore
SplineSet
272 534 m 1,0,-1
 219 148 l 1,1,-1
 429 148 l 1,2,-1
 388 0 l 1,3,-1
 4 0 l 1,4,-1
 78 534 l 1,5,-1
 272 534 l 1,0,-1
EndSplineSet
EndChar

StartChar: uni0274
Encoding: 628 628 335
Width: 571
GlyphClass: 2
Flags: W
AnchorPoint: "Anchor-18" 0 0 basechar 0
AnchorPoint: "Anchor-17" 0 0 basechar 0
AnchorPoint: "Anchor-16" 324 534 basechar 0
AnchorPoint: "Anchor-15" 0 0 basechar 0
AnchorPoint: "Anchor-14" 248 0 basechar 0
LayerCount: 2
Fore
SplineSet
493 0 m 1,0,-1
 265 0 l 1,1,-1
 195 368 l 1,2,3
 199 302 199 302 199 256 c 0,4,5
 199 182 199 182 190 114 c 2,6,-1
 174 0 l 1,7,-1
 4 0 l 1,8,-1
 78 534 l 1,9,-1
 303 534 l 1,10,-1
 377 167 l 1,11,12
 373 253 373 253 373 282 c 0,13,14
 373 346 373 346 384 428 c 2,15,-1
 398 534 l 1,16,-1
 567 534 l 1,17,-1
 493 0 l 1,0,-1
EndSplineSet
EndChar

StartChar: uni0276
Encoding: 630 630 336
Width: 762
GlyphClass: 2
Flags: W
AnchorPoint: "Anchor-18" 0 0 basechar 0
AnchorPoint: "Anchor-17" 0 0 basechar 0
AnchorPoint: "Anchor-16" 459 534 basechar 0
AnchorPoint: "Anchor-15" 0 0 basechar 0
AnchorPoint: "Anchor-14" 373 0 basechar 0
LayerCount: 2
Fore
SplineSet
524 402 m 1,0,1
 540 371 540 371 546 334 c 1,2,-1
 715 334 l 1,3,-1
 697 206 l 1,4,-1
 535 206 l 1,5,6
 521 166 521 166 495 133 c 1,7,-1
 722 133 l 1,8,-1
 703 0 l 1,9,-1
 354 0 l 1,10,11
 302 -20 302 -20 245 -20 c 0,12,13
 136 -20 136 -20 74.5 41 c 128,-1,14
 13 102 13 102 13 211 c 0,15,16
 13 298 13 298 43.5 376 c 128,-1,17
 74 454 74 454 142.5 504 c 128,-1,18
 211 554 211 554 320 554 c 0,19,20
 375 554 375 554 427 534 c 1,21,-1
 785 534 l 1,22,-1
 746 402 l 1,23,-1
 524 402 l 1,0,1
340 190.5 m 128,-1,25
 360 259 360 259 360 338 c 0,26,27
 360 377 360 377 347 394.5 c 128,-1,28
 334 412 334 412 307 412 c 0,29,30
 251 412 251 412 231 345.5 c 128,-1,31
 211 279 211 279 211 201 c 0,32,33
 211 159 211 159 223.5 140.5 c 128,-1,34
 236 122 236 122 263 122 c 0,35,24
 320 122 320 122 340 190.5 c 128,-1,25
EndSplineSet
EndChar

StartChar: uni0280
Encoding: 640 640 337
Width: 541
GlyphClass: 2
Flags: W
AnchorPoint: "Anchor-18" 0 0 basechar 0
AnchorPoint: "Anchor-17" 0 0 basechar 0
AnchorPoint: "Anchor-16" 306 534 basechar 0
AnchorPoint: "Anchor-15" 0 0 basechar 0
AnchorPoint: "Anchor-14" 240 0 basechar 0
LayerCount: 2
Fore
SplineSet
406 203 m 1,1,-1
 499 0 l 1,2,-1
 302 0 l 1,3,-1
 240 172 l 1,4,-1
 212 172 l 1,5,-1
 188 0 l 1,6,-1
 4 0 l 1,7,-1
 78 534 l 1,8,-1
 294 534 l 2,9,10
 399 534 399 534 453.5 495 c 128,-1,11
 508 456 508 456 508 376 c 0,12,0
 508 257 508 257 406 203 c 1,1,-1
230 298 m 1,13,-1
 253 298 l 2,14,15
 287 298 287 298 303 316 c 128,-1,16
 319 334 319 334 319 364 c 0,17,18
 319 385 319 385 307.5 393.5 c 128,-1,19
 296 402 296 402 272 402 c 2,20,-1
 244 402 l 1,21,-1
 230 298 l 1,13,-1
EndSplineSet
Substitution2: "'smcp' Lowercase to Small Capitals lookup 28 subtable" uni0280.sc
Substitution2: "'aalt' Access All Alternates lookup 0 subtable" uni0280.sc
EndChar

StartChar: uni0281
Encoding: 641 641 338
Width: 539
GlyphClass: 2
Flags: W
LayerCount: 2
Fore
SplineSet
485 205 m 0,1,2
 485 104 485 104 414.5 52 c 128,-1,3
 344 0 344 0 221 0 c 2,4,-1
 4 0 l 1,5,-1
 78 534 l 1,6,-1
 262 534 l 1,7,-1
 238 362 l 1,8,-1
 265 362 l 1,9,-1
 375 534 l 1,10,-1
 573 534 l 1,11,-1
 423 329 l 1,12,0
 485 290 485 290 485 205 c 0,1,2
295 195 m 0,14,15
 295 217 295 217 283.5 226.5 c 128,-1,16
 272 236 272 236 247 236 c 2,17,-1
 220 236 l 1,18,-1
 206 132 l 1,19,-1
 232 132 l 2,20,13
 295 132 295 132 295 195 c 0,14,15
EndSplineSet
EndChar

StartChar: uni028F
Encoding: 655 655 339
Width: 518
GlyphClass: 2
Flags: W
AnchorPoint: "Anchor-18" 0 0 basechar 0
AnchorPoint: "Anchor-17" 0 0 basechar 0
AnchorPoint: "Anchor-16" 297 534 basechar 0
AnchorPoint: "Anchor-15" 0 0 basechar 0
AnchorPoint: "Anchor-14" 221 0 basechar 0
LayerCount: 2
Fore
SplineSet
572 534 m 1,0,-1
 346 189 l 1,1,-1
 319 0 l 1,2,-1
 125 0 l 1,3,-1
 152 188 l 1,4,-1
 22 534 l 1,5,-1
 228 534 l 1,6,-1
 266 321 l 1,7,-1
 364 534 l 1,8,-1
 572 534 l 1,0,-1
EndSplineSet
EndChar

StartChar: a
Encoding: 97 97 340
Width: 574
GlyphClass: 2
Flags: W
AnchorPoint: "Anchor-18" 0 0 basechar 0
AnchorPoint: "Anchor-17" 0 0 basechar 0
AnchorPoint: "Anchor-16" 347 534 basechar 0
AnchorPoint: "Anchor-15" 494 -16 basechar 0
AnchorPoint: "Anchor-14" 277 0 basechar 0
LayerCount: 2
Fore
SplineSet
451 538.5 m 128,-1,1
 513 523 513 523 566 491 c 1,2,-1
 520 172 l 2,3,4
 518 152 518 152 518 147 c 0,5,6
 518 133 518 133 523 124.5 c 128,-1,7
 528 116 528 116 542 110 c 1,8,-1
 486 -16 l 1,9,10
 436 -13 436 -13 398 9 c 128,-1,11
 360 31 360 31 345 72 c 1,12,13
 316 29 316 29 278 4.5 c 128,-1,14
 240 -20 240 -20 186 -20 c 0,15,16
 102 -20 102 -20 56.5 38 c 128,-1,17
 11 96 11 96 11 197 c 0,18,19
 11 283 11 283 43.5 364.5 c 128,-1,20
 76 446 76 446 147.5 500 c 128,-1,21
 219 554 219 554 330 554 c 0,22,0
 389 554 389 554 451 538.5 c 128,-1,1
237 350.5 m 128,-1,24
 210 283 210 283 210 198 c 0,25,26
 210 153 210 153 221.5 137.5 c 128,-1,27
 233 122 233 122 253 122 c 0,28,29
 295 122 295 122 330 182 c 1,30,-1
 364 412 l 1,31,32
 342 418 342 418 322 418 c 0,33,23
 264 418 264 418 237 350.5 c 128,-1,24
EndSplineSet
Substitution2: "Single Substitution lookup 44 subtable" ordfeminine
Substitution2: "'smcp' Lowercase to Small Capitals lookup 28 subtable" a.sc
AlternateSubs2: "'aalt' Access All Alternates lookup 1 subtable" ordfeminine a.sc
EndChar

StartChar: uni1EAF
Encoding: 7855 7855 343
Width: 574
GlyphClass: 2
Flags: W
AnchorPoint: "Anchor-18" 0 0 basechar 0
AnchorPoint: "Anchor-17" 0 0 basechar 0
AnchorPoint: "Anchor-16" 388 807 basechar 0
AnchorPoint: "Anchor-15" 494 -16 basechar 0
AnchorPoint: "Anchor-14" 0 0 basechar 0
LayerCount: 2
Fore
SplineSet
474 1027 m 1,0,-1
 565 925 l 1,1,-1
 376 776 l 1,2,-1
 311 841 l 1,3,-1
 474 1027 l 1,0,-1
269 629.5 m 128,-1,5
 233 656 233 656 217.5 698.5 c 128,-1,6
 202 741 202 741 205 790 c 1,7,-1
 305 805 l 1,8,9
 308 775 308 775 325.5 756 c 128,-1,10
 343 737 343 737 374 737 c 0,11,12
 406 737 406 737 429 756.5 c 128,-1,13
 452 776 452 776 464 807 c 1,14,-1
 567 788 l 1,15,16
 550 711 550 711 497 657 c 128,-1,17
 444 603 444 603 362 603 c 0,18,4
 305 603 305 603 269 629.5 c 128,-1,5
451 538.5 m 128,-1,20
 513 523 513 523 566 491 c 1,21,-1
 520 172 l 2,22,23
 518 152 518 152 518 147 c 0,24,25
 518 133 518 133 523 124.5 c 128,-1,26
 528 116 528 116 542 110 c 1,27,-1
 486 -16 l 1,28,29
 436 -13 436 -13 398 9 c 128,-1,30
 360 31 360 31 345 72 c 1,31,32
 316 29 316 29 278 4.5 c 128,-1,33
 240 -20 240 -20 186 -20 c 0,34,35
 102 -20 102 -20 56.5 38 c 128,-1,36
 11 96 11 96 11 197 c 0,37,38
 11 283 11 283 43.5 364.5 c 128,-1,39
 76 446 76 446 147.5 500 c 128,-1,40
 219 554 219 554 330 554 c 0,41,19
 389 554 389 554 451 538.5 c 128,-1,20
237 350.5 m 128,-1,43
 210 283 210 283 210 198 c 0,44,45
 210 153 210 153 221.5 137.5 c 128,-1,46
 233 122 233 122 253 122 c 0,47,48
 295 122 295 122 330 182 c 1,49,-1
 364 412 l 1,50,51
 342 418 342 418 322 418 c 0,52,42
 264 418 264 418 237 350.5 c 128,-1,43
EndSplineSet
Substitution2: "'smcp' Lowercase to Small Capitals lookup 28 subtable" uni1EAF.sc
Substitution2: "'aalt' Access All Alternates lookup 0 subtable" uni1EAF.sc
EndChar

StartChar: uni1EB1
Encoding: 7857 7857 345
Width: 574
GlyphClass: 2
Flags: W
AnchorPoint: "Anchor-18" 0 0 basechar 0
AnchorPoint: "Anchor-17" 0 0 basechar 0
AnchorPoint: "Anchor-16" 388 807 basechar 0
AnchorPoint: "Anchor-15" 494 -16 basechar 0
AnchorPoint: "Anchor-14" 0 0 basechar 0
LayerCount: 2
Fore
SplineSet
342 1024 m 1,0,-1
 454 836 l 1,1,-1
 376 776 l 1,2,-1
 228 932 l 1,3,-1
 342 1024 l 1,0,-1
269 629.5 m 128,-1,5
 233 656 233 656 217.5 698.5 c 128,-1,6
 202 741 202 741 205 790 c 1,7,-1
 305 805 l 1,8,9
 308 775 308 775 325.5 756 c 128,-1,10
 343 737 343 737 374 737 c 0,11,12
 406 737 406 737 429 756.5 c 128,-1,13
 452 776 452 776 464 807 c 1,14,-1
 567 788 l 1,15,16
 550 711 550 711 497 657 c 128,-1,17
 444 603 444 603 362 603 c 0,18,4
 305 603 305 603 269 629.5 c 128,-1,5
451 538.5 m 128,-1,20
 513 523 513 523 566 491 c 1,21,-1
 520 172 l 2,22,23
 518 152 518 152 518 147 c 0,24,25
 518 133 518 133 523 124.5 c 128,-1,26
 528 116 528 116 542 110 c 1,27,-1
 486 -16 l 1,28,29
 436 -13 436 -13 398 9 c 128,-1,30
 360 31 360 31 345 72 c 1,31,32
 316 29 316 29 278 4.5 c 128,-1,33
 240 -20 240 -20 186 -20 c 0,34,35
 102 -20 102 -20 56.5 38 c 128,-1,36
 11 96 11 96 11 197 c 0,37,38
 11 283 11 283 43.5 364.5 c 128,-1,39
 76 446 76 446 147.5 500 c 128,-1,40
 219 554 219 554 330 554 c 0,41,19
 389 554 389 554 451 538.5 c 128,-1,20
237 350.5 m 128,-1,43
 210 283 210 283 210 198 c 0,44,45
 210 153 210 153 221.5 137.5 c 128,-1,46
 233 122 233 122 253 122 c 0,47,48
 295 122 295 122 330 182 c 1,49,-1
 364 412 l 1,50,51
 342 418 342 418 322 418 c 0,52,42
 264 418 264 418 237 350.5 c 128,-1,43
EndSplineSet
Substitution2: "'smcp' Lowercase to Small Capitals lookup 28 subtable" uni1EB1.sc
Substitution2: "'aalt' Access All Alternates lookup 0 subtable" uni1EB1.sc
EndChar

StartChar: uni1EB5
Encoding: 7861 7861 347
Width: 574
GlyphClass: 2
Flags: W
AnchorPoint: "Anchor-18" 0 0 basechar 0
AnchorPoint: "Anchor-17" 0 0 basechar 0
AnchorPoint: "Anchor-16" 413 987 basechar 0
AnchorPoint: "Anchor-15" 494 -16 basechar 0
AnchorPoint: "Anchor-14" 0 0 basechar 0
LayerCount: 2
Fore
SplineSet
428 828 m 128,-1,1
 415 833 415 833 393 845 c 0,2,3
 368 861 368 861 353 861 c 0,4,5
 336 861 336 861 323.5 851.5 c 128,-1,6
 311 842 311 842 295 822 c 1,7,-1
 211 864 l 1,8,9
 240 918 240 918 279 952 c 128,-1,10
 318 986 318 986 363 986 c 0,11,12
 385 986 385 986 401 979.5 c 128,-1,13
 417 973 417 973 434 962 c 0,14,15
 443 956 443 956 452 951.5 c 128,-1,16
 461 947 461 947 469 947 c 0,17,18
 486 947 486 947 498 956 c 128,-1,19
 510 965 510 965 527 987 c 1,20,-1
 610 944 l 1,21,22
 583 891 583 891 542.5 857 c 128,-1,23
 502 823 502 823 458 823 c 0,24,0
 441 823 441 823 428 828 c 128,-1,1
278 629.5 m 128,-1,26
 242 656 242 656 226.5 698.5 c 128,-1,27
 211 741 211 741 214 790 c 1,28,-1
 314 805 l 1,29,30
 317 775 317 775 334.5 756 c 128,-1,31
 352 737 352 737 383 737 c 0,32,33
 415 737 415 737 438 756.5 c 128,-1,34
 461 776 461 776 473 807 c 1,35,-1
 576 788 l 1,36,37
 559 711 559 711 506 657 c 128,-1,38
 453 603 453 603 371 603 c 0,39,25
 314 603 314 603 278 629.5 c 128,-1,26
451 538.5 m 128,-1,41
 513 523 513 523 566 491 c 1,42,-1
 520 172 l 2,43,44
 518 152 518 152 518 147 c 0,45,46
 518 133 518 133 523 124.5 c 128,-1,47
 528 116 528 116 542 110 c 1,48,-1
 486 -16 l 1,49,50
 436 -13 436 -13 398 9 c 128,-1,51
 360 31 360 31 345 72 c 1,52,53
 316 29 316 29 278 4.5 c 128,-1,54
 240 -20 240 -20 186 -20 c 0,55,56
 102 -20 102 -20 56.5 38 c 128,-1,57
 11 96 11 96 11 197 c 0,58,59
 11 283 11 283 43.5 364.5 c 128,-1,60
 76 446 76 446 147.5 500 c 128,-1,61
 219 554 219 554 330 554 c 0,62,40
 389 554 389 554 451 538.5 c 128,-1,41
237 350.5 m 128,-1,64
 210 283 210 283 210 198 c 0,65,66
 210 153 210 153 221.5 137.5 c 128,-1,67
 233 122 233 122 253 122 c 0,68,69
 295 122 295 122 330 182 c 1,70,-1
 364 412 l 1,71,72
 342 418 342 418 322 418 c 0,73,63
 264 418 264 418 237 350.5 c 128,-1,64
EndSplineSet
Substitution2: "'smcp' Lowercase to Small Capitals lookup 28 subtable" uni1EB5.sc
Substitution2: "'aalt' Access All Alternates lookup 0 subtable" uni1EB5.sc
EndChar

StartChar: uni1EA5
Encoding: 7845 7845 350
Width: 574
GlyphClass: 2
Flags: W
AnchorPoint: "Anchor-18" 0 0 basechar 0
AnchorPoint: "Anchor-17" 451 686 basechar 0
AnchorPoint: "Anchor-16" 378 800 basechar 0
AnchorPoint: "Anchor-15" 494 -16 basechar 0
AnchorPoint: "Anchor-14" 0 0 basechar 0
LayerCount: 2
Fore
SplineSet
633 996 m 1,0,-1
 724 894 l 1,1,-1
 535 745 l 1,2,-1
 470 810 l 1,3,-1
 633 996 l 1,0,-1
218 582 m 1,4,-1
 159 659 l 1,5,-1
 321 800 l 1,6,-1
 437 800 l 1,7,-1
 559 659 l 1,8,-1
 486 582 l 1,9,-1
 364 669 l 1,10,-1
 218 582 l 1,4,-1
451 538.5 m 128,-1,12
 513 523 513 523 566 491 c 1,13,-1
 520 172 l 2,14,15
 518 152 518 152 518 147 c 0,16,17
 518 133 518 133 523 124.5 c 128,-1,18
 528 116 528 116 542 110 c 1,19,-1
 486 -16 l 1,20,21
 436 -13 436 -13 398 9 c 128,-1,22
 360 31 360 31 345 72 c 1,23,24
 316 29 316 29 278 4.5 c 128,-1,25
 240 -20 240 -20 186 -20 c 0,26,27
 102 -20 102 -20 56.5 38 c 128,-1,28
 11 96 11 96 11 197 c 0,29,30
 11 283 11 283 43.5 364.5 c 128,-1,31
 76 446 76 446 147.5 500 c 128,-1,32
 219 554 219 554 330 554 c 0,33,11
 389 554 389 554 451 538.5 c 128,-1,12
237 350.5 m 128,-1,35
 210 283 210 283 210 198 c 0,36,37
 210 153 210 153 221.5 137.5 c 128,-1,38
 233 122 233 122 253 122 c 0,39,40
 295 122 295 122 330 182 c 1,41,-1
 364 412 l 1,42,43
 342 418 342 418 322 418 c 0,44,34
 264 418 264 418 237 350.5 c 128,-1,35
EndSplineSet
Substitution2: "'smcp' Lowercase to Small Capitals lookup 28 subtable" uni1EA5.sc
Substitution2: "'aalt' Access All Alternates lookup 0 subtable" uni1EA5.sc
EndChar

StartChar: uni1EA7
Encoding: 7847 7847 352
Width: 574
GlyphClass: 2
Flags: W
AnchorPoint: "Anchor-18" 0 0 basechar 0
AnchorPoint: "Anchor-17" 452 686 basechar 0
AnchorPoint: "Anchor-16" 379 800 basechar 0
AnchorPoint: "Anchor-15" 494 -16 basechar 0
AnchorPoint: "Anchor-14" 0 0 basechar 0
LayerCount: 2
Fore
SplineSet
168 993 m 1,0,-1
 280 805 l 1,1,-1
 202 745 l 1,2,-1
 54 901 l 1,3,-1
 168 993 l 1,0,-1
219 582 m 1,4,-1
 160 659 l 1,5,-1
 322 800 l 1,6,-1
 438 800 l 1,7,-1
 560 659 l 1,8,-1
 487 582 l 1,9,-1
 365 669 l 1,10,-1
 219 582 l 1,4,-1
451 538.5 m 128,-1,12
 513 523 513 523 566 491 c 1,13,-1
 520 172 l 2,14,15
 518 152 518 152 518 147 c 0,16,17
 518 133 518 133 523 124.5 c 128,-1,18
 528 116 528 116 542 110 c 1,19,-1
 486 -16 l 1,20,21
 436 -13 436 -13 398 9 c 128,-1,22
 360 31 360 31 345 72 c 1,23,24
 316 29 316 29 278 4.5 c 128,-1,25
 240 -20 240 -20 186 -20 c 0,26,27
 102 -20 102 -20 56.5 38 c 128,-1,28
 11 96 11 96 11 197 c 0,29,30
 11 283 11 283 43.5 364.5 c 128,-1,31
 76 446 76 446 147.5 500 c 128,-1,32
 219 554 219 554 330 554 c 0,33,11
 389 554 389 554 451 538.5 c 128,-1,12
237 350.5 m 128,-1,35
 210 283 210 283 210 198 c 0,36,37
 210 153 210 153 221.5 137.5 c 128,-1,38
 233 122 233 122 253 122 c 0,39,40
 295 122 295 122 330 182 c 1,41,-1
 364 412 l 1,42,43
 342 418 342 418 322 418 c 0,44,34
 264 418 264 418 237 350.5 c 128,-1,35
EndSplineSet
Substitution2: "'smcp' Lowercase to Small Capitals lookup 28 subtable" uni1EA7.sc
Substitution2: "'aalt' Access All Alternates lookup 0 subtable" uni1EA7.sc
EndChar

StartChar: uni1EAB
Encoding: 7851 7851 354
Width: 574
GlyphClass: 2
Flags: W
AnchorPoint: "Anchor-18" 0 0 basechar 0
AnchorPoint: "Anchor-17" 447 686 basechar 0
AnchorPoint: "Anchor-16" 398 990 basechar 0
AnchorPoint: "Anchor-15" 494 -16 basechar 0
AnchorPoint: "Anchor-14" 0 0 basechar 0
LayerCount: 2
Fore
SplineSet
413 831 m 128,-1,1
 400 836 400 836 378 848 c 0,2,3
 353 864 353 864 338 864 c 0,4,5
 321 864 321 864 308.5 854.5 c 128,-1,6
 296 845 296 845 280 825 c 1,7,-1
 196 867 l 1,8,9
 225 921 225 921 264 955 c 128,-1,10
 303 989 303 989 348 989 c 0,11,12
 370 989 370 989 386 982.5 c 128,-1,13
 402 976 402 976 419 965 c 0,14,15
 428 959 428 959 437 954.5 c 128,-1,16
 446 950 446 950 454 950 c 0,17,18
 471 950 471 950 483 959 c 128,-1,19
 495 968 495 968 512 990 c 1,20,-1
 595 947 l 1,21,22
 568 894 568 894 527.5 860 c 128,-1,23
 487 826 487 826 443 826 c 0,24,0
 426 826 426 826 413 831 c 128,-1,1
214 582 m 1,25,-1
 155 659 l 1,26,-1
 317 800 l 1,27,-1
 433 800 l 1,28,-1
 555 659 l 1,29,-1
 482 582 l 1,30,-1
 360 669 l 1,31,-1
 214 582 l 1,25,-1
451 538.5 m 128,-1,33
 513 523 513 523 566 491 c 1,34,-1
 520 172 l 2,35,36
 518 152 518 152 518 147 c 0,37,38
 518 133 518 133 523 124.5 c 128,-1,39
 528 116 528 116 542 110 c 1,40,-1
 486 -16 l 1,41,42
 436 -13 436 -13 398 9 c 128,-1,43
 360 31 360 31 345 72 c 1,44,45
 316 29 316 29 278 4.5 c 128,-1,46
 240 -20 240 -20 186 -20 c 0,47,48
 102 -20 102 -20 56.5 38 c 128,-1,49
 11 96 11 96 11 197 c 0,50,51
 11 283 11 283 43.5 364.5 c 128,-1,52
 76 446 76 446 147.5 500 c 128,-1,53
 219 554 219 554 330 554 c 0,54,32
 389 554 389 554 451 538.5 c 128,-1,33
237 350.5 m 128,-1,56
 210 283 210 283 210 198 c 0,57,58
 210 153 210 153 221.5 137.5 c 128,-1,59
 233 122 233 122 253 122 c 0,60,61
 295 122 295 122 330 182 c 1,62,-1
 364 412 l 1,63,64
 342 418 342 418 322 418 c 0,65,55
 264 418 264 418 237 350.5 c 128,-1,56
EndSplineSet
Substitution2: "'smcp' Lowercase to Small Capitals lookup 28 subtable" uni1EAB.sc
Substitution2: "'aalt' Access All Alternates lookup 0 subtable" uni1EAB.sc
EndChar

StartChar: uni0251
Encoding: 593 593 364
Width: 574
GlyphClass: 2
Flags: W
AnchorPoint: "Anchor-18" 0 0 basechar 0
AnchorPoint: "Anchor-17" 0 0 basechar 0
AnchorPoint: "Anchor-16" 326 534 basechar 0
AnchorPoint: "Anchor-15" 0 0 basechar 0
AnchorPoint: "Anchor-14" 250 0 basechar 0
LayerCount: 2
Fore
SplineSet
518 147 m 0,1,2
 518 133 518 133 523 124.5 c 128,-1,3
 528 116 528 116 542 110 c 1,4,-1
 486 -16 l 1,5,6
 436 -13 436 -13 398 9 c 128,-1,7
 360 31 360 31 345 72 c 1,8,9
 286 -20 286 -20 188 -20 c 0,10,11
 101 -20 101 -20 56 37.5 c 128,-1,12
 11 95 11 95 11 197 c 0,13,14
 11 287 11 287 45.5 369.5 c 128,-1,15
 80 452 80 452 142.5 503 c 128,-1,16
 205 554 205 554 287 554 c 0,17,18
 376 554 376 554 411 485 c 1,19,-1
 436 534 l 1,20,-1
 572 534 l 1,21,-1
 520 172 l 2,22,0
 518 152 518 152 518 147 c 0,1,2
359 382 m 1,23,24
 340 418 340 418 305 418 c 0,25,26
 257 418 257 418 233.5 353 c 128,-1,27
 210 288 210 288 210 198 c 0,28,29
 210 153 210 153 221.5 137.5 c 128,-1,30
 233 122 233 122 253 122 c 0,31,32
 295 122 295 122 330 182 c 1,33,-1
 359 382 l 1,23,24
EndSplineSet
Substitution2: "'smcp' Lowercase to Small Capitals lookup 28 subtable" uni0251.sc
Substitution2: "'aalt' Access All Alternates lookup 0 subtable" uni0251.sc
EndChar

StartChar: uni0252
Encoding: 594 594 365
Width: 574
GlyphClass: 2
Flags: W
AnchorPoint: "Anchor-18" 0 0 basechar 0
AnchorPoint: "Anchor-17" 0 0 basechar 0
AnchorPoint: "Anchor-16" 325 534 basechar 0
AnchorPoint: "Anchor-15" 0 0 basechar 0
AnchorPoint: "Anchor-14" 249 0 basechar 0
LayerCount: 2
Fore
SplineSet
518 496.5 m 128,-1,1
 563 439 563 439 563 337 c 0,2,3
 563 247 563 247 528.5 164.5 c 128,-1,4
 494 82 494 82 431.5 31 c 128,-1,5
 369 -20 369 -20 287 -20 c 0,6,7
 198 -20 198 -20 163 49 c 1,8,-1
 138 0 l 1,9,-1
 2 0 l 1,10,-1
 54 362 l 2,11,12
 56 382 56 382 56 387 c 0,13,14
 56 401 56 401 51 409.5 c 128,-1,15
 46 418 46 418 32 424 c 1,16,-1
 88 550 l 1,17,18
 138 547 138 547 176 525 c 128,-1,19
 214 503 214 503 229 462 c 1,20,21
 288 554 288 554 386 554 c 0,22,0
 473 554 473 554 518 496.5 c 128,-1,1
340.5 181.5 m 128,-1,24
 364 247 364 247 364 336 c 0,25,26
 364 381 364 381 352.5 396.5 c 128,-1,27
 341 412 341 412 321 412 c 0,28,29
 279 412 279 412 244 352 c 1,30,-1
 215 152 l 1,31,32
 234 116 234 116 269 116 c 0,33,23
 317 116 317 116 340.5 181.5 c 128,-1,24
EndSplineSet
EndChar

StartChar: aogonek
Encoding: 261 261 367
Width: 574
GlyphClass: 2
Flags: W
AnchorPoint: "Anchor-18" 0 0 basechar 0
AnchorPoint: "Anchor-17" 0 0 basechar 0
AnchorPoint: "Anchor-16" 347 534 basechar 0
AnchorPoint: "Anchor-15" 494 -16 basechar 0
AnchorPoint: "Anchor-14" 277 0 basechar 0
LayerCount: 2
Fore
SplineSet
518 147 m 0,1,2
 518 133 518 133 523 124.5 c 128,-1,3
 528 116 528 116 542 110 c 1,4,-1
 486 -16 l 1,5,6
 412 -40 412 -40 384.5 -68.5 c 128,-1,7
 357 -97 357 -97 357 -122 c 0,8,9
 357 -155 357 -155 400 -155 c 0,10,11
 427 -155 427 -155 462 -147 c 1,12,-1
 436 -262 l 1,13,14
 401 -270 401 -270 363 -270 c 0,15,16
 300 -270 300 -270 260 -240.5 c 128,-1,17
 220 -211 220 -211 220 -159 c 0,18,19
 220 -44 220 -44 383 20 c 1,20,21
 357 40 357 40 345 72 c 1,22,23
 316 29 316 29 278 4.5 c 128,-1,24
 240 -20 240 -20 186 -20 c 0,25,26
 102 -20 102 -20 56.5 38 c 128,-1,27
 11 96 11 96 11 197 c 0,28,29
 11 283 11 283 43.5 364.5 c 128,-1,30
 76 446 76 446 147.5 500 c 128,-1,31
 219 554 219 554 330 554 c 0,32,33
 389 554 389 554 451 538.5 c 128,-1,34
 513 523 513 523 566 491 c 1,35,-1
 520 172 l 2,36,0
 518 152 518 152 518 147 c 0,1,2
364 412 m 1,37,38
 342 418 342 418 322 418 c 0,39,40
 264 418 264 418 237 350.5 c 128,-1,41
 210 283 210 283 210 198 c 0,42,43
 210 153 210 153 221.5 137.5 c 128,-1,44
 233 122 233 122 253 122 c 0,45,46
 295 122 295 122 330 182 c 1,47,-1
 364 412 l 1,37,38
EndSplineSet
Substitution2: "'smcp' Lowercase to Small Capitals lookup 28 subtable" aogonek.sc
Substitution2: "'aalt' Access All Alternates lookup 0 subtable" aogonek.sc
EndChar

StartChar: uni2C65
Encoding: 11365 11365 370
Width: 574
GlyphClass: 2
Flags: W
AnchorPoint: "Anchor-18" 0 0 basechar 0
AnchorPoint: "Anchor-17" 0 0 basechar 0
AnchorPoint: "Anchor-16" 325 534 basechar 0
AnchorPoint: "Anchor-15" 0 0 basechar 0
AnchorPoint: "Anchor-14" 249 0 basechar 0
LayerCount: 2
Fore
SplineSet
518 147 m 0,1,2
 518 133 518 133 523 124.5 c 128,-1,3
 528 116 528 116 542 110 c 1,4,-1
 486 -16 l 1,5,6
 436 -13 436 -13 398 9 c 128,-1,7
 360 31 360 31 345 72 c 1,8,9
 290 -15 290 -15 200 -20 c 1,10,-1
 177 -77 l 1,11,-1
 116 -62 l 1,12,-1
 136 -14 l 1,13,14
 75 2 75 2 43 57 c 128,-1,15
 11 112 11 112 11 197 c 0,16,17
 11 283 11 283 43.5 364.5 c 128,-1,18
 76 446 76 446 147.5 500 c 128,-1,19
 219 554 219 554 330 554 c 0,20,21
 353 554 353 554 365 553 c 1,22,-1
 386 604 l 1,23,-1
 446 589 l 1,24,-1
 428 544 l 1,25,26
 506 527 506 527 566 491 c 1,27,-1
 520 172 l 2,28,0
 518 152 518 152 518 147 c 0,1,2
203 154 m 1,30,-1
 314 428 l 1,31,32
 253 423 253 423 226.5 355.5 c 128,-1,33
 200 288 200 288 200 198 c 0,34,29
 200 171 200 171 203 154 c 1,30,-1
374 412 m 1,35,-1
 253 112 l 1,36,37
 276 114 276 114 298 129 c 128,-1,38
 320 144 320 144 337 172 c 1,39,-1
 374 412 l 1,35,-1
EndSplineSet
Substitution2: "'smcp' Lowercase to Small Capitals lookup 28 subtable" uni2C65.sc
Substitution2: "'aalt' Access All Alternates lookup 0 subtable" uni2C65.sc
EndChar

StartChar: uni0250
Encoding: 592 592 372
Width: 537
GlyphClass: 2
Flags: W
AnchorPoint: "Anchor-18" 0 0 basechar 0
AnchorPoint: "Anchor-17" 0 0 basechar 0
AnchorPoint: "Anchor-16" 308 534 basechar 0
AnchorPoint: "Anchor-15" 0 0 basechar 0
AnchorPoint: "Anchor-14" 232 0 basechar 0
LayerCount: 2
Fore
SplineSet
220 187 m 2,0,1
 218 169 218 169 218 163 c 0,2,3
 218 139 218 139 231.5 129.5 c 128,-1,4
 245 120 245 120 278 120 c 0,5,6
 339 120 339 120 417 145 c 1,7,-1
 450 21 l 1,8,9
 402 1 402 1 347 -9.5 c 128,-1,10
 292 -20 292 -20 239 -20 c 0,11,12
 132 -20 132 -20 78.5 17.5 c 128,-1,13
 25 55 25 55 25 136 c 0,14,15
 25 156 25 156 28 178 c 2,16,-1
 54 362 l 2,17,18
 56 378 56 378 56 384 c 0,19,20
 56 400 56 400 50.5 409.5 c 128,-1,21
 45 419 45 419 32 424 c 1,22,-1
 88 550 l 1,23,24
 140 546 140 546 171.5 529 c 128,-1,25
 203 512 203 512 219 476 c 1,26,27
 278 554 278 554 386 554 c 0,28,29
 458 554 458 554 499 513 c 128,-1,30
 540 472 540 472 540 403 c 0,31,32
 540 302 540 302 463.5 251.5 c 128,-1,33
 387 201 387 201 260 201 c 2,34,-1
 222 201 l 1,35,-1
 220 187 l 2,0,1
275 405.5 m 128,-1,37
 258 396 258 396 247 380 c 1,38,-1
 236 304 l 1,39,-1
 255 304 l 2,40,41
 299 304 299 304 323 323 c 128,-1,42
 347 342 347 342 347 378 c 0,43,44
 347 395 347 395 337.5 405 c 128,-1,45
 328 415 328 415 311 415 c 0,46,36
 292 415 292 415 275 405.5 c 128,-1,37
EndSplineSet
EndChar

StartChar: ae
Encoding: 230 230 373
Width: 843
GlyphClass: 2
Flags: W
AnchorPoint: "Anchor-18" 0 0 basechar 0
AnchorPoint: "Anchor-17" 0 0 basechar 0
AnchorPoint: "Anchor-16" 459 534 basechar 0
AnchorPoint: "Anchor-15" 0 0 basechar 0
AnchorPoint: "Anchor-14" 358 0 basechar 0
LayerCount: 2
Fore
SplineSet
387.5 537.5 m 128,-1,1
 425 521 425 521 452 489 c 1,2,3
 482 519 482 519 530.5 536.5 c 128,-1,4
 579 554 579 554 632 554 c 0,5,6
 733 554 733 554 789.5 511.5 c 128,-1,7
 846 469 846 469 846 401 c 0,8,9
 846 300 846 300 748 252 c 128,-1,10
 650 204 650 204 507 191 c 1,11,12
 510 149 510 149 530.5 134.5 c 128,-1,13
 551 120 551 120 588 120 c 0,14,15
 620 120 620 120 650 132 c 128,-1,16
 680 144 680 144 720 169 c 1,17,-1
 787 56 l 1,18,19
 683 -20 683 -20 562 -20 c 0,20,21
 419 -20 419 -20 359 65 c 1,22,23
 316 19 316 19 268 -0.5 c 128,-1,24
 220 -20 220 -20 164 -20 c 0,25,26
 88 -20 88 -20 42.5 20.5 c 128,-1,27
 -3 61 -3 61 -3 127 c 0,28,29
 -3 214 -3 214 62 272 c 128,-1,30
 127 330 127 330 285 330 c 2,31,-1
 331 330 l 1,32,33
 335 344 335 344 347 370 c 1,34,35
 341 391 341 391 318.5 401.5 c 128,-1,36
 296 412 296 412 263 412 c 0,37,38
 194 412 194 412 118 387 c 1,39,-1
 90 513 l 1,40,41
 196 554 196 554 290 554 c 0,42,0
 350 554 350 554 387.5 537.5 c 128,-1,1
548.5 393 m 128,-1,44
 525 357 525 357 515 302 c 1,45,46
 570 305 570 305 600.5 321.5 c 128,-1,47
 631 338 631 338 641.5 357 c 128,-1,48
 652 376 652 376 652 389 c 0,49,50
 652 408 652 408 642 418.5 c 128,-1,51
 632 429 632 429 609 429 c 0,52,43
 572 429 572 429 548.5 393 c 128,-1,44
286 222 m 2,53,54
 246 222 246 222 223.5 205.5 c 128,-1,55
 201 189 201 189 201 159 c 0,56,57
 201 141 201 141 210.5 130 c 128,-1,58
 220 119 220 119 241 119 c 0,59,60
 260 119 260 119 277 129.5 c 128,-1,61
 294 140 294 140 319 162 c 1,62,63
 315 183 315 183 315 222 c 1,64,-1
 286 222 l 2,53,54
EndSplineSet
Substitution2: "'smcp' Lowercase to Small Capitals lookup 28 subtable" ae.sc
Substitution2: "'aalt' Access All Alternates lookup 0 subtable" ae.sc
EndChar

StartChar: b
Encoding: 98 98 376
Width: 583
GlyphClass: 2
Flags: W
AnchorPoint: "Anchor-18" 0 0 basechar 0
AnchorPoint: "Anchor-17" 0 0 basechar 0
AnchorPoint: "Anchor-16" 391 744 basechar 0
AnchorPoint: "Anchor-15" 0 0 basechar 0
AnchorPoint: "Anchor-14" 254 0 basechar 0
LayerCount: 2
Fore
SplineSet
530 500.5 m 128,-1,1
 571 447 571 447 571 347 c 0,2,3
 571 199 571 199 498.5 89.5 c 128,-1,4
 426 -20 426 -20 244 -20 c 0,5,6
 120 -20 120 -20 7 30 c 1,7,-1
 107 744 l 1,8,-1
 303 764 l 1,9,-1
 265 493 l 1,10,11
 291 521 291 521 330 537.5 c 128,-1,12
 369 554 369 554 407 554 c 0,13,0
 489 554 489 554 530 500.5 c 128,-1,1
247 359 m 1,15,-1
 215 131 l 1,16,17
 241 121 241 121 266 121 c 0,18,19
 320 121 320 121 346 189 c 128,-1,20
 372 257 372 257 372 338 c 0,21,22
 372 381 372 381 360 396.5 c 128,-1,23
 348 412 348 412 326 412 c 0,24,14
 283 412 283 412 247 359 c 1,15,-1
EndSplineSet
Substitution2: "'smcp' Lowercase to Small Capitals lookup 28 subtable" b.sc
Substitution2: "'aalt' Access All Alternates lookup 0 subtable" b.sc
EndChar

